
<svg width="454px" height="64px" viewBox="0 0 454 64" version="1.1" xmlns="http://www.w3.org/2000/svg" xmlns:xlink="http://www.w3.org/1999/xlink">
    <g id="home_page" stroke="none" stroke-width="1" fill="none" fill-rule="evenodd">
        <g id="aequalis-wh" fill="#FFFFFF" fill-rule="nonzero">
            <path d="M24.8662489,1 L40.8332437,1 L66,61 L48.3367515,61 L44.1353471,50.3593301 L21.2990418,50.3593301 L17.2626011,61 L0,61 L24.8662489,1 Z M32.774544,20.9294269 L26.3011637,37.3529178 L39.3287942,37.3529178 L32.774544,20.9294269 Z" id="Combined-Shape"></path>
            <path d="M72,1 L120,1 L120,16.5004783 L72,16.5004783 L72,1 Z M72,23.2497609 L120,23.2497609 L120,38.7502391 L72,38.7502391 L72,23.2497609 Z M72,45.4995217 L120,45.4995217 L120,61 L72,61 L72,45.4995217 Z" id="Combined-Shape"></path>
            <path d="M185.502548,47.8315432 L191,52.6772424 L182.952072,62 L176.74038,56.5332165 C171.637254,59.9196839 165.468696,61.8997567 158.824598,61.8997567 C141.248358,61.8997567 127,48.0430241 127,30.9498778 C127,13.8567325 141.248358,0 158.824598,0 C176.400837,0 190.649195,13.8567325 190.649195,30.9498778 C190.649195,37.1780201 188.757558,42.9764903 185.502548,47.8315432 Z M172.554366,36.4184383 C173.319644,34.5819715 173.742378,32.5658881 173.742378,30.4506871 C173.742378,21.904114 166.84083,14.9757472 158.327338,14.9757472 C149.813847,14.9757472 142.912299,21.904114 142.912299,30.4506871 C142.912299,38.9972593 149.813847,45.9256261 158.327338,45.9256261 C160.187778,45.9256261 161.971238,45.5947648 163.62252,44.9884568 L156.391437,38.6245278 L164.548666,29.3618584 L172.554366,36.4184383 Z" id="Combined-Shape"></path>
            <path d="M214.52955,3 L214.52955,37.7981717 C214.52955,43.8279691 219.330622,48.752997 225.338351,48.8860385 C231.177597,49.0153484 236.015709,44.3702989 236.144578,38.5110299 C236.146294,38.432996 236.147152,38.3549454 236.147152,38.2768926 L236.147152,3 L253,3 C252.969051,20.5964944 252.969051,32.5689256 253,38.9172938 C253,57.2386775 238.818516,64.4207722 224.036015,63.9810577 C209.253514,63.5413443 198,54.9647644 198,38.9172938 C198,31.9744308 198,20.0019995 198,3 L214.52955,3 Z" id="Combined-Shape"></path>
            <path d="M281.866249,2 L297.833244,2 L323,62 L305.336752,62 L301.135347,51.3593301 L278.299042,51.3593301 L274.262601,62 L257,62 L281.866249,2 Z M289.774544,21.9294269 L283.301163,38.3529168 L296.328794,38.3529168 L289.774544,21.9294269 Z" id="Combined-Shape-Copy-2"></path>
            <polygon id="Combined-Shape" points="380 3 380 62 397 62 397 3"></polygon>
            <polygon id="Combined-Shape-Copy" points="343.323967 3 343.323967 47.6964762 372 47.6964762 372 62 327 62 327 3"></polygon>
            <path d="M411.210744,42.0311311 L402,53.1160602 C416.904564,67.2908563 454.354588,68.0687317 453.996154,43.1719999 C454.218989,32.190821 444.717941,28.0523853 435.8517,25.620171 C432.18779,24.6150764 426.600907,23.7414707 423.584856,22.0489648 C422.008042,21.1641107 421.544795,20.1713861 421.544795,18.5702289 C421.544795,11.2062172 439.12942,16.2706126 444.04203,20.7688761 L452.4139,9.09742507 C444.935044,3.2060729 436.36634,0.529449508 426.707791,1.06755384 C408.234488,1.07939357 404.736917,14.5629051 404.736917,20.2474837 C404.719394,23.807892 405.390657,28.6289339 409.995826,32.242235 C412.773317,34.4551554 417.843594,36.6288692 423.136721,38.1705011 C426.751793,39.2233969 430.437454,39.8709061 433.095397,40.8644961 C436.109326,41.9911599 437.262794,43.9778745 437.297646,44.6812341 C437.537502,49.5218772 430.320748,50.494321 420.460285,47.2954912 C418.351173,46.611275 415.267993,44.8564879 411.210744,42.0311311 Z" id="Path-24"></path>
        </g>
    </g>
</svg>
