<?xml version="1.0" encoding="UTF-8"?>
<svg width="79px" height="58px" viewBox="0 0 79 58" version="1.1" xmlns="http://www.w3.org/2000/svg" xmlns:xlink="http://www.w3.org/1999/xlink">
    <!-- Generator: Sketch 49.1 (51147) - http://www.bohemiancoding.com/sketch -->
    <title>group_9</title>
    <desc>Created with Sketch.</desc>
    <defs></defs>
    <g id="home" stroke="none" stroke-width="1" fill="none" fill-rule="evenodd">
        <g id="Group-9" fill="#3E61FF">
            <path d="M57.7261,21.3926 L43.7151,11.3296 C43.1501,7.7576 42.8681,6.4416 41.6451,3.0556 C41.1751,1.4566 40.3291,0.7986 39.7651,0.7986 C39.2941,0.7986 38.4491,1.4566 37.8851,3.0556 C36.7561,6.4416 36.4741,7.7576 35.8161,11.3296 L21.8031,21.3926 C21.7101,21.4866 21.7101,21.5806 21.7101,21.6736 L21.7101,24.4026 C21.7101,24.7776 21.9921,24.9666 22.2731,24.9666 L37.1321,22.8046 C37.4141,24.1196 37.7901,25.5296 38.1651,27.0356 L34.7801,30.3266 C34.3111,30.7016 34.6861,31.4556 35.2511,31.2676 L39.1071,30.1396 C39.2011,30.5146 39.3891,31.4556 39.7651,31.5476 C40.2351,31.4556 40.3291,30.5146 40.4241,30.1396 L44.2791,31.2676 C44.8431,31.4556 45.2191,30.7016 44.8431,30.3266 L41.3641,27.0356 C41.8341,25.5296 42.1161,24.1196 42.3981,22.8046 L57.2561,24.9666 C57.6311,24.9666 57.9151,24.7776 57.9151,24.4026 L57.9151,21.6736 C57.9151,21.5806 57.8191,21.4866 57.7261,21.3926" id="Fill-363"></path>
            <path d="M78.791,46.9707 L64.873,36.9077 C64.214,33.4277 63.933,32.0197 62.805,28.6347 C62.24,27.1277 61.393,26.4707 60.829,26.3767 C60.359,26.4707 59.513,27.1277 58.948,28.6347 C57.819,32.0197 57.538,33.4277 56.88,36.9077 L42.963,46.9707 C42.774,47.0657 42.774,47.1597 42.774,47.3467 L42.774,50.0747 C42.774,50.3557 43.056,50.6377 43.338,50.5447 L58.196,48.3817 C58.478,49.7927 58.854,51.2017 59.326,52.7067 L55.845,55.9037 C55.375,56.2807 55.751,57.0337 56.315,56.8447 L60.172,55.8107 C60.359,56.1877 60.452,57.0337 60.829,57.1277 C61.3,57.0337 61.393,56.1877 61.581,55.8107 L65.436,56.8447 C66.002,57.0337 66.378,56.2807 65.908,55.9037 L62.429,52.7067 C62.899,51.2017 63.179,49.7927 63.555,48.3817 L78.321,50.5447 C78.697,50.6377 78.978,50.3557 78.978,50.0747 L78.978,47.3467 C78.978,47.1597 78.884,47.0657 78.791,46.9707" id="Fill-365"></path>
            <path d="M0.7388,46.9707 L14.7508,36.9077 C15.4088,33.4277 15.6918,32.0197 16.8208,28.6347 C17.3838,27.1277 18.2308,26.4707 18.6998,26.3767 C19.2648,26.4707 20.1118,27.1277 20.5808,28.6347 C21.8038,32.0197 22.0858,33.4277 22.6498,36.9077 L36.6628,46.9707 C36.7558,47.0657 36.8498,47.1597 36.8498,47.3467 L36.8498,50.0747 C36.8498,50.3557 36.5668,50.6377 36.1928,50.5447 L21.3328,48.3817 C21.0508,49.7927 20.7698,51.2017 20.2998,52.7067 L23.7798,55.9037 C24.1548,56.2807 23.7798,57.0337 23.2138,56.8447 L19.3578,55.8107 C19.2648,56.1877 19.1708,57.0337 18.6998,57.1277 C18.3248,57.0337 18.1368,56.1877 18.0418,55.8107 L14.1868,56.8447 C13.6228,57.0337 13.2448,56.2807 13.7168,55.9037 L17.1018,52.7067 C16.7248,51.2017 16.3498,49.7927 16.0678,48.3817 L1.2088,50.5447 C0.9278,50.6377 0.6458,50.3557 0.6458,50.0747 L0.6458,47.3467 C0.6458,47.1597 0.6458,47.0657 0.7388,46.9707" id="Fill-367"></path>
        </g>
    </g>
</svg>