<?xml version="1.0" encoding="UTF-8"?>
<svg width="63px" height="75px" viewBox="0 0 63 75" version="1.1" xmlns="http://www.w3.org/2000/svg" xmlns:xlink="http://www.w3.org/1999/xlink">
    <!-- Generator: Sketch 49.1 (51147) - http://www.bohemiancoding.com/sketch -->
    <title>bitcoin copy</title>
    <desc>Created with Sketch.</desc>
    <defs></defs>
    <g id="home_page" stroke="none" stroke-width="1" fill="none" fill-rule="evenodd">
        <g id="bitcoin" fill="#3E61FF" fill-rule="nonzero">
            <path d="M32,17 C31.8112982,17 31.6219952,16.9573129 31.4495192,16.8719386 L16.6802885,9.58666896 C16.2632212,9.380348 16,8.9605911 16,8.50051873 C16,8.03985353 16.2632212,7.62009678 16.6802885,7.41377567 L31.4495192,0.12850601 C31.7956731,-0.0428353366 32.2043269,-0.0428353366 32.5510818,0.12850601 L47.3203126,7.41377567 C47.7361778,7.62009678 48,8.03985353 48,8.50051873 C48,8.9605911 47.7361778,9.380348 47.3191106,9.58666896 L32.5498798,16.8719386 C32.3780049,16.9573129 32.1881009,17 32,17 Z M19.9825722,8.50051873 L32,14.4281007 L44.0168269,8.50051873 L32,2.5723441 L19.9825722,8.50051873 Z" id="Shape"></path>
            <path d="M32,31 C31.8112982,31 31.6219952,30.9570312 31.4495192,30.8710938 L16.6802885,23.5377604 C16.2632212,23.3300783 16,22.9075521 16,22.4444444 L16,9 L18.4615385,9 L18.4615385,21.6889107 L32,28.4111329 L45.5384615,21.6889107 L45.5384615,9 L48,9 L48,22.4444444 C48,22.9075521 47.7361778,23.3300783 47.3191106,23.5377604 L32.5498798,30.8710938 C32.3780049,30.9570312 32.1881009,31 32,31 Z" id="Shape"></path>
            <polygon id="Shape" points="31 16 34 16 34 30 31 30"></polygon>
            <path d="M18,38 C17.8112982,38 17.6219952,37.9573129 17.4495192,37.8719386 L2.68028846,30.586669 C2.26322123,30.380348 2,29.9605911 2,29.5005187 C2,29.0398535 2.26322123,28.6200968 2.68028846,28.4137757 L17.4495192,21.128506 C17.7956731,20.9571647 18.2043269,20.9571647 18.5510818,21.128506 L33.3203126,28.4137757 C33.7361778,28.6200968 34,29.0398535 34,29.5005187 C34,29.9605911 33.7361778,30.380348 33.3191106,30.586669 L18.5498798,37.8719386 C18.3780049,37.9573129 18.1881009,38 18,38 Z M5.98257215,29.5005187 L18,35.4281007 L30.0168269,29.5005187 L18,23.5723441 L5.98257215,29.5005187 Z" id="Shape"></path>
            <path d="M18,51 C17.8112982,51 17.6219952,50.9570312 17.4495192,50.8710938 L2.68028846,43.5377604 C2.26322123,43.3300783 2,42.9075521 2,42.4444444 L2,29 L4.46153846,29 L4.46153846,41.6889107 L18,48.4111329 L31.5384615,41.6889107 L31.5384615,29 L34,29 L34,42.4444444 C34,42.9075521 33.7361778,43.3300783 33.3191106,43.5377604 L18.5498798,50.8710938 C18.3780049,50.9570312 18.1881009,51 18,51 Z" id="Shape"></path>
            <polygon id="Shape" points="16 36 19 36 19 50 16 50"></polygon>
            <path d="M46.5,38 C46.3171951,38 46.1338079,37.9573129 45.9667218,37.8719386 L31.6590294,30.586669 C31.2549956,30.380348 31,29.9605911 31,29.5005187 C31,29.0398535 31.2549956,28.6200968 31.6590294,28.4137757 L45.9667218,21.128506 C46.3020583,20.9571647 46.6979417,20.9571647 47.0338605,21.128506 L61.3415528,28.4137757 C61.7444223,28.6200968 62,29.0398535 62,29.5005187 C62,29.9605911 61.7444223,30.380348 61.3403884,30.586669 L47.0326961,37.8719386 C46.8661923,37.9573129 46.6822228,38 46.5,38 Z M34.8581168,29.5005187 L46.5,35.4281007 L58.1413011,29.5005187 L46.5,23.5723441 L34.8581168,29.5005187 Z" id="Shape"></path>
            <path d="M46.5,51 C46.3171951,51 46.1338079,50.9570312 45.9667218,50.8710938 L31.6590294,43.5377604 C31.2549956,43.3300783 31,42.9075521 31,42.4444444 L31,29 L33.3846154,29 L33.3846154,41.6889107 L46.5,48.4111329 L59.6153846,41.6889107 L59.6153846,29 L62,29 L62,42.4444444 C62,42.9075521 61.7444223,43.3300783 61.3403884,43.5377604 L47.0326961,50.8710938 C46.8661923,50.9570312 46.6822228,51 46.5,51 Z" id="Shape"></path>
            <polygon id="Shape" points="45 36 48 36 48 50 45 50"></polygon>
            <path d="M32.2,61 L26.2,61 C25.5361329,61 25,60.4409181 25,59.75 L25,52.25 C25,51.5584717 25.5361329,51 26.2,51 L32.2,51 C34.8472657,51 37,53.2424317 37,56 C37,58.7569581 34.8472657,61 32.2,61 Z M27.4,58.5 L32.2,58.5 C33.5236328,58.5 34.6,57.3781739 34.6,56 C34.6,54.6212159 33.5236328,53.5 32.2,53.5 L27.4,53.5 L27.4,58.5 Z" id="Shape"></path>
            <path d="M32.2,68 L26.2,68 C25.5361329,68 25,67.4409181 25,66.75 L25,59.25 C25,58.5584717 25.5361329,58 26.2,58 L32.2,58 C34.8472657,58 37,60.2424317 37,63 C37,65.7569581 34.8472657,68 32.2,68 Z M27.4,65.5 L32.2,65.5 C33.5236328,65.5 34.6,64.3781739 34.6,63 C34.6,61.6212159 33.5236328,60.5 32.2,60.5 L27.4,60.5 L27.4,65.5 Z" id="Shape"></path>
            <polygon id="Shape" points="28 49 31 49 31 53 28 53"></polygon>
            <polygon id="Shape" points="32 49 35 49 35 53 32 53"></polygon>
            <polygon id="Shape" points="28 67 31 67 31 71 28 71"></polygon>
            <polygon id="Shape" points="32 67 35 67 35 71 32 71"></polygon>
            <polygon id="Shape" points="21 58 24 58 24 61 21 61"></polygon>
            <polygon id="Shape" points="40 58 43 58 43 61 40 61"></polygon>
            <path d="M50,75 C47.2424317,75 45,72.7569581 45,70 C45,67.2424317 47.2424317,65 50,65 C52.7575684,65 55,67.2424317 55,70 C55,72.7569581 52.7575684,75 50,75 Z M50,67.5 C48.6212159,67.5 47.5,68.6212159 47.5,70 C47.5,71.3781739 48.6212159,72.5 50,72.5 C51.3787842,72.5 52.5,71.3781739 52.5,70 C52.5,68.6212159 51.3787842,67.5 50,67.5 Z" id="Shape"></path>
            <polygon id="Shape" points="49 49 52 49 52 67 49 67"></polygon>
            <path d="M58,67 C55.2424317,67 53,64.7569581 53,62 C53,59.2424317 55.2424317,57 58,57 C60.7575684,57 63,59.2424317 63,62 C63,64.7569581 60.7575684,67 58,67 Z M58,59.5 C56.6212159,59.5 55.5,60.6212159 55.5,62 C55.5,63.3781739 56.6212159,64.5 58,64.5 C59.3787842,64.5 60.5,63.3781739 60.5,62 C60.5,60.6212159 59.3787842,59.5 58,59.5 Z" id="Shape"></path>
            <polygon id="Shape" points="58 43 61 43 61 57 58 57"></polygon>
            <path d="M14,75 C11.2424317,75 9,72.7569581 9,70 C9,67.2424317 11.2424317,65 14,65 C16.7575684,65 19,67.2424317 19,70 C19,72.7569581 16.7575684,75 14,75 Z M14,67.5 C12.6212159,67.5 11.5,68.6212159 11.5,70 C11.5,71.3781739 12.6212159,72.5 14,72.5 C15.3787842,72.5 16.5,71.3781739 16.5,70 C16.5,68.6212159 15.3787842,67.5 14,67.5 Z" id="Shape"></path>
            <polygon id="Shape" points="12 49 15 49 15 67 12 67"></polygon>
            <path d="M4.99999998,67 C2.24243169,67 0,64.7569581 0,62 C0,59.2424317 2.24243169,57 4.99999998,57 C7.75756843,57 10,59.2424317 10,62 C10,64.7569581 7.75756843,67 4.99999998,67 Z M4.99999998,59.5 C3.62121591,59.5 2.49999997,60.6212159 2.49999997,62 C2.49999997,63.3781739 3.62121591,64.5 4.99999998,64.5 C6.3787842,64.5 7.49999999,63.3781739 7.49999999,62 C7.49999999,60.6212159 6.3787842,59.5 4.99999998,59.5 Z" id="Shape"></path>
            <polygon id="Shape" points="4 43 7 43 7 57 4 57"></polygon>
        </g>
    </g>
</svg>