<?xml version="1.0" encoding="UTF-8"?>
<svg width="72px" height="72px" viewBox="0 0 72 72" version="1.1" xmlns="http://www.w3.org/2000/svg" xmlns:xlink="http://www.w3.org/1999/xlink">
    <!-- Generator: Sketch 49.1 (51147) - http://www.bohemiancoding.com/sketch -->
    <title>Group 4 Copy 2</title>
    <desc>Created with Sketch.</desc>
    <defs></defs>
    <g id="home_page" stroke="none" stroke-width="1" fill="none" fill-rule="evenodd">
        <g id="blockchain" fill="#3E61FF" fill-rule="nonzero">
            <g id="Group">
                <path d="M8.21612545,10.3255005 C7.67614753,10.3255005 7.13671875,10.1195069 6.72473137,9.70751953 L0.617980922,3.60076908 C-0.205993687,2.77734375 -0.205993687,1.44140625 0.617980922,0.617980922 C1.44140625,-0.205993687 2.77734375,-0.205993687 3.60076908,0.617980922 L9.70751953,6.72473138 C10.5314941,7.5481567 10.5314941,8.8840942 9.70751953,9.70751953 C9.29608158,10.1195069 8.75610352,10.3255005 8.21612545,10.3255005 Z" id="Shape"></path>
                <path d="M26.15625,28.265625 C25.6162719,28.265625 25.0762939,28.0596313 24.6648559,27.6476441 L18.6569824,21.6397704 C17.8335571,20.8163452 17.8335571,19.480957 18.6569824,18.6569824 C19.480957,17.8330078 20.8163452,17.8330078 21.6403199,18.6569824 L27.6476441,24.6643066 C28.4716187,25.4882812 28.4716187,26.8236695 27.6476441,27.6476441 C27.2356567,28.0596313 26.6962281,28.265625 26.15625,28.265625 Z" id="Shape"></path>
                <path d="M63.7838745,10.3255005 C63.2438965,10.3255005 62.7039184,10.1195069 62.2919312,9.70751953 C61.4685059,8.8840942 61.4685059,7.5481567 62.2919312,6.72473138 L68.3992309,0.617980922 C69.2226562,-0.205993687 70.5585937,-0.205993687 71.3820191,0.617980922 C72.2059937,1.44140625 72.2059937,2.77734375 71.3820191,3.60076908 L65.2752686,9.70751953 C64.8632812,10.1195069 64.3233032,10.3255005 63.7838745,10.3255005 Z" id="Shape"></path>
                <path d="M45.84375,28.265625 C45.3037719,28.265625 44.7637939,28.0596313 44.3523559,27.6476441 C43.5283813,26.8236695 43.5283813,25.4882812 44.3523559,24.6643066 L50.3596801,18.6569824 C51.1836547,17.8330078 52.519043,17.8330078 53.3430176,18.6569824 C54.1664429,19.480957 54.1664429,20.8163452 53.3430176,21.6397704 L47.3351441,27.6476441 C46.9231567,28.0596313 46.3837281,28.265625 45.84375,28.265625 Z" id="Shape"></path>
                <path d="M2.109375,72 C1.56939694,72 1.02941887,71.7940063 0.617980922,71.3820191 C-0.205993687,70.5580445 -0.205993687,69.2226562 0.617980922,68.3986816 L6.72473137,62.2919312 C7.54870612,61.4685059 8.8840942,61.4685059 9.70806881,62.2919312 C10.5314941,63.1159058 10.5314941,64.4512939 9.70806881,65.2752686 L3.60076908,71.3820191 C3.1887817,71.7940063 2.64880378,72 2.109375,72 Z" id="Shape"></path>
                <path d="M20.1489258,53.9604492 C19.6089477,53.9604492 19.0689697,53.7550048 18.6569824,53.3430176 C17.8335571,52.519043 17.8335571,51.1836547 18.6569824,50.3596801 L24.6648559,44.3518066 C25.4882812,43.5283813 26.8242187,43.5283813 27.6481934,44.3518066 C28.4716187,45.1757812 28.4716187,46.5111695 27.6481934,47.3351441 L21.6403199,53.3430176 C21.2283325,53.7550048 20.6883546,53.9604492 20.1489258,53.9604492 Z" id="Shape"></path>
                <path d="M69.890625,72 C69.3506469,72 68.8106689,71.7940063 68.3992309,71.3820191 L62.2919312,65.2752686 C61.4685059,64.4518433 61.4685059,63.1159058 62.2919312,62.2919312 C63.1159058,61.4685059 64.4512939,61.4685059 65.2752686,62.2919312 L71.3820191,68.3986816 C72.2059937,69.2226562 72.2059937,70.5580445 71.3820191,71.3820191 C70.9700317,71.7940063 70.4306031,72 69.890625,72 Z" id="Shape"></path>
                <path d="M51.8510742,53.9604492 C51.3116454,53.9604492 50.7716675,53.7550048 50.3596801,53.3430176 L44.3523559,47.3351441 C43.5283813,46.5111695 43.5283813,45.1757812 44.3523559,44.3518066 C45.1757812,43.5283813 46.5117187,43.5283813 47.3351441,44.3518066 L53.3430176,50.3596801 C54.1664429,51.1836547 54.1664429,52.519043 53.3430176,53.3430176 C52.9310303,53.7550048 52.3910523,53.9604492 51.8510742,53.9604492 Z" id="Shape"></path>
            </g>
            <path d="M50.998884,27.7119989 C50.9983259,27.6921255 50.9977679,27.6722522 50.9966517,27.6523788 C50.9938616,27.5981299 50.9899554,27.544418 50.9827009,27.4912434 C50.9821429,27.484798 50.9810269,27.4783526 50.9799107,27.4713699 C50.9720983,27.417121 50.9620536,27.3634092 50.9497769,27.3102346 C50.9464286,27.2957324 50.9430803,27.2817673 50.9397321,27.2678023 C50.9252231,27.2103306 50.9095983,27.1539332 50.890067,27.09861 C50.8895089,27.0964616 50.8883929,27.0943131 50.8878349,27.0921646 C50.8688616,27.0389899 50.8476563,26.9863524 50.8242187,26.934789 C50.8180803,26.921361 50.8125,26.9079331 50.8058036,26.8945051 C50.78125,26.8429418 50.7555803,26.7913785 50.7265626,26.7419636 C50.7209821,26.7328326 50.7154017,26.7242387 50.7098214,26.7156448 C50.6852679,26.6742868 50.6590401,26.6340029 50.6311384,26.5942561 C50.6199777,26.5786797 50.609375,26.5636404 50.5976563,26.548064 C50.5652901,26.5045573 50.53125,26.4615879 50.4949777,26.420767 C50.4832589,26.407339 50.4709821,26.3944481 50.4587054,26.3815573 C50.4302456,26.3498673 50.4001116,26.3192516 50.3688616,26.2897101 C50.3543527,26.2757451 50.3398437,26.2612429 50.3247769,26.2478149 C50.2834821,26.2107538 50.2405134,26.1747669 50.1964286,26.1403913 C50.1824777,26.1296489 50.1679687,26.1194437 50.1534599,26.1092384 C50.1138393,26.0802341 50.0731027,26.0523039 50.030692,26.0254481 C50.0189731,26.0179284 50.0078126,26.0104087 49.9955357,26.0028891 C49.9916294,26.0007406 49.9877231,25.998055 49.9832589,25.9953695 C49.9335937,25.965828 49.8828126,25.938972 49.8314731,25.9137275 C49.8258929,25.9110418 49.8208706,25.9078192 49.8152901,25.9051336 L36.9581473,19.7175329 C36.3549107,19.427489 35.6445313,19.427489 35.0412946,19.7175329 L22.1841517,25.9051336 C22.1791294,25.9078192 22.1741071,25.9110418 22.1685269,25.9137275 C22.1171874,25.938972 22.0658483,25.965828 22.016183,25.9953695 C22.0117187,25.998055 22.0078126,26.0007406 22.0039063,26.0034262 C21.9921874,26.0104087 21.9804687,26.0184655 21.96875,26.0254481 C21.9268973,26.0523039 21.8856027,26.0802341 21.8459821,26.1092384 C21.8314731,26.1199809 21.8169643,26.1296489 21.8035714,26.1403913 C21.7589286,26.1747669 21.7159599,26.2107538 21.6746651,26.2478149 C21.6595983,26.2617801 21.6450893,26.2757451 21.6305803,26.2897101 C21.5993303,26.3197887 21.5697544,26.3504045 21.5407366,26.3815573 C21.5284599,26.3944481 21.516183,26.407339 21.5044643,26.420767 C21.468192,26.4621251 21.4341517,26.5045573 21.4017857,26.5486011 C21.390625,26.5636404 21.3794643,26.5792168 21.3688616,26.5942561 C21.3409599,26.6340029 21.3141741,26.6742868 21.2896206,26.7156448 C21.2840401,26.7242387 21.2784599,26.7328326 21.2734374,26.7419636 C21.2444197,26.7913785 21.218192,26.8429418 21.1936384,26.8945051 C21.186942,26.9079331 21.1813616,26.921361 21.1752231,26.934789 C21.1523437,26.9863524 21.1305803,27.0389899 21.1116071,27.0927017 C21.1110491,27.0948502 21.1104911,27.0964616 21.109375,27.09861 C21.0904017,27.1539332 21.0742187,27.2108677 21.0602679,27.2678023 C21.0563616,27.2817673 21.0530134,27.2962695 21.0496651,27.3102346 C21.0379464,27.3639463 21.0273437,27.4176583 21.0195313,27.4719072 C21.0189731,27.4783526 21.0178571,27.484798 21.0167411,27.4912434 C21.0100446,27.544418 21.0055803,27.598667 21.0027901,27.6523788 C21.0016741,27.6727893 21.001116,27.6921255 21.001116,27.7119989 C21.001116,27.7248897 21,27.7372434 21,27.7495972 L21,44.2498657 C21,45.0308355 21.4587054,45.7452026 22.1847099,46.0948665 L35.0418527,52.2824672 C35.0541294,52.2883755 35.0669643,52.2921353 35.0797991,52.2980436 C35.1316964,52.3216768 35.1841517,52.3436986 35.2382813,52.3635719 C35.2600446,52.3716287 35.28125,52.3791485 35.3030134,52.386131 C35.3565849,52.404393 35.4112723,52.4194322 35.4670759,52.4333974 C35.4888393,52.4387686 35.5100446,52.4446768 35.53125,52.4489737 C35.5892857,52.4613275 35.6484374,52.4709956 35.7075893,52.4785153 C35.7265626,52.4812008 35.7455357,52.4849607 35.7645089,52.4871092 C35.8420759,52.495166 35.9202009,52.5 36,52.5 C36.0792411,52.5 36.1579241,52.495166 36.2354911,52.4871092 C36.2544643,52.4849607 36.2734374,52.4812008 36.2924107,52.4785153 C36.3515626,52.4709956 36.4107143,52.4613275 36.468192,52.4489737 C36.4899554,52.4446768 36.5111607,52.4387686 36.5329241,52.4333974 C36.5881697,52.4194322 36.6428571,52.404393 36.6969866,52.386131 C36.71875,52.3791485 36.7399554,52.3716287 36.7617187,52.3635719 C36.8158483,52.3436986 36.8683036,52.3216768 36.9202009,52.2980436 C36.9330357,52.2921353 36.9458706,52.2883755 36.9581473,52.2824672 L49.8152901,46.0948665 C50.5412946,45.7452026 51,45.0308355 51,44.2498657 L51,27.7495972 C51,27.7372434 50.998884,27.7248897 50.998884,27.7119989 Z M36,23.8678445 L44.0652901,27.7495972 L36,31.6313499 L27.9341517,27.7495972 L36,23.8678445 Z M25.2857143,31.086712 L33.8571429,35.2117791 L33.8571429,47.1003516 L25.2857143,42.9752845 L25.2857143,31.086712 Z M46.7142857,42.9752845 L38.1428571,47.1003516 L38.1428571,35.2117791 L46.7142857,31.086712 L46.7142857,42.9752845 Z" id="Shape"></path>
            <path d="M17.3726693,24 C15.6755665,24 13.9784635,23.3544113 12.6863642,22.0620832 L6.43814894,15.8127619 C3.85395035,13.2281055 3.85395035,9.02314846 6.43814894,6.43849207 C9.02234782,3.85383598 13.2265606,3.85383598 15.8107595,6.43849207 L22.0589746,12.6878135 C23.3108037,13.9398643 24,15.6044703 24,17.3749483 C24,19.1454264 23.3108037,20.8100325 22.0589746,22.0620832 C20.7668751,23.3544113 19.0697723,24 17.3726693,24 Z M11.1244542,8.91727652 C10.5583697,8.91727652 9.99286046,9.13247267 9.5625442,9.56286512 C8.70076117,10.4248007 8.70076117,11.8264533 9.5625442,12.6878135 L15.8107595,18.9371348 C16.6719672,19.7990706 18.0733715,19.7984951 18.9345793,18.9371348 C19.3522391,18.5199764 19.5817795,17.9652995 19.5817795,17.3749483 C19.5817795,16.7845972 19.3522391,16.2299203 18.9345793,15.8127619 L12.6863642,9.56286512 C12.2554725,9.13247267 11.6899634,8.91727652 11.1244542,8.91727652 Z" id="Shape"></path>
            <path d="M56.1261578,24 C54.4293551,24 52.7325527,23.3544113 51.4406819,22.0620832 C50.1890743,20.8100325 49.5,19.1454264 49.5,17.3749483 C49.5,15.6044703 50.1890743,13.9398643 51.4406819,12.6878135 L57.6883665,6.43849207 C60.2715327,3.85383598 64.4755767,3.85383598 67.058743,6.43849207 C68.3103505,7.69054282 69,9.35514901 69,11.125627 C69,12.896105 68.3103505,14.5607112 67.058743,15.8127619 L60.8116335,22.0620832 C59.5197629,23.3544113 57.8229603,24 56.1261578,24 Z M62.3732671,8.91727652 C61.8078579,8.91727652 61.2424489,9.13247267 60.8116335,9.56286512 L54.5645242,15.8127619 C54.1475134,16.2299203 53.9174385,16.7845972 53.9174385,17.3749483 C53.9174385,17.9652995 54.1475134,18.5199764 54.5645242,18.9371348 C55.4261549,19.7990706 56.827311,19.7990706 57.6883665,18.9371348 L63.9354758,12.6878135 C64.3524866,12.270655 64.5825615,11.7154027 64.5825615,11.125627 C64.5825615,10.5352758 64.3524866,9.98059903 63.9354758,9.56286512 C63.5046605,9.13247267 62.9386762,8.91727652 62.3732671,8.91727652 Z" id="Shape"></path>
            <path d="M11.1263532,69 C9.42950069,69 7.73264801,68.3538478 6.44073914,67.0615436 C5.18909464,65.809516 4.5,64.1449405 4.5,62.3744952 C4.5,60.6040498 5.18909464,58.9394743 6.44073914,57.6874467 L12.6880329,51.4382407 C15.2712751,48.8542075 19.4754433,48.8536321 22.0592609,51.4382407 C23.3109054,52.6902683 24,54.3548437 24,56.1252891 C24,57.8957345 23.3109054,59.5603098 22.0592609,60.8123374 L15.8119673,67.0615436 C14.5200584,68.3538478 12.8232057,69 11.1263532,69 Z M17.3736468,53.9169793 C16.8076458,53.9169793 16.2422199,54.1321716 15.8119673,54.5631314 L9.56467358,60.8123374 C9.14707535,61.2294883 8.91756881,61.7841548 8.91756881,62.3744952 C8.91756881,62.9648355 9.14707535,63.519502 9.56467358,63.9366529 C10.4257543,64.7985726 11.8269521,64.7985726 12.6880329,63.9366529 L18.9353264,57.6874467 C19.3529246,57.270296 19.5824312,56.7156293 19.5824312,56.1252891 C19.5824312,55.5349488 19.3529246,54.9802822 18.9353264,54.5631314 C18.5044985,54.1321716 17.9390726,53.9169793 17.3736468,53.9169793 Z" id="Shape"></path>
            <path d="M62.3755458,69 C60.678443,69 58.98134,68.3538478 57.6898159,67.0615436 L51.4410254,60.8123374 C50.1891963,59.5603098 49.5,57.8957345 49.5,56.1252891 C49.5,54.3548437 50.1891963,52.6902683 51.4410254,51.4382407 C54.0252242,48.8542075 58.2294371,48.8536321 60.8136358,51.4382407 L67.0618511,57.6874467 C69.6460496,60.2720554 69.6460496,64.4769349 67.0618511,67.0615436 C65.7697516,68.3538478 64.0726486,69 62.3755458,69 Z M56.1273307,53.9169793 C55.5618214,53.9169793 54.9957369,54.1321716 54.5654207,54.5631314 C54.1483361,54.9802822 53.9182205,55.5349488 53.9182205,56.1252891 C53.9182205,56.7156293 54.1483361,57.270296 54.5654207,57.6874467 L60.8136358,63.9366529 C61.675419,64.7985726 63.0768233,64.7985726 63.9380311,63.9366529 C64.7992388,63.0753085 64.7992388,61.6736818 63.9380311,60.8123374 L57.6898159,54.5631314 C57.2589244,54.1321716 56.6928399,53.9169793 56.1273307,53.9169793 Z" id="Shape"></path>
        </g>
    </g>
</svg>