<?xml version="1.0" encoding="UTF-8"?>
<svg width="104px" height="85px" viewBox="0 0 104 85" version="1.1" xmlns="http://www.w3.org/2000/svg" xmlns:xlink="http://www.w3.org/1999/xlink">
    <!-- Generator: Sketch 49.1 (51147) - http://www.bohemiancoding.com/sketch -->
    <title>group_2_copy</title>
    <desc>Created with Sketch.</desc>
    <defs></defs>
    <g id="home_page" stroke="none" stroke-width="1" fill="none" fill-rule="evenodd">
        <g id="burger-wh" fill="#FFFFFF" fill-rule="nonzero">
            <g id="hamburger">
                <path d="M78.3410395,21.6587979 C77.4624255,20.7804007 76.0377433,20.7804007 75.1589043,21.6587979 L70.6589605,26.1587839 C69.7803465,27.0374061 69.7803465,28.4621017 70.6589605,29.3409489 C71.5380245,30.2197962 72.9624817,30.2195712 73.8410957,29.3409489 L78.3410395,24.840963 C79.2196535,23.9623407 79.2196535,22.5376452 78.3410395,21.6587979 Z" id="Shape"></path>
                <path d="M30.3410395,21.6587979 C29.4624255,20.7804007 28.0377433,20.7804007 27.1589043,21.6587979 L22.6589605,26.1587839 C21.7803465,27.0374061 21.7803465,28.4621017 22.6589605,29.3409489 C23.5380245,30.2197962 24.9624817,30.2195712 25.8410957,29.3409489 L30.3410395,24.840963 C31.2196535,23.9623407 31.2196535,22.5376452 30.3410395,21.6587979 Z" id="Shape"></path>
                <path d="M68.3410395,12.6587979 C67.4624255,11.7804007 66.0377433,11.7804007 65.1589043,12.6587979 L60.6589605,17.1587839 C59.7803465,18.0374061 59.7803465,19.4621017 60.6589605,20.3409489 C61.5380245,21.2197962 62.9624817,21.2195712 63.8410957,20.3409489 L68.3410395,15.840963 C69.2196535,14.9623407 69.2196535,13.5376452 68.3410395,12.6587979 Z" id="Shape"></path>
                <path d="M43.3410395,12.6587979 C42.4624255,11.7804007 41.0377433,11.7804007 40.1589043,12.6587979 L35.6589605,17.1587839 C34.7803465,18.0374061 34.7803465,19.4621017 35.6589605,20.3409489 C36.5380245,21.2197962 37.9624817,21.2195712 38.8410957,20.3409489 L43.3410395,15.840963 C44.2196535,14.9623407 44.2196535,13.5376452 43.3410395,12.6587979 Z" id="Shape"></path>
                <path d="M53.3410395,21.6587979 C52.4624255,20.7804007 51.0377433,20.7804007 50.1589043,21.6587979 L45.6589605,26.1587839 C44.7803465,27.0374061 44.7803465,28.4621017 45.6589605,29.3409489 C46.5380245,30.2197962 47.9624817,30.2195712 48.8410957,29.3409489 L53.3410395,24.840963 C54.2196535,23.9623407 54.2196535,22.5376452 53.3410395,21.6587979 Z" id="Shape"></path>
                <path d="M104,62.7380952 C104,59.3903095 101.266344,56.6666667 97.90625,56.6666667 L95.875,56.6666667 L95.875,50.1439286 C95.9586875,50.0714762 96.044,50.0020595 96.1262656,49.927381 C97.44475,48.7298929 100.198719,47.9642857 101.994344,47.941619 C103.116,47.9276548 104.014016,47.0100595 103.999797,45.8925119 C103.985781,44.7836667 103.079234,43.8942024 101.969156,43.8942024 C101.960625,43.8942024 101.951688,43.8942024 101.943156,43.8944048 C100.200141,43.9162619 97.8843125,44.3772857 95.875,45.3238214 L95.875,40.0188095 C98.34825,39.0103452 99.9925469,36.4732976 99.6395156,33.6569643 C97.2434531,14.4694286 80.7799687,0 61.34375,0 L42.65625,0 C23.2200312,0 6.75654688,14.4694286 4.36048438,33.6561548 C4.00846875,36.4641905 5.64159375,39.0065 8.125,40.0190119 L8.125,45.2345714 C6.10817188,44.3242619 3.78685938,43.8689048 2.00464063,43.8944048 C0.882984375,43.9089762 -0.014421875,44.8269762 0.000203125,45.9447262 C0.014828125,47.053369 0.921375,47.9418214 2.03084375,47.9418214 C2.03978125,47.9418214 2.04892188,47.9418214 2.0580625,47.941619 C3.87440625,47.9138929 6.69378125,48.6699881 8.0689375,49.9196905 C8.08721875,49.9364881 8.10671875,49.9522738 8.12520313,49.968869 L8.12520313,56.6666667 L6.09375,56.6666667 C2.72715625,56.6666667 0,59.3834286 0,62.7380952 C0,65.7464881 2.20796875,68.2495357 5.09396875,68.7263452 C4.61926562,69.9748333 4.58514063,71.338881 5.0253125,72.6349286 C7.54284375,80.0307381 14.5025156,85 22.34375,85 L81.65625,85 C89.4974844,85 96.4571562,80.0307381 98.9752969,72.6337143 C99.4150625,71.338881 99.3809375,69.9754405 98.9064375,68.7271548 C101.738,68.2632976 104,65.8082143 104,62.7380952 Z M8.39170312,34.1566429 C10.5354844,16.9917024 25.2659063,4.04761905 42.65625,4.04761905 L61.34375,4.04761905 C78.7340938,4.04761905 93.4645156,16.9917024 95.6082969,34.1576548 C95.7549531,35.3272143 94.8390625,36.3455952 93.7078594,36.4210833 C93.6944531,36.4218929 93.6810469,36.4231071 93.6676406,36.4243214 C93.6329063,36.4273571 93.5981719,36.4285714 93.5634375,36.4285714 L10.4365625,36.4285714 C9.24015625,36.4285714 8.23875,35.3790238 8.39170312,34.1566429 Z M83.9389688,46.9361905 C79.4752969,42.8806786 73.477625,42.8806786 69.0139531,46.9361905 C66.0993125,49.5841429 62.4784063,49.5841429 59.5639688,46.9361905 C55.1002969,42.8806786 49.102625,42.8806786 44.6389531,46.9361905 C41.7243125,49.5841429 38.1034062,49.5841429 35.1889688,46.9361905 C30.7252969,42.880881 24.727625,42.8804762 20.2635469,46.9365952 C17.7933438,49.182619 14.8340156,49.5390119 12.1875,47.9592262 L12.1875,40.4761905 L91.8125,40.4761905 L91.8125,48.0766071 C89.2208281,49.5133095 86.3376719,49.115631 83.9389688,46.9361905 Z M91.8125,52.4658452 L91.8125,56.6666667 L12.1875,56.6666667 L12.1875,52.405131 C13.2857969,52.7837857 14.4129375,52.9732143 15.5390625,52.9730119 C18.1603906,52.9730119 20.7748125,51.9513929 23.0016719,49.9269762 C25.9161094,47.2790238 29.5372188,47.2790238 32.4516563,49.9269762 C36.9153281,53.9828929 42.9132031,53.9826905 47.3766719,49.9269762 C50.2913125,47.2790238 53.9124219,47.2790238 56.8266563,49.9269762 C61.2903281,53.9828929 67.2882031,53.9826905 71.7516719,49.9269762 C74.6661094,47.2788214 78.2872188,47.2792262 81.2016563,49.9269762 C84.3088594,52.7505952 88.2100781,53.6184048 91.8125,52.4658452 Z M95.1275,71.3350357 C93.169375,77.0873095 87.7556875,80.952381 81.65625,80.952381 L22.34375,80.952381 C16.2443125,80.952381 10.830625,77.0873095 8.87310938,71.33625 C8.451625,70.0956548 9.52676563,68.8095238 10.8590625,68.8095238 L93.1409375,68.8095238 C94.4781094,68.8095238 95.5463437,70.1017262 95.1275,71.3350357 Z M97.90625,64.7619048 L6.09375,64.7619048 C4.97371875,64.7619048 4.0625,63.8540238 4.0625,62.7380952 C4.0625,61.62075 4.97229687,60.7142857 6.09375,60.7142857 L97.90625,60.7142857 C99.0262813,60.7142857 99.9375,61.6221667 99.9375,62.7380952 C99.9375,63.8554405 99.0277031,64.7619048 97.90625,64.7619048 Z" id="Shape"></path>
            </g>
        </g>
    </g>
</svg>