<?xml version="1.0" encoding="UTF-8"?>
<svg width="90px" height="90px" viewBox="0 0 90 90" version="1.1" xmlns="http://www.w3.org/2000/svg" xmlns:xlink="http://www.w3.org/1999/xlink">
    <!-- Generator: Sketch 49.1 (51147) - http://www.bohemiancoding.com/sketch -->
    <title>chains copy</title>
    <desc>Created with Sketch.</desc>
    <defs></defs>
    <g id="home_page" stroke="none" stroke-width="1" fill="none" fill-rule="evenodd">
        <g id="chains" fill="#06D0FB" fill-rule="nonzero">
            <path d="M32.9999414,0 L3.00005859,0 C1.34384766,0.00158202684 0.00158203125,1.34384391 0,3.00005022 L0,33.0000251 C0.00158203125,34.6562314 1.34384766,35.9983175 3.00005859,36.0000753 L10.5001172,36.0000753 L10.5001172,40.5000628 C10.5001172,41.3285175 11.1716016,42 12.0000586,42 L13.5,42 C14.328457,42 14.9999414,41.3285175 14.9999414,40.5000628 C14.9999414,39.6716081 14.328457,39.0001256 13.5,39.0001256 L13.5,35.9998996 L22.5,35.9998996 L22.5,38.9999498 C21.671543,38.9999498 21.0000586,39.6714323 21.0000586,40.499887 C21.0000586,41.3283417 21.671543,41.9998242 22.5,41.9998242 L23.9999414,41.9998242 C24.8283984,41.9998242 25.4998828,41.3283417 25.4998828,40.499887 L25.4998828,35.9998996 L32.9999414,35.9998996 C34.6561523,35.9983175 35.9982422,34.6560556 36,32.9998493 L36,3.00005022 C35.998418,1.34384391 34.6561523,0.00158202684 32.9999414,0 Z M25.5000586,32.9998493 L25.5000586,28.4998619 C25.5000586,27.6714072 24.8285742,26.9999247 24.0001172,26.9999247 L22.5,26.9999247 C21.671543,26.9999247 21.0000586,27.6714072 21.0000586,28.4998619 C21.0000586,29.3283166 21.671543,29.9997991 22.5,29.9997991 L22.5,32.9998493 L13.5,32.9998493 L13.5,29.9997991 C14.328457,29.9997991 14.9999414,29.3283166 14.9999414,28.4998619 C14.9999414,27.6714072 14.328457,26.9999247 13.5,26.9999247 L12.0000586,26.9999247 C11.1716016,26.9999247 10.5001172,27.6714072 10.5001172,28.4998619 L10.5001172,32.9998493 L3.00005859,33.0000251 L3.00005859,3.00005022 L33.0001172,3.00005022 L33.0022266,33.0000251 L25.5000586,33.0000251 L25.5000586,32.9998493 Z" id="Shape"></path>
            <path d="M18,12 C14.9788747,12 12.4289874,14.2438772 12.0482707,17.2374106 C11.6675541,20.230944 13.5748284,23.0403113 16.5001593,23.7947077 L16.5001593,28.5019166 C16.5001593,29.3293474 17.1715986,30 18,30 C18.8284014,30 19.4998407,29.3293474 19.4998407,28.5019166 L19.4998407,23.7947077 C22.4251716,23.0403113 24.3324459,20.230944 23.9517293,17.2374106 C23.5710126,14.2438772 21.0211253,12 18,12 Z M19.4998407,20.5945361 L19.4998407,19.5130649 C19.4998407,18.685634 18.8284014,18.0149814 18,18.0149814 C17.1715986,18.0149814 16.5001593,18.685634 16.5001593,19.5130649 L16.5001593,20.5945361 C15.3244375,19.9194944 14.750726,18.5385118 15.1026164,17.2303881 C15.4545069,15.9222644 16.6437629,15.0144255 18,15.0188146 C19.3562371,15.0144255 20.5454931,15.9222644 20.8973836,17.2303881 C21.249274,18.5385118 20.6755625,19.9194944 19.4998407,20.5945361 Z" id="Shape"></path>
            <path d="M32.9997803,53.9999247 L25.4997583,53.9999247 L25.4997583,49.4999372 C25.4997583,48.6714825 24.8282772,48 23.9998242,48 L22.4998901,48 C21.6714372,48 20.9999561,48.6716583 20.9999561,49.4999372 C20.9999561,50.3282162 21.6714372,50.9998744 22.4998901,50.9998744 L22.4998901,53.9999247 L13.4999341,53.9999247 L13.4999341,50.9998744 C14.3283871,50.9998744 14.9998682,50.3283919 14.9998682,49.4999372 C14.9998682,48.6714825 14.3283871,48 13.4999341,48 L12,48 C11.171547,48 10.5000659,48.6716583 10.5000659,49.4999372 L10.5000659,53.9999247 L3.00004395,53.9999247 C1.34384109,54.0015067 0.00158202353,55.3437686 0,56.9999749 L0,86.9999498 C0.00158202353,88.6561561 1.34384109,89.9982422 3.00004395,90 L32.9999561,90 C34.6561589,89.998418 35.9982422,88.6561561 36,86.9999498 L36,56.9999749 C35.9982422,55.3437686 34.6559831,54.0015067 32.9997803,53.9999247 Z M3.00004395,86.9999498 L3.00004395,56.9999749 L10.5000659,56.9999749 L10.5000659,61.4999623 C10.5000659,62.3284171 11.171547,62.9998996 12,62.9998996 L13.4999341,62.9998996 C14.3283871,62.9998996 14.9998682,62.3284171 14.9998682,61.4999623 C14.9998682,60.6715076 14.3283871,60.0000251 13.4999341,60.0000251 L13.4999341,56.9999749 L22.4998901,56.9999749 L22.4998901,60.0000251 C21.6714372,60.0000251 20.9999561,60.6715076 20.9999561,61.4999623 C20.9999561,62.3284171 21.6714372,62.9998996 22.4998901,62.9998996 L23.9998242,62.9998996 C24.8282772,62.9998996 25.4997583,62.3284171 25.4997583,61.4999623 L25.4997583,56.9999749 L32.9997803,56.9999749 L33.0018896,86.9999498 L3.00004395,86.9999498 Z" id="Shape"></path>
            <path d="M19.4998407,67.2052923 L19.4998407,62.4980834 C19.4998407,61.6706526 18.8284014,61 18,61 C17.1715986,61 16.5001593,61.6706526 16.5001593,62.4980834 L16.5001593,67.2052923 C13.5748284,67.9596887 11.6675541,70.769056 12.0482707,73.7625894 C12.4289874,76.7561228 14.9788747,79 18,79 C21.0211253,79 23.5710126,76.7561228 23.9517293,73.7625894 C24.3324459,70.769056 22.4251716,67.9598642 19.4998407,67.2052923 Z M20.8973836,73.7697875 C20.5454931,75.0779112 19.3562371,75.9857501 18,75.981361 C16.6437629,75.9857501 15.4545069,75.0779112 15.1026164,73.7697875 C14.750726,72.4616638 15.3242617,71.0806812 16.5001593,70.4054639 L16.5001593,71.4869351 C16.5001593,72.314366 17.1715986,72.9850186 18,72.9850186 C18.8284014,72.9850186 19.4998407,72.314366 19.4998407,71.4869351 L19.4998407,70.4054639 C20.6755625,71.0806812 21.249274,72.4616638 20.8973836,73.7697875 Z" id="Shape"></path>
            <path d="M86.9999414,0 L57.0000586,0 C55.3438477,0.00158202684 54.0017578,1.34384391 54,3.00005022 L54,33.0000251 C54.001582,34.6562314 55.3438477,35.9983175 57.0000586,36.0000753 L64.5001172,36.0000753 L64.5001172,40.5000628 C64.5001172,41.3285175 65.1716016,42 66.0000586,42 L67.5,42 C68.328457,42 68.9999414,41.3285175 68.9999414,40.5000628 C68.9999414,39.6716081 68.328457,39.0001256 67.5,39.0001256 L67.5,35.9998996 L76.5,35.9998996 L76.5,38.9999498 C75.671543,38.9999498 75.0000586,39.6714323 75.0000586,40.499887 C75.0000586,41.3283417 75.671543,41.9998242 76.5,41.9998242 L77.9999414,41.9998242 C78.8283984,41.9998242 79.4998828,41.3283417 79.4998828,40.499887 L79.4998828,35.9998996 L86.9999414,35.9998996 C88.6561523,35.9983175 89.9982422,34.6560556 90,32.9998493 L90,3.00005022 C89.998418,1.34384391 88.6561523,0.00158202684 86.9999414,0 Z M79.5000586,32.9998493 L79.5000586,28.4998619 C79.5000586,27.6714072 78.8285742,26.9999247 78.0001172,26.9999247 L76.5,26.9999247 C75.671543,26.9999247 75.0000586,27.6714072 75.0000586,28.4998619 C75.0000586,29.3283166 75.671543,29.9997991 76.5,29.9997991 L76.5,32.9998493 L67.5,32.9998493 L67.5,29.9997991 C68.328457,29.9997991 68.9999414,29.3283166 68.9999414,28.4998619 C68.9999414,27.6714072 68.328457,26.9999247 67.5,26.9999247 L66.0000586,26.9999247 C65.1716016,26.9999247 64.5001172,27.6714072 64.5001172,28.4998619 L64.5001172,32.9998493 L57.0000586,33.0000251 L57.0000586,3.00005022 L87.0001172,3.00005022 L87.0022266,33.0000251 L79.5000586,33.0000251 L79.5000586,32.9998493 Z" id="Shape"></path>
            <path d="M73.000157,12.0000141 C69.9810037,11.9935102 67.4295669,14.2363014 67.0483278,17.2314358 C66.6672645,20.2265702 68.5757448,23.0369586 71.5001596,23.7870166 L71.5001596,28.5000598 C71.5001596,29.3285162 72.1715903,30 72.9999812,30 C73.828372,30 74.4998028,29.3285162 74.4998028,28.5000598 L74.4998028,23.7870166 C77.4242175,23.0371344 79.3328736,20.2267459 78.9516346,17.2314358 C78.570747,14.2363014 76.0193103,11.9935102 73.000157,12.0000141 Z M74.4999785,20.5827027 L74.4999785,19.499891 C74.4999785,18.6714347 73.8285478,17.9999508 73.000157,17.9999508 C72.1717661,17.9999508 71.5003354,18.6714347 71.5003354,19.499891 L71.5003354,20.5827027 C70.3244528,19.903836 69.7512759,18.5197356 70.1026346,17.2082327 C70.4539932,15.8967298 71.6425311,14.9847774 73.000157,14.9847774 C74.3577829,14.9847774 75.5463207,15.8967298 75.8976794,17.2082327 C76.249038,18.5197356 75.6758611,19.903836 74.4999785,20.5827027 Z" id="Shape"></path>
            <path d="M86.9997803,53.9999247 L79.4997583,53.9999247 L79.4997583,49.4999372 C79.4997583,48.6714825 78.8282772,48 77.9998242,48 L76.4998901,48 C75.6714372,48 74.9999561,48.6716583 74.9999561,49.4999372 C74.9999561,50.3282162 75.6714372,50.9998744 76.4998901,50.9998744 L76.4998901,53.9999247 L67.4999341,53.9999247 L67.4999341,50.9998744 C68.3283871,50.9998744 68.9998682,50.3283919 68.9998682,49.4999372 C68.9998682,48.6714825 68.3283871,48 67.4999341,48 L66,48 C65.171547,48 64.5000659,48.6716583 64.5000659,49.4999372 L64.5000659,53.9999247 L57.0000439,53.9999247 C55.3438411,54.0015067 54.0017578,55.3437686 54,56.9999749 L54,86.9999498 C54.001582,88.6561561 55.3438411,89.9982422 57.0000439,90 L86.9999561,90 C88.6561589,89.998418 89.9982422,88.6561561 90,86.9999498 L90,56.9999749 C89.9982422,55.3437686 88.6559831,54.0015067 86.9997803,53.9999247 Z M57.0000439,86.9999498 L57.0000439,56.9999749 L64.5000659,56.9999749 L64.5000659,61.4999623 C64.5000659,62.3284171 65.171547,62.9998996 66,62.9998996 L67.4999341,62.9998996 C68.3283871,62.9998996 68.9998682,62.3284171 68.9998682,61.4999623 C68.9998682,60.6715076 68.3283871,60.0000251 67.4999341,60.0000251 L67.4999341,56.9999749 L76.4998901,56.9999749 L76.4998901,60.0000251 C75.6714372,60.0000251 74.9999561,60.6715076 74.9999561,61.4999623 C74.9999561,62.3284171 75.6714372,62.9998996 76.4998901,62.9998996 L77.9998242,62.9998996 C78.8282772,62.9998996 79.4997583,62.3284171 79.4997583,61.4999623 L79.4997583,56.9999749 L86.9997803,56.9999749 L87.0018896,86.9999498 L57.0000439,86.9999498 Z" id="Shape"></path>
            <path d="M74.4998407,67.2052923 L74.4998407,62.4980834 C74.4998407,61.6706526 73.8284014,61 73,61 C72.1715986,61 71.5001593,61.6706526 71.5001593,62.4980834 L71.5001593,67.2052923 C68.5748284,67.9596887 66.6675541,70.769056 67.0482707,73.7625894 C67.4289874,76.7561228 69.9788747,79 73,79 C76.0211253,79 78.5710126,76.7561228 78.9517293,73.7625894 C79.3324459,70.769056 77.4251716,67.9598642 74.4998407,67.2052923 Z M75.8973836,73.7697875 C75.5454931,75.0779112 74.3562371,75.9857501 73,75.981361 C71.6437629,75.9857501 70.4545069,75.0779112 70.1026164,73.7697875 C69.750726,72.4616638 70.3242617,71.0806812 71.5001593,70.4054639 L71.5001593,71.4869351 C71.5001593,72.314366 72.1715986,72.9850186 73,72.9850186 C73.8284014,72.9850186 74.4998407,72.314366 74.4998407,71.4869351 L74.4998407,70.4054639 C75.6757383,71.0806812 76.249274,72.4616638 75.8973836,73.7697875 Z" id="Shape"></path>
            <path d="M20,49.5000439 L20,40.4999561 C20,39.6714909 19.3284894,39 18.5,39 C17.6715106,39 17,39.6714909 17,40.4999561 L17,49.5000439 C17,50.3285091 17.6715106,51 18.5,51 C19.3284894,51 20,50.3285091 20,49.5000439 Z" id="Shape"></path>
            <path d="M74,49.5000439 L74,40.4999561 C74,39.6714909 73.3284894,39 72.5,39 C71.6715106,39 71,39.6714909 71,40.4999561 L71,49.5000439 C71,50.3285091 71.6715106,51 72.5,51 C73.3284894,51 74,50.3285091 74,49.5000439 Z" id="Shape"></path>
        </g>
    </g>
</svg>