<?xml version="1.0" encoding="UTF-8"?>
<svg width="123px" height="97px" viewBox="0 0 123 97" version="1.1" xmlns="http://www.w3.org/2000/svg" xmlns:xlink="http://www.w3.org/1999/xlink">
    <!-- Generator: Sketch 49.1 (51147) - http://www.bohemiancoding.com/sketch -->
    <title>copy_3</title>
    <desc>Created with Sketch.</desc>
    <defs></defs>
    <g id="home" stroke="none" stroke-width="1" fill="none" fill-rule="evenodd" opacity="0.147361866">
        <g id="quote" fill="#3E61FF">
            <path d="M8.01318768,96.5982405 C3.00436498,82.2873185 0.4999912,68.095867 0.4999912,54.0234604 C0.4999912,37.8044155 4.7932034,24.745895 13.3797566,14.8475073 C21.9663098,4.94911962 34.4881787,0 50.945739,0 L50.945739,22.5395894 C38.3044246,22.5395894 31.9838622,30.6489903 31.9838622,46.8680352 L31.9838622,52.2346041 L54.8812229,52.2346041 L54.8812229,96.5982405 L8.01318768,96.5982405 Z M75.631956,96.5982405 C70.8616487,82.0488031 68.4765308,67.8573517 68.4765308,54.0234604 C68.4765308,37.8044155 72.710115,24.745895 81.1774106,14.8475073 C89.6447061,4.94911962 102.106947,0 118.564507,0 L118.564507,22.5395894 C106.161708,22.5395894 99.9604018,30.6489903 99.9604018,46.8680352 L99.9604018,52.2346041 L122.499991,52.2346041 L122.499991,96.5982405 L75.631956,96.5982405 Z" id="“-copy-3" transform="translate(61.499991, 48.299120) scale(-1, 1) translate(-61.499991, -48.299120) "></path>
        </g>
    </g>
</svg>