<?xml version="1.0" encoding="UTF-8"?>
<svg width="77px" height="77px" viewBox="0 0 77 77" version="1.1" xmlns="http://www.w3.org/2000/svg" xmlns:xlink="http://www.w3.org/1999/xlink">
    <!-- Generator: Sketch 49.1 (51147) - http://www.bohemiancoding.com/sketch -->
    <title>coding copy</title>
    <desc>Created with Sketch.</desc>
    <defs></defs>
    <g id="home_page" stroke="none" stroke-width="1" fill="none" fill-rule="evenodd">
        <g id="coding" fill="#00CFFD" fill-rule="nonzero">
            <path d="M9,67 C4.03842857,67 0,70.92625 0,75.75 C0,76.44125 0.574714286,77 1.28571429,77 L16.7142857,77 C17.4252857,77 18,76.44125 18,75.75 C18,70.92625 13.9615714,67 9,67 Z M2.70128571,74.5 C3.213,72.05625 5.20071429,70.13625 7.71428571,69.6375 L7.71428571,72 L10.2857143,72 L10.2857143,69.6375 C12.7992857,70.1375 14.787,72.05625 15.2987143,74.5 L2.70128571,74.5 Z" id="Shape"></path>
            <path d="M75.7166667,55.1833333 L73.4657,55.1833333 C73.3951167,55.00495 73.3219667,54.82785 73.2424,54.6494667 L74.8350167,53.05685 C75.3368,52.5550667 75.3368,51.744 74.8350167,51.2422167 L69.3911167,45.7983167 C69.1254667,45.5326667 68.7751167,45.4171667 68.4273333,45.43385 C70.4614167,44.3545667 71.8666667,42.2409167 71.8666667,39.7833333 L71.8666667,6.41666667 C71.8666667,2.87851667 68.98815,0 65.45,0 L6.41666667,0 C2.87851667,0 0,2.87851667 0,6.41666667 L0,39.7833333 C0,43.3214833 2.87851667,46.2 6.41666667,46.2 L23.1641667,46.2 L18.3157333,55.1833333 L17.9666667,55.1833333 L16.0416667,55.1833333 C13.5648333,55.1833333 11.55,57.1981667 11.55,59.675 C11.55,62.1518333 13.5648333,64.1666667 16.0416667,64.1666667 L43.6333333,64.1666667 C43.6333333,64.87635 44.2069833,65.45 44.9166667,65.45 L47.1676333,65.45 C47.2382167,65.6283833 47.3113667,65.8054833 47.3909333,65.9838667 L45.7983167,67.5764833 C45.2965333,68.0782667 45.2965333,68.8893333 45.7983167,69.3911167 L51.2422167,74.8350167 C51.744,75.3368 52.5550667,75.3368 53.05685,74.8350167 L54.6494667,73.2424 C54.82785,73.3219667 55.00495,73.3951167 55.1833333,73.4657 L55.1833333,75.7166667 C55.1833333,76.42635 55.7569833,77 56.4666667,77 L64.1666667,77 C64.87635,77 65.45,76.42635 65.45,75.7166667 L65.45,73.4657 C65.6283833,73.3951167 65.8054833,73.3219667 65.9838667,73.2424 L67.5764833,74.8350167 C68.0782667,75.3368 68.8893333,75.3368 69.3911167,74.8350167 L74.8350167,69.3911167 C75.3368,68.8893333 75.3368,68.0782667 74.8350167,67.5764833 L73.2424,65.9838667 C73.3219667,65.8054833 73.3951167,65.6283833 73.4657,65.45 L75.7166667,65.45 C76.42635,65.45 77,64.87635 77,64.1666667 L77,56.4666667 C77,55.7569833 76.42635,55.1833333 75.7166667,55.1833333 Z M2.56666667,6.41666667 C2.56666667,4.29403333 4.29403333,2.56666667 6.41666667,2.56666667 L65.45,2.56666667 C67.5726333,2.56666667 69.3,4.29403333 69.3,6.41666667 L69.3,33.3666667 L2.56666667,33.3666667 L2.56666667,6.41666667 Z M6.41666667,43.6333333 C4.29403333,43.6333333 2.56666667,41.9059667 2.56666667,39.7833333 L2.56666667,35.9333333 L69.3,35.9333333 L69.3,39.7833333 C69.3,41.9059667 67.5726333,43.6333333 65.45,43.6333333 L64.1666667,43.6333333 L56.4666667,43.6333333 L46.5516333,43.6333333 L25.3150333,43.6333333 L6.41666667,43.6333333 Z M67.5598,45.815 L65.9838667,47.3909333 C65.8054833,47.3113667 65.6283833,47.2382167 65.45,47.1676333 L65.45,46.2 C66.19305,46.2 66.8950333,46.0485667 67.5598,45.815 Z M55.1833333,46.2 L55.1833333,47.1676333 C55.00495,47.2382167 54.82785,47.3113667 54.6494667,47.3909333 L53.4585333,46.2 L55.1833333,46.2 Z M50.83925,46.2 L49.7330167,47.3062333 L48.9797,46.2 L50.83925,46.2 Z M43.6333333,61.6 L16.0416667,61.6 C14.98035,61.6 14.1166667,60.7363167 14.1166667,59.675 C14.1166667,58.6136833 14.98035,57.75 16.0416667,57.75 L17.9666667,57.75 L19.0806,57.75 L43.6333333,57.75 L43.6333333,61.6 Z M21.2321083,55.18205 L26.0799,46.2 L45.8740333,46.2 L47.8863,49.15295 L45.7983167,51.2409333 C45.2965333,51.7427167 45.2965333,52.5537833 45.7983167,53.0555667 L47.3909333,54.6481833 C47.3113667,54.8265667 47.2382167,55.0036667 47.1676333,55.18205 L44.9166667,55.18205 L21.2321083,55.18205 Z M74.4333333,62.8833333 L72.56095,62.8833333 C72.0001333,62.8833333 71.50605,63.2465167 71.33665,63.7803833 C71.1415833,64.4002333 70.8785,65.0316333 70.5538167,65.6527667 C70.2945833,66.1507 70.3882667,66.7577167 70.7848167,67.1542667 L72.11435,68.4838 L68.4850833,72.1130667 L67.15555,70.7835333 C66.7577167,70.3869833 66.1519833,70.2945833 65.65405,70.5525333 C65.0329167,70.8772167 64.4015167,71.1403 63.7816667,71.3353667 C63.2465167,71.50605 62.8833333,72.0001333 62.8833333,72.56095 L62.8833333,74.4333333 L57.75,74.4333333 L57.75,72.56095 C57.75,72.0001333 57.3868167,71.50605 56.85295,71.33665 C56.2331,71.1415833 55.6017,70.8785 54.9805667,70.5538167 C54.4826333,70.2958667 53.8756167,70.3882667 53.4790667,70.7848167 L52.1495333,72.11435 L48.5202667,68.4850833 L49.8498,67.15555 C50.24635,66.759 50.3400333,66.1519833 50.0808,65.65405 C49.7561167,65.0329167 49.4930333,64.4015167 49.2979667,63.7816667 C49.1272833,63.2465167 48.6332,62.8833333 48.0723833,62.8833333 L46.2,62.8833333 L46.2,57.75 L48.0723833,57.75 C48.6332,57.75 49.1272833,57.3868167 49.2966833,56.85295 C49.49175,56.2331 49.7548333,55.6017 50.0795167,54.9805667 C50.33875,54.4826333 50.2450667,53.8756167 49.8485167,53.4790667 L48.5189833,52.1495333 L52.14825,48.5202667 L53.4777833,49.8498 C53.8743333,50.2476333 54.48135,50.3400333 54.9792833,50.0808 C55.6004167,49.7561167 56.2318167,49.4930333 56.8516667,49.2979667 C57.3868167,49.1272833 57.75,48.6332 57.75,48.0723833 L57.75,46.2 L62.8833333,46.2 L62.8833333,48.0723833 C62.8833333,48.6332 63.2465167,49.1272833 63.7803833,49.2966833 C64.4002333,49.49175 65.0316333,49.7548333 65.6527667,50.0795167 C66.1507,50.33875 66.7564333,50.24635 67.1542667,49.8485167 L68.4838,48.5189833 L72.1130667,52.14825 L70.7835333,53.4777833 C70.3869833,53.8743333 70.2933,54.48135 70.5525333,54.9792833 C70.8772167,55.6004167 71.1403,56.2318167 71.3353667,56.8516667 C71.50605,57.3868167 72.0001333,57.75 72.56095,57.75 L74.4333333,57.75 L74.4333333,62.8833333 Z" id="Shape"></path>
            <path d="M60.5,53 C56.36375,53 53,56.36375 53,60.5 C53,64.63625 56.36375,68 60.5,68 C64.63625,68 68,64.63625 68,60.5 C68,56.36375 64.63625,53 60.5,53 Z M60.5,65.5 C57.7425,65.5 55.5,63.2575 55.5,60.5 C55.5,57.7425 57.7425,55.5 60.5,55.5 C63.2575,55.5 65.5,57.7425 65.5,60.5 C65.5,63.2575 63.2575,65.5 60.5,65.5 Z" id="Shape"></path>
            <path d="M25,9.83469573 L23.2136725,8 L14.3704671,17.0826521 C13.876511,17.5899831 13.876511,18.4100169 14.3704671,18.9173479 L23.2136725,28 L25,26.1653043 L17.0499584,18 L25,9.83469573 Z" id="Shape"></path>
            <path d="M53.6295329,17.0826521 L44.7863275,8 L43,9.83469573 L50.9500416,18 L43,26.1653043 L44.7863275,28 L53.6295329,18.9173479 C54.123489,18.4100169 54.123489,17.5899831 53.6295329,17.0826521 Z" id="Shape"></path>
            <rect id="Rectangle-path" transform="translate(34.000000, 16.000000) rotate(-63.434949) translate(-34.000000, -16.000000) " x="21" y="15" width="26" height="2"></rect>
            <rect id="Rectangle-path" x="50" y="26" width="2" height="2"></rect>
            <rect id="Rectangle-path" x="55" y="26" width="2" height="2"></rect>
            <rect id="Rectangle-path" x="60" y="26" width="2" height="2"></rect>
        </g>
    </g>
</svg>