<?xml version="1.0" encoding="UTF-8"?>
<svg width="100px" height="100px" viewBox="0 0 100 100" version="1.1" xmlns="http://www.w3.org/2000/svg" xmlns:xlink="http://www.w3.org/1999/xlink">
    <!-- Generator: Sketch 49.1 (51147) - http://www.bohemiancoding.com/sketch -->
    <title>group_8_copy</title>
    <desc>Created with Sketch.</desc>
    <defs></defs>
    <g id="home_page" stroke="none" stroke-width="1" fill="none" fill-rule="evenodd">
        <g id="donation-wh" fill="#FFFFFF" fill-rule="nonzero">
            <g id="donation">
                <path d="M95,25 L94.7142578,25 C95.2548828,23.4695312 95.0193359,21.7720703 94.0822266,20.4466797 C93.1451172,19.1214844 91.6230469,18.3333984 90,18.3332031 L88.0476562,18.3332031 C88.5882812,16.8027344 88.3527344,15.1052734 87.415625,13.7798828 C86.4785156,12.4544922 84.9564453,11.6666016 83.3333984,11.6664062 L65,11.6664062 C60.9929687,11.6681641 57.0617188,12.7578125 53.6255859,14.8191406 C51.5078125,16.0554687 49.0943359,16.6939453 46.6423828,16.6664062 L41.6667969,16.6664062 L41.6667969,13.3333984 C41.6666016,11.7103516 40.8785156,10.1882812 39.5533203,9.25117188 C38.228125,8.3140625 36.5304687,8.07832031 35,8.61914062 L35,5 C35,2.23867188 32.7615234,0 30,0 C27.2384766,0 25,2.23847656 25,5 L25,5.28574219 C23.4695312,4.74511719 21.7720703,4.98066406 20.4466797,5.91777344 C19.1212891,6.85488281 18.3335937,8.37695312 18.3333984,10 L18.3333984,11.9523438 C16.8029297,11.4117188 15.1054688,11.6472656 13.7800781,12.584375 C12.4548828,13.5214844 11.6667969,15.0435547 11.6666016,16.6666016 L11.6666016,35 C11.6683594,39.0070312 12.7580078,42.9382812 14.8193359,46.3746094 C16.0556641,48.4923828 16.6941406,50.9058594 16.6666016,53.3578125 L16.6666016,58.3333984 L13.3333984,58.3333984 C11.7103516,58.3335937 10.1882812,59.1216797 9.25117188,60.446875 C8.3140625,61.7720703 8.07832031,63.4697266 8.61914062,65.0001953 L5,65.0001953 C2.23847656,65 0,67.2386719 0,70 C0,72.7613281 2.23847656,75 5,75 L5.28574219,75 C4.74511719,76.5304687 4.98066406,78.2279297 5.91777344,79.5533203 C6.85488281,80.8787109 8.37695312,81.6666016 10,81.6667969 L11.9523438,81.6667969 C11.4117188,83.1972656 11.6472656,84.8947266 12.584375,86.2201172 C13.5214844,87.5453125 15.0435547,88.3333984 16.6666016,88.3335938 L35,88.3335938 C39.0070312,88.3318359 42.9382812,87.2421875 46.3746094,85.1808594 C48.4923828,83.9445313 50.9058594,83.3060547 53.3578125,83.3335938 L58.3333984,83.3335938 L58.3333984,86.6669922 C58.3335937,88.2900391 59.1216797,89.8121094 60.446875,90.7492188 C61.7720703,91.6863281 63.4697266,91.9220703 65.0001953,91.38125 L65.0001953,95 C65.0001953,97.7613281 67.2388672,100 70.0001953,100 C72.7615234,100 75.0001953,97.7615234 75.0001953,95 L75.0001953,94.7142578 C76.5306641,95.2548828 78.228125,95.0193359 79.5535156,94.0822266 C80.8787109,93.1451172 81.6667969,91.6230469 81.6669922,90 L81.6669922,88.0476562 C83.1974609,88.5882812 84.8949219,88.3527344 86.2203125,87.415625 C87.5455078,86.4785156 88.3335938,84.9564453 88.3337891,83.3333984 L88.3337891,65 C88.3320313,60.9929687 87.2423828,57.0617188 85.1810547,53.6255859 C83.9447266,51.5078125 83.30625,49.0943359 83.3337891,46.6423828 L83.3337891,41.6667969 L86.6671875,41.6667969 C88.2902344,41.6666016 89.8123047,40.8785156 90.7494141,39.5533203 C91.6865234,38.228125 91.9222656,36.5304687 91.3814453,35 L95,35 C97.7613281,35 100,32.7615234 100,30 C100,27.2384766 97.7615234,25 95,25 Z M15.0442478,35.1299967 L15.0442478,16.8408462 C15.0442478,15.9225601 15.7927324,15.178267 16.7161901,15.178267 C17.6396477,15.178267 18.3881324,15.9225601 18.3881324,16.8408462 L18.3881324,28.4792903 C18.3881324,29.3975764 19.1366171,30.1418695 20.0600747,30.1418695 C20.9835324,30.1418695 21.732017,29.3973816 21.732017,28.4792903 L21.732017,10.1903346 C21.732017,9.27204847 22.4805017,8.52775543 23.4039593,8.52775543 C24.327417,8.52775543 25.0762935,9.27204847 25.0762935,10.1903346 L25.0762935,28.4794851 C25.0762935,29.3977713 25.8247782,30.1420643 26.7482358,30.1420643 C27.6716935,30.1420643 28.4201781,29.3975764 28.4201781,28.4794851 L28.4201781,5.2024022 C28.4201781,4.28411605 29.1688587,3.53982301 30.0921204,3.53982301 C31.0155781,3.53982301 31.7640627,4.28411605 31.7640627,5.2024022 L31.7640627,28.4794851 C31.7640627,29.3977713 32.5125474,30.1420643 33.4360051,30.1420643 C34.3594627,30.1420643 35.1079474,29.3975764 35.1079474,28.4794851 L35.1079474,13.5156879 C35.1079474,12.5974017 35.856432,11.8531087 36.7798897,11.8531087 C37.7033473,11.8531087 38.451832,12.5974017 38.451832,13.5156879 L38.451832,38.45535 C38.451832,39.3736361 39.2003166,40.1179292 40.1237743,40.1179292 L43.3628319,40.1179292 C43.003089,43.0216462 41.5325713,45.6759667 39.2567469,47.5300747 C37.7008001,48.8012181 36.7932135,50.6942943 36.7796937,52.6966764 L36.7796937,58.4070796 L20.0602706,58.4070796 L20.0602706,53.4435024 C20.087702,50.3944338 19.2823952,47.3952446 17.7301713,44.765669 C15.9739755,41.8549377 15.0456194,38.5245186 15.0442478,35.1299967 Z M46.4936434,39.8230088 L47.3447655,39.8230088 C48.3821326,39.8381152 49.359472,40.3127718 50.012423,41.1191712 C52.5675781,44.1706486 56.2163516,46.0998851 60.1769912,46.4936434 L60.1769912,47.3447655 C60.1618848,48.3821326 59.6872282,49.359472 58.8808288,50.012423 C55.8293514,52.5675781 53.9001149,56.2163516 53.5063566,60.1769912 L52.6552345,60.1769912 C51.6178674,60.1618848 50.640528,59.6872282 49.987577,58.8808288 C47.4324219,55.8293514 43.7836484,53.9001149 39.8230088,53.5063566 L39.8230088,52.6552345 C39.8381152,51.6178674 40.3127718,50.640528 41.1191712,49.987577 C44.1708473,47.4322231 46.1000839,43.7834496 46.4936434,39.8230088 Z M58.4070796,79.9396599 L53.4435024,79.9396599 C50.3944338,79.9120322 47.3952446,80.7175461 44.765669,82.2697916 C41.8549377,84.0260117 38.5245186,84.9543806 35.1299967,84.9557522 L16.8408462,84.9557522 C15.9225601,84.9557522 15.178267,84.2072572 15.178267,83.2837868 C15.178267,82.3603163 15.9225601,81.6118213 16.8408462,81.6118213 L28.4792903,81.6118213 C29.3975764,81.6118213 30.1418695,80.8633263 30.1418695,79.9398559 C30.1418695,79.0163855 29.3973816,78.2678904 28.4792903,78.2678904 L10.1903346,78.2678904 C9.27204847,78.2678904 8.52775543,77.5191995 8.52775543,76.595925 C8.52775543,75.6724546 9.27204847,74.9239595 10.1903346,74.9239595 L28.4794851,74.9239595 C29.3977713,74.9239595 30.1420643,74.1754645 30.1420643,73.2519941 C30.1420643,72.3285237 29.3975764,71.5800287 28.4794851,71.5800287 L5.2024022,71.5800287 C4.28411605,71.5800287 3.53982301,70.8315336 3.53982301,69.9080632 C3.53982301,68.9845928 4.28411605,68.2360978 5.2024022,68.2360978 L28.4794851,68.2360978 C29.3977713,68.2360978 30.1420643,67.4876027 30.1420643,66.5641323 C30.1420643,65.6406619 29.3975764,64.8921669 28.4794851,64.8921669 L13.5156879,64.8921669 C12.5974017,64.8921669 11.8531087,64.1436719 11.8531087,63.2202014 C11.8531087,62.296731 12.5974017,61.548236 13.5156879,61.548236 L38.45535,61.548236 C39.3736361,61.548236 40.1179292,60.799741 40.1179292,59.8762705 L40.1179292,56.6371681 C43.0216462,56.996916 45.6759667,58.467454 47.5300747,60.7433099 C48.8012181,62.2992782 50.6942943,63.2068774 52.6966764,63.2203974 L58.4070796,63.2203974 L58.4070796,79.9396599 Z M84.9557522,64.8700033 L84.9557522,83.1591538 C84.9557522,84.0774399 84.2072572,84.821733 83.2837868,84.821733 C82.3603163,84.821733 81.6118213,84.0774399 81.6118213,83.1591538 L81.6118213,71.5207097 C81.6118213,70.6024236 80.8633263,69.8581305 79.9398559,69.8581305 C79.0163855,69.8581305 78.2678904,70.6024236 78.2678904,71.5207097 L78.2678904,89.8096654 C78.2678904,90.7279515 77.5191995,91.4722446 76.595925,91.4722446 C75.6724546,91.4722446 74.9239595,90.7279515 74.9239595,89.8096654 L74.9239595,71.5205149 C74.9239595,70.6022287 74.1754645,69.8579357 73.2519941,69.8579357 C72.3285237,69.8579357 71.5800287,70.6022287 71.5800287,71.5205149 L71.5800287,94.7975978 C71.5800287,95.715884 70.8315336,96.460177 69.9080632,96.460177 C68.9845928,96.460177 68.2360978,95.715884 68.2360978,94.7975978 L68.2360978,71.5205149 C68.2360978,70.6022287 67.4876027,69.8579357 66.5641323,69.8579357 C65.6406619,69.8579357 64.8921669,70.6022287 64.8921669,71.5205149 L64.8921669,86.4843121 C64.8921669,87.4025983 64.1436719,88.1468913 63.2202014,88.1468913 C62.296731,88.1468913 61.548236,87.4025983 61.548236,86.4843121 L61.548236,61.54465 C61.548236,60.6263639 60.799741,59.8820708 59.8762705,59.8820708 L56.6371681,59.8820708 C56.996916,56.9783538 58.467454,54.3240333 60.7433099,52.4699253 C62.2992782,51.1987819 63.2068774,49.3057057 63.2203974,47.3033236 L63.2203974,41.5929204 L79.9396599,41.5929204 L79.9396599,46.5564976 C79.9120322,49.6053713 80.7175461,52.6047554 82.2697916,55.2341362 C84.0260117,58.1450623 84.9543806,61.4754814 84.9557522,64.8700033 Z M94.7975978,31.764143 L71.5205149,31.764143 C70.6022287,31.764143 69.8579357,32.5126225 69.8579357,33.4360737 C69.8579357,34.359525 70.6022287,35.1080045 71.5205149,35.1080045 L86.4843121,35.1080045 C87.4025983,35.1080045 88.1468913,35.856484 88.1468913,36.7799352 C88.1468913,37.7033865 87.4025983,38.451866 86.4843121,38.451866 L61.54465,38.451866 C60.6263639,38.451866 59.8820708,39.2003454 59.8820708,40.1237967 L59.8820708,43.3628319 C56.9783538,43.0030915 54.3240333,41.532584 52.4699253,39.2567753 C51.1987819,37.7008393 49.3057057,36.7932589 47.3033236,36.7797393 L41.5929204,36.7797393 L41.5929204,20.0602359 L46.5564976,20.0602359 C49.6053713,20.0876671 52.6047554,19.2823659 55.2341362,17.7301527 C58.1448675,15.973969 61.4752866,15.0456193 64.8698084,15.0442478 L83.1589589,15.0442478 C84.0772451,15.0442478 84.8215381,15.7927273 84.8215381,16.7161785 C84.8215381,17.6396298 84.0772451,18.3881093 83.1589589,18.3881093 L71.5205149,18.3881093 C70.6022287,18.3881093 69.8579357,19.1365887 69.8579357,20.06004 C69.8579357,20.9834913 70.6022287,21.7319707 71.5205149,21.7319707 L89.8096654,21.7319707 C90.7279515,21.7319707 91.4722446,22.4804502 91.4722446,23.4039015 C91.4722446,24.3273527 90.7279515,25.0762241 89.8096654,25.0762241 L71.5205149,25.0762241 C70.6022287,25.0762241 69.8579357,25.8247036 69.8579357,26.7481548 C69.8579357,27.6716061 70.6022287,28.4200856 71.5205149,28.4200856 L94.7975978,28.4200856 C95.715884,28.4200856 96.460177,29.168761 96.460177,30.0920163 C96.460177,31.0156635 95.715884,31.764143 94.7975978,31.764143 Z" id="Shape"></path>
            </g>
        </g>
    </g>
</svg>