<?xml version="1.0" encoding="UTF-8"?>
<svg width="18px" height="33px" viewBox="0 0 18 33" version="1.1" xmlns="http://www.w3.org/2000/svg" xmlns:xlink="http://www.w3.org/1999/xlink">
    <!-- Generator: Sketch 49.1 (51147) - http://www.bohemiancoding.com/sketch -->
    <title>facebook (1) copy</title>
    <desc>Created with Sketch.</desc>
    <defs></defs>
    <g id="home" stroke="none" stroke-width="1" fill="none" fill-rule="evenodd">
        <g id="facebook-(1)-copy" fill="#020F3E" fill-rule="nonzero">
            <path d="M11.118316,33 L6.0396806,33 C5.19138641,33 4.50133076,32.2819519 4.50133076,31.3992462 L4.50133076,19.4794464 L1.5383499,19.4794464 C0.690055651,19.4794464 0,18.7611465 0,17.8786926 L0,12.7710342 C0,11.8883286 0.690055651,11.1702805 1.5383499,11.1702805 L4.50133076,11.1702805 L4.50133076,8.61254883 C4.50133076,6.07646944 5.26663443,3.91880034 6.71425119,2.37318417 C8.16840069,0.82051851 10.2005807,0 12.5910961,0 L16.4643117,0.00654598828 C17.3111542,0.00805664062 18,0.726104736 18,1.6072998 L18,6.34963989 C18,7.23234561 17.3101864,7.95039364 16.4621341,7.95039364 L13.8543431,7.95140079 C13.059037,7.95140079 12.8565207,8.11731718 12.8132107,8.16817476 C12.7418341,8.25251767 12.6569079,8.49094389 12.6569079,9.14932251 L12.6569079,11.1700287 L16.2661505,11.1700287 C16.537866,11.1700287 16.801113,11.239769 17.027341,11.3711929 C17.5153642,11.6549377 17.8187757,12.1914597 17.8187757,12.771286 L17.8168401,17.8789444 C17.8168401,18.7611465 17.1267844,19.4791946 16.2784902,19.4791946 L12.6569079,19.4791946 L12.6569079,31.3992462 C12.6569079,32.2819519 11.9666102,33 11.118316,33 Z M6.36051296,31.0653992 L10.7974837,31.0653992 L10.7974837,18.6133575 C10.7974837,18.0239639 11.258408,17.5445938 11.8245827,17.5445938 L15.9576579,17.5445938 L15.9593516,13.1048813 L11.8243407,13.1048813 C11.258166,13.1048813 10.7974837,12.6255112 10.7974837,12.0361176 L10.7974837,9.14932251 C10.7974837,8.39350888 10.87128,7.53396606 11.41955,6.88792423 C12.0820228,6.10693359 13.1260585,6.01679989 13.8538592,6.01679989 L16.1408179,6.01579288 L16.1408179,1.94064331 L12.5896443,1.93460083 C8.74788292,1.93460083 6.36051296,4.49359131 6.36051296,8.61254883 L6.36051296,12.0361176 C6.36051296,12.6252594 5.89983064,13.1048813 5.33365595,13.1048813 L1.8591822,13.1048813 L1.8591822,17.5445938 L5.33365595,17.5445938 C5.89983064,17.5445938 6.36051296,18.0239639 6.36051296,18.6133575 L6.36051296,31.0653992 Z M16.4606823,1.94114688 L16.4611845,1.94114688 L16.4606823,1.94114688 Z" id="Shape"></path>
        </g>
    </g>
</svg>