<?xml version="1.0" encoding="UTF-8"?>
<svg width="65px" height="65px" viewBox="0 0 65 65" version="1.1" xmlns="http://www.w3.org/2000/svg" xmlns:xlink="http://www.w3.org/1999/xlink">
    <!-- Generator: Sketch 49.1 (51147) - http://www.bohemiancoding.com/sketch -->
    <title>group_8</title>
    <desc>Created with Sketch.</desc>
    <defs></defs>
    <g id="home" stroke="none" stroke-width="1" fill="none" fill-rule="evenodd">
        <g id="Group-8" fill="#3E61FF">
            <path d="M64.0601,9.0576 L57.5161,7.7476 C57.3251,7.7096 57.1411,7.5256 57.1031,7.3366 L55.7931,0.7916 C55.6431,0.0316 55.0741,-0.1404 54.5281,0.4076 L45.1051,9.8286 C44.8311,10.1036 44.6721,10.6326 44.7481,11.0126 L45.6841,15.6946 L32.2141,29.1666 C31.2551,30.1246 31.2551,31.6776 32.2141,32.6376 C33.1731,33.5956 34.7241,33.5956 35.6851,32.6376 L49.1541,19.1656 L53.8381,20.1026 C54.2171,20.1786 54.7481,20.0176 55.0201,19.7456 L64.4421,10.3246 C64.9911,9.7766 64.8201,9.2106 64.0601,9.0576" id="Fill-354"></path>
            <path d="M38.7744,19.3848 L42.4774,15.6818 C42.6134,15.5448 42.5904,15.3508 42.4244,15.2538 C39.2824,13.4038 35.7494,12.4758 32.2164,12.4758 C27.0564,12.4758 21.8974,14.4478 17.9594,18.3808 C10.0864,26.2548 10.0874,39.0188 17.9594,46.8928 C21.8974,50.8288 27.0554,52.7978 32.2164,52.7968 C37.3734,52.7968 42.5334,50.8258 46.4694,46.8928 C53.1044,40.2588 54.1424,30.1558 49.6004,22.4298 C49.5014,22.2628 49.3094,22.2388 49.1694,22.3758 L45.4664,26.0778 C45.3294,26.2168 45.2864,26.4678 45.3664,26.6468 C46.2164,28.5018 46.6774,30.5318 46.6774,32.6378 C46.6774,36.4988 45.1734,40.1338 42.4414,42.8638 C39.7094,45.5938 36.0784,47.0998 32.2164,47.0998 C28.3534,47.0998 24.7214,45.5938 21.9884,42.8638 C16.3504,37.2238 16.3504,28.0498 21.9884,22.4088 C24.7214,19.6778 28.3524,18.1738 32.2154,18.1738 C34.3194,18.1738 36.3484,18.6338 38.2084,19.4858 C38.3834,19.5658 38.6354,19.5228 38.7744,19.3848" id="Fill-356"></path>
            <path d="M33.584,24.5742 C33.859,24.3022 33.772,24.0102 33.39,23.9592 C30.772,23.6062 28.028,24.4282 26.017,26.4382 C22.594,29.8632 22.594,35.4122 26.017,38.8362 C29.441,42.2582 34.99,42.2592 38.414,38.8362 C40.424,36.8252 41.249,34.0832 40.896,31.4632 C40.844,31.0802 40.551,30.9942 40.279,31.2672 L37.297,34.2472 C36.402,35.1432 35.215,35.6332 33.95,35.6332 C32.687,35.6332 31.499,35.1432 30.605,34.2472 C29.71,33.3542 29.217,32.1652 29.217,30.9002 C29.217,29.6362 29.71,28.4482 30.605,27.5562 L33.584,24.5742 Z" id="Fill-358"></path>
            <path d="M59.8643,18.127 L56.0993,21.893 C55.9643,22.029 55.9153,22.282 55.9933,22.461 C57.3523,25.635 58.0723,29.081 58.0723,32.638 C58.0723,39.544 55.3843,46.039 50.4983,50.922 C45.6153,55.805 39.1213,58.495 32.2163,58.495 C25.3083,58.495 18.8163,55.807 13.9313,50.922 C3.8483,40.839 3.8483,24.435 13.9313,14.354 C18.8143,9.471 25.3083,6.778 32.2143,6.78 C35.7713,6.778 39.2173,7.5 42.3903,8.86 C42.5683,8.938 42.8223,8.89 42.9603,8.753 L46.7243,4.986 C46.8613,4.851 46.8343,4.666 46.6623,4.578 C42.1423,2.248 37.1783,1.082 32.2143,1.082 C24.1373,1.082 16.0623,4.161 9.9023,10.325 C-2.4227,22.648 -2.4227,42.627 9.9023,54.948 C16.0633,61.111 24.1373,64.191 32.2163,64.191 C40.2893,64.191 48.3663,61.111 54.5263,54.949 C64.4763,45.002 66.3903,30.061 60.2743,18.191 C60.1843,18.019 60.0003,17.99 59.8643,18.127" id="Fill-360"></path>
        </g>
    </g>
</svg>