<?xml version="1.0" encoding="UTF-8"?>
<svg width="110px" height="110px" viewBox="0 0 110 110" version="1.1" xmlns="http://www.w3.org/2000/svg" xmlns:xlink="http://www.w3.org/1999/xlink">
    <!-- Generator: Sketch 49.1 (51147) - http://www.bohemiancoding.com/sketch -->
    <title>group_4_copy_2</title>
    <desc>Created with Sketch.</desc>
    <defs></defs>
    <g id="home_page" stroke="none" stroke-width="1" fill="none" fill-rule="evenodd">
        <g id="hand-wh" fill="#FFFFFF" fill-rule="nonzero">
            <g id="hand">
                <path d="M50.4145056,74.4151202 C51.1951648,73.6329362 51.1951648,72.3670639 50.4145056,71.5848799 C49.6330648,70.80504 48.3671307,70.80504 47.5849085,71.5848799 C46.8050305,72.3670639 46.8050305,73.6329362 47.5849085,74.4151202 C48.3671307,75.1949599 49.6330648,75.1949599 50.4145056,74.4151202 Z" id="Shape"></path>
                <path d="M41,23.4995827 C41,36.4572419 51.5421106,47 64.5,47 C77.4578894,47 88,36.4572419 88,23.4995827 C88,10.5419234 77.4578894,0 64.5,0 C51.5421106,0 41,10.5419234 41,23.4995827 Z M83.7277279,23.4995827 C83.7277279,34.1016073 75.1022129,42.7269691 64.5,42.7269691 C53.8977871,42.7269691 45.2722718,34.1016073 45.2722718,23.4995827 C45.2722718,12.8983927 53.8977871,4.27303087 64.5,4.27303087 C75.1022129,4.27303087 83.7277279,12.8983927 83.7277279,23.4995827 Z" id="Shape"></path>
                <path d="M24.7472764,109.368661 C25.5800558,110.202885 26.9358409,110.212061 27.7795338,109.38618 L38.1959926,99.1886339 C39.9656489,97.4300911 40.5037654,94.8264801 39.7255532,92.5632321 L41.9661665,90.4159413 C43.1725214,89.2580393 44.7608466,88.6198585 46.4398374,88.6198585 L75.0019894,88.6198585 C80.0691834,88.6198585 84.8585048,86.6861288 88.4893223,83.1748828 C88.6387524,83.0305622 87.355164,84.5329984 107.97485,60.0435383 C111.033132,56.4480358 110.575607,51.0489424 106.954024,48.0065299 C103.355107,44.9924808 97.9638675,45.4254428 94.8971906,48.9592128 L82.2191312,61.9080275 C80.6182135,59.9501053 78.1769609,58.7296365 75.5392664,58.7296365 L51.5809073,58.7296365 C48.1717165,57.312291 44.5543307,56.5948591 40.8219342,56.5948591 C30.475993,56.5948591 21.4421831,61.3432581 16.5940971,70.2460895 C14.5516049,69.8615126 12.3974596,70.475501 10.8477509,72.0154774 L0.626894654,82.2021785 C-0.207563877,83.0338991 -0.209242761,84.3795013 0.623536673,85.2137246 L24.7472764,109.368661 Z M40.8210946,60.864414 C44.1119165,60.864414 47.2936042,61.5226162 50.2796893,62.8206677 C50.5516858,62.9391275 50.8446698,63.0000258 51.1410117,63.0000258 L75.5392664,63.0000258 C77.868866,63.0000258 79.8366432,64.8878732 79.8366432,67.2695807 C79.8366432,69.6245932 77.9091618,71.5399699 75.5392664,71.5399699 L58.0097629,71.5399699 C56.8235559,71.5399699 55.8614943,72.49599 55.8614943,73.6747475 C55.8614943,74.8543394 56.8235559,75.8095251 58.0097629,75.8095251 L75.5392664,75.8095251 C80.2782179,75.8095251 84.1331808,71.9787715 84.1331808,67.2695807 C84.1331808,66.8941803 84.1063169,66.5221166 84.0576261,66.15339 C96.3218143,53.6258582 98.051175,51.8656469 98.1250506,51.7780535 C99.6562902,49.9819707 102.374576,49.7542278 104.182849,51.2691774 C105.992801,52.7899664 106.221984,55.4895131 104.686547,57.2956067 L85.4159297,80.1883633 C82.6019411,82.8728939 78.9073217,84.3503034 75.0019894,84.3503034 L46.4398374,84.3503034 C43.6409597,84.3503034 40.9915122,85.4139382 38.9817603,87.3434967 L37.1558578,89.0945316 L20.323975,72.369188 C24.2578505,65.0355307 31.6395335,60.864414 40.8210946,60.864414 Z M13.8884034,75.0328631 C14.5969375,74.3287786 15.6849235,74.2019767 16.5487642,74.7325427 C16.9206608,74.9577829 15.8528226,73.9917524 35.1578588,93.148857 C36.0166626,94.0022675 35.9704903,95.3620514 35.1696118,96.1579006 L26.2894294,104.851342 L5.17863859,83.7129568 L13.8884034,75.0328631 Z" id="Shape"></path>
                <path d="M61.4249699,10.1434552 L61.4249699,12.6544795 C58.9296084,13.5386548 57.1370359,15.9207368 57.1370359,18.7147641 C57.1370359,22.2590009 60.0219049,25.1434552 63.5685181,25.1434552 C64.7504433,25.1434552 65.712066,26.1046609 65.712066,27.2860732 C65.712066,28.4674852 64.7504433,29.4286911 63.5685181,29.4286911 C62.6529659,29.4286911 61.6637003,28.8534748 60.7850048,27.8077031 C60.0227425,26.9017583 58.6707744,26.7853753 57.7644362,27.5464695 C56.8580983,28.3084008 56.7408272,29.6597822 57.5030892,30.565727 C58.6489954,31.9279933 59.9967755,32.8774769 61.4249699,33.3564052 L61.4249699,35.857382 C61.4249699,37.041306 62.3849177,38 63.5685181,38 C64.7521185,38 65.712066,37.041306 65.712066,35.857382 L65.712066,33.3463577 C68.2074275,32.4613452 70,30.0792632 70,27.2860732 C70,23.7409991 67.115131,20.857382 63.5685181,20.857382 C62.3865929,20.857382 61.4249699,19.8961763 61.4249699,18.7147641 C61.4249699,17.533352 62.3865929,16.5713089 63.5685181,16.5713089 C64.3282673,16.5713089 65.129899,16.9589729 65.8871352,17.6915992 C66.7381883,18.5146526 68.0951824,18.4920458 68.9185931,17.6421992 C69.7420036,16.7915155 69.719387,15.4351102 68.8691717,14.6120571 C67.7810634,13.5595869 66.6921175,12.9642759 65.712066,12.6394082 L65.712066,10.1434552 C65.712066,8.95953122 64.7521185,8 63.5685181,8 C62.3849177,8 61.4249699,8.95953122 61.4249699,10.1434552 Z" id="Shape"></path>
            </g>
        </g>
    </g>
</svg>