<?xml version="1.0" encoding="UTF-8"?>
<svg width="103px" height="89px" viewBox="0 0 103 89" version="1.1" xmlns="http://www.w3.org/2000/svg" xmlns:xlink="http://www.w3.org/1999/xlink">
    <!-- Generator: Sketch 49.1 (51147) - http://www.bohemiancoding.com/sketch -->
    <title>group_7_copy</title>
    <desc>Created with Sketch.</desc>
    <defs></defs>
    <g id="home_page" stroke="none" stroke-width="1" fill="none" fill-rule="evenodd">
        <g id="health-wh" fill="#FFFFFF" fill-rule="nonzero">
            <g id="health">
                <path d="M86,10 C84.896,10 84,10.896 84,12 C84,13.104 84.896,14 86,14 C87.104,14 88,13.104 88,12 C88,10.8958 87.104,10 86,10 Z" id="Shape"></path>
                <path d="M95.8499492,8.19634689 C91.0489824,2.91096818 84.389791,0.000197046516 77.0991211,0.000197046516 C69.1268809,0.000197046516 61.8521035,3.02702858 56.0617734,8.75359444 C54.0482441,10.7447495 52.5432773,12.7341311 51.5,14.3128678 C50.4567227,12.7343282 48.9517559,10.7451436 46.9382266,8.75359444 C41.1478965,3.02683154 33.8733203,0 25.9008789,0 C10.6407852,0 0,12.504769 0,27.3719286 C0,47.4545155 21.7273672,64.3640623 50.1825254,88.5186154 C50.5605273,88.8396041 51.0302637,89 51.5,89 C51.9697363,89 52.4394727,88.8396041 52.8174746,88.5186154 C81.3404277,64.3063276 103,47.4265349 103,27.3719286 C103,20.0821928 100.460809,13.2722651 95.8499492,8.19634689 Z M51.5,84.4230035 C24.6296738,61.647579 4.0234375,45.2895654 4.0234375,27.3719286 C4.0234375,14.0141453 13.428625,3.94112737 25.9008789,3.94112737 C32.8260195,3.94112737 38.9088535,6.46056413 43.9803965,11.429092 C47.8441035,15.2143556 49.6468047,19.0774526 49.6645078,19.1160737 C49.9881934,19.8228795 50.7057734,20.2768747 51.4969824,20.2784511 C51.4981895,20.2784511 51.4995977,20.2784511 51.5008047,20.2784511 C52.2918125,20.2784511 53.0103984,19.8226825 53.3356934,19.1160737 C53.3533965,19.0774526 55.1560977,15.2145527 59.0198047,11.429092 C64.0911465,6.46036708 70.1739805,3.94112737 77.0993223,3.94112737 C89.5715762,3.94112737 98.9767637,14.0141453 98.9767637,27.3719286 C98.9765625,45.6941019 77.0106055,62.8001041 51.5,84.4230035 Z" id="Shape"></path>
                <path d="M93.3219037,17.0416424 C92.7734115,16.0905297 91.480766,15.7242385 90.4351024,16.2227367 C89.3892249,16.7214293 88.9859281,17.8965161 89.5344204,18.8474344 C90.9459593,21.2946248 91.7232573,24.2171771 91.7232573,27.0767366 C91.7232573,32.6947562 88.7823552,38.6574861 82.4679584,45.8417698 C81.7306479,46.6805066 81.8809754,47.9040045 82.8034688,48.5743718 C83.7319497,49.2490163 85.0763438,49.1028109 85.8089498,48.2693236 C92.7616504,40.3586791 96,33.6244825 96,27.0767366 C96,23.5491429 95.0738714,20.0790981 93.3219037,17.0416424 Z" id="Shape"></path>
                <path d="M70.9716981,38.0754717 L59.6132075,38.0754717 L59.6132075,26.9811321 C59.6132075,25.8869528 58.7051368,25 57.5849057,25 L45.4150943,25 C44.2948632,25 43.3867925,25.8869528 43.3867925,26.9811321 L43.3867925,38.0754717 L32.0283019,38.0754717 C30.9080708,38.0754717 30,38.9624245 30,40.0566038 L30,51.9433962 C30,53.0375755 30.9080708,53.9245283 32.0283019,53.9245283 L43.3867925,53.9245283 L43.3867925,65.0188679 C43.3867925,66.1130472 44.2948632,67 45.4150943,67 L57.5849057,67 C58.7051368,67 59.6132075,66.1130472 59.6132075,65.0188679 L59.6132075,53.9245283 L70.9716981,53.9245283 C72.0919292,53.9245283 73,53.0375755 73,51.9433962 L73,40.0566038 C73,38.9624245 72.0919292,38.0754717 70.9716981,38.0754717 Z M68.9433962,49.962066 L57.5849057,49.962066 C56.4646745,49.962066 55.5566038,50.8490189 55.5566038,51.9431981 L55.5566038,63.0375377 L47.4433962,63.0375377 L47.4433962,51.9431981 C47.4433962,50.8490189 46.5353255,49.962066 45.4150943,49.962066 L34.0566038,49.962066 L34.0566038,42.0375377 L45.4150943,42.0375377 C46.5353255,42.0375377 47.4433962,41.1505849 47.4433962,40.0564057 L47.4433962,28.962066 L55.5566038,28.962066 L55.5566038,40.0564057 C55.5566038,41.1505849 56.4646745,42.0375377 57.5849057,42.0375377 L68.9433962,42.0375377 L68.9433962,49.962066 Z" id="Shape"></path>
            </g>
        </g>
    </g>
</svg>