<?xml version="1.0" encoding="UTF-8"?>
<svg width="75px" height="75px" viewBox="0 0 75 75" version="1.1" xmlns="http://www.w3.org/2000/svg" xmlns:xlink="http://www.w3.org/1999/xlink">
    <!-- Generator: Sketch 49.1 (51147) - http://www.bohemiancoding.com/sketch -->
    <title>hired copy</title>
    <desc>Created with Sketch.</desc>
    <defs></defs>
    <g id="home_page" stroke="none" stroke-width="1" fill="none" fill-rule="evenodd">
        <g id="hired" fill="#3E61FF" fill-rule="nonzero">
            <path d="M66.9938965,60.148 C67.7978027,59.0645714 68.2734375,57.735 68.2734375,56.2985714 L68.2734375,47.7142857 C68.2734375,46.9252857 67.6174805,46.2857143 66.8085938,46.2857143 L60.2619141,46.2857143 C57.2355469,46.2857143 54.7734375,48.6868571 54.7734375,51.6382857 L54.7734375,56.2985714 C54.7734375,57.7341429 55.2484863,59.0627143 56.0513672,60.1458571 C55.05,60.3042857 54.0865723,60.6171429 53.1880371,61.0751429 C51.1527832,58.1134286 47.8183594,56.0708571 43.9866211,55.7262857 C43.9716797,55.7221429 43.9564453,55.7191429 43.9413574,55.7155714 C45.3123047,54.2225714 46.147998,52.2528571 46.147998,50.0957143 L46.147998,38.4285714 C46.147998,37.6395714 45.492041,37 44.6831543,37 L35.7854004,37 C31.9623047,37 28.852002,40.0332857 28.852002,43.7617143 L28.852002,50.0955714 C28.852002,52.2527143 29.6876953,54.2224286 31.0586426,55.7154286 C31.0435547,55.719 31.0283203,55.7221429 31.0133789,55.7261429 C27.1812012,56.0707143 23.8466309,58.1135714 21.8115234,61.0757143 C20.9126953,60.6178571 19.9491211,60.3047143 18.9481934,60.1462857 C19.7512207,59.0631429 20.2265625,57.7342857 20.2265625,56.2985714 L20.2265625,47.7142857 C20.2265625,46.9252857 19.5706055,46.2857143 18.7617187,46.2857143 L12.2150391,46.2857143 C9.18867188,46.2857143 6.7265625,48.6868571 6.7265625,51.6382857 L6.7265625,56.2985714 C6.7265625,57.7351429 7.20219727,59.0645714 8.00610352,60.148 C3.47197266,60.8707143 0,64.7162857 0,69.3392857 L0,73.5714286 C0,74.3604286 0.655957031,75 1.46484375,75 L73.5351562,75 C74.344043,75 75,74.3604286 75,73.5714286 L75,69.3392857 C75,64.7162857 71.5280273,60.8707143 66.9938965,60.148 Z M9.65625,51.6382857 C9.65625,50.2622857 10.8041016,49.1428571 12.2150391,49.1428571 L17.296875,49.1428571 L17.296875,50.8827143 C17.296875,51.7358571 16.5852539,52.4298571 15.7105957,52.4298571 L9.65625,52.4298571 L9.65625,51.6382857 Z M9.65625,55.2868571 L15.7105957,55.2868571 C16.2687012,55.2868571 16.8030762,55.187 17.296875,55.0055714 L17.296875,56.2985714 C17.296875,58.3528571 15.5831543,60.0242857 13.4765625,60.0242857 C11.3699707,60.0242857 9.65625,58.3528571 9.65625,56.2985714 L9.65625,55.2868571 Z M14.4209473,62.8814286 L13.4765625,63.8024286 L12.5321777,62.8814286 L14.4209473,62.8814286 Z M19.7097656,67.8194286 L19.7097656,72.1428571 L2.9296875,72.1428571 L2.9296875,69.3392857 C2.9296875,66.1351429 5.33540039,63.4697143 8.47749023,62.9677143 L12.4407715,66.8328571 C12.7155762,67.1007143 13.0880859,67.2512857 13.4765625,67.2512857 C13.8650391,67.2512857 14.2375488,67.1007143 14.5123535,66.8328571 L18.4768066,62.9664286 C19.177002,63.0775714 19.8503906,63.2977143 20.4779297,63.6197143 C19.9816406,64.9291429 19.7097656,66.3438571 19.7097656,67.8194286 Z M37.5001465,55.6724286 C34.3470703,55.6724286 31.7818359,53.1707143 31.7818359,50.0957143 L31.7818359,48.2075714 L40.5363281,48.2075714 C41.5070801,48.2075714 42.4211426,47.9657143 43.218457,47.5408571 L43.218457,50.0957143 C43.218457,53.1707143 40.6532227,55.6724286 37.5001465,55.6724286 Z M40.0535156,58.5294286 L37.5,61.0197143 L34.9464844,58.5294286 L40.0535156,58.5294286 Z M31.781543,43.7617143 L31.7816895,43.7617143 C31.7816895,41.6087143 33.5777344,39.8571429 35.7854004,39.8571429 L43.2183105,39.8571429 L43.2183105,42.7348571 C43.2183105,44.1771429 42.0150879,45.3505714 40.5361816,45.3505714 L31.781543,45.3505714 L31.781543,43.7617143 Z M52.3604004,72.1428571 L49.5117188,72.1428571 L25.4882813,72.1428571 L22.6395996,72.1428571 L22.6395996,69.2857143 L32.1777832,69.2857143 C32.9866699,69.2857143 33.642627,68.6461429 33.642627,67.8571429 C33.642627,67.0681429 32.9866699,66.4285714 32.1777832,66.4285714 L22.7466797,66.4285714 C23.3745117,62.3684286 26.7070313,59.1634286 30.8910645,58.615 L36.464209,64.0501429 C36.750293,64.3291429 37.1251465,64.4685714 37.5,64.4685714 C37.8748535,64.4685714 38.249707,64.3291429 38.535791,64.0501429 L44.1089355,58.615 C48.7606934,59.2247143 52.3604004,63.1185714 52.3604004,67.8194286 L52.3604004,72.1428571 Z M57.703125,51.6382857 C57.703125,50.2622857 58.8509766,49.1428571 60.2619141,49.1428571 L65.34375,49.1428571 L65.34375,50.8827143 C65.34375,51.7358571 64.6321289,52.4298571 63.7574707,52.4298571 L57.703125,52.4298571 L57.703125,51.6382857 Z M57.703125,55.2868571 L63.7574707,55.2868571 C64.3155762,55.2868571 64.8499512,55.187 65.34375,55.0055714 L65.34375,56.2985714 C65.34375,58.3528571 63.6300293,60.0242857 61.5234375,60.0242857 C59.4168457,60.0242857 57.703125,58.3528571 57.703125,56.2985714 L57.703125,55.2868571 Z M62.4678223,62.8814286 L61.5234375,63.8024286 L60.5790527,62.8814286 L62.4678223,62.8814286 Z M55.2900879,72.1428571 L55.2900879,67.8194286 C55.2900879,66.3437143 55.0182129,64.929 54.5217773,63.6194286 C55.1490234,63.2971429 55.8222656,63.0771429 56.5226074,62.9661429 L60.4875,66.8328571 C60.7623047,67.1007143 61.1348145,67.2512857 61.523291,67.2512857 C61.9117676,67.2512857 62.2842773,67.1007143 62.559082,66.8328571 L66.5223633,62.9677143 C69.6644531,63.4698571 72.070166,66.1351429 72.070166,69.3392857 L72.070166,72.1428571 L55.2900879,72.1428571 Z" id="Shape"></path>
            <path d="M43.5793053,9.42310887 C43.0182355,8.85896371 42.1089748,8.85896371 41.5477613,9.42310887 L34.4991956,16.5122682 L31.452095,13.4476815 C30.8910252,12.8833918 29.9817645,12.8833918 29.4206947,13.447537 C28.8597684,14.0116822 28.8597684,14.9264497 29.4206947,15.4907393 L33.4834954,19.576855 C33.7529698,19.8477314 34.1182542,20 34.4991956,20 C34.880137,20 35.2454214,19.8477314 35.5148958,19.576855 L43.5793053,11.4661667 C44.1402316,10.9020216 44.1402316,9.98725404 43.5793053,9.42310887 Z" id="Shape"></path>
            <path d="M43.4004538,2.12602005 C42.6727011,1.80000435 41.8193992,2.12833942 41.4947028,2.85951914 C41.1700065,3.59069886 41.4970118,4.44784907 42.2249088,4.77386477 C46.4097394,6.64863625 49.1138104,10.833205 49.1138104,15.4345347 C49.1138104,21.8672927 43.9038053,27.1007941 37.4999278,27.1007941 C31.0960504,27.1007941 25.8860453,21.8672927 25.8860453,15.4345347 C25.8860453,10.8569785 28.5706345,6.68110735 32.7253044,4.79618866 C33.451614,4.46669391 33.7745786,3.60794913 33.4464189,2.87836397 C33.1184034,2.14863386 32.2630812,1.82435768 31.5373488,2.15385243 C26.3511547,4.50684791 23,9.71976502 23,15.4343897 C22.9998557,23.4659148 29.5046055,30 37.4999278,30 C45.4952502,30 52,23.4659148 52,15.4345347 C52,9.69019312 48.624457,4.46625903 43.4004538,2.12602005 Z" id="Shape"></path>
            <path d="M38.0199342,0 L37.9846826,0 C37.4409409,0 37,0.4477 37,1 C37,1.5523 37.4409409,2 37.9846826,2 L38.0106782,2 C38.0122537,2 38.0137307,2 38.0154047,2 C38.5570786,2 38.9974287,1.5554 38.9999889,1.0047 C39.002549,0.4524 38.5637745,0.0026 38.0199342,0 Z" id="Shape"></path>
            <path d="M38.7069,66.293 C38.521,66.107 38.263,66 38,66 C37.737,66 37.479,66.107 37.293,66.293 C37.107,66.479 37,66.737 37,67 C37,67.263 37.1069,67.521 37.293,67.707 C37.4791,67.893 37.737,68 38,68 C38.263,68 38.521,67.893 38.7069,67.707 C38.8929,67.521 39,67.263 39,67 C39,66.737 38.893,66.479 38.7069,66.293 Z" id="Shape"></path>
        </g>
    </g>
</svg>