<?xml version="1.0" encoding="UTF-8"?>
<svg width="29px" height="29px" viewBox="0 0 29 29" version="1.1" xmlns="http://www.w3.org/2000/svg" xmlns:xlink="http://www.w3.org/1999/xlink">
    <!-- Generator: Sketch 49.1 (51147) - http://www.bohemiancoding.com/sketch -->
    <title>instagram (2) copy</title>
    <desc>Created with Sketch.</desc>
    <defs></defs>
    <g id="home" stroke="none" stroke-width="1" fill="none" fill-rule="evenodd">
        <g id="instagram-(2)-copy" fill="#020F3E" fill-rule="nonzero">
            <path d="M21.1499634,0 L7.85003662,0 C3.52145386,0 0,3.52145386 0,7.85003662 L0,21.1501846 C0,25.4785461 3.52145386,29 7.85003662,29 L21.1501846,29 C25.4785461,29 29,25.4785461 29,21.1501846 L29,7.85003662 C29,3.52145386 25.4785461,1.60982339e-15 21.1499634,0 Z M27.2998962,21.1501846 C27.2998962,24.5410996 24.5410996,27.2998962 21.1499634,27.2998962 L7.85003662,27.2998962 C4.45890044,27.2998962 1.70010376,24.5410996 1.70010376,21.1501846 L1.70010376,7.85003662 C1.70010376,4.45890044 4.45890044,1.70010376 7.85003662,1.70010376 L21.1501846,1.70010376 C24.5410996,1.70010376 27.2998962,4.45890044 27.2998962,7.85003662 L27.2998962,21.1501846 Z" id="Shape"></path>
            <path d="M15,7 C10.5887162,7 7,10.5887162 7,15 C7,19.4112838 10.5887162,23 15,23 C19.4112838,23 23,19.4112838 23,15 C23,10.5887162 19.4112838,7 15,7 Z M15,21.2847736 C11.5347247,21.2847736 8.71522643,18.4654985 8.71522643,15 C8.71522643,11.5347247 11.5347247,8.71522643 15,8.71522643 C18.4654985,8.71522643 21.2847736,11.5347247 21.2847736,15 C21.2847736,18.4654985 18.4654985,21.2847736 15,21.2847736 Z" id="Shape"></path>
            <path d="M22.499882,4 C21.121288,4 20,5.12152401 20,6.49988198 C20,7.87847599 21.121288,9 22.499882,9 C23.878476,9 25,7.87847599 25,6.49988198 C25,5.12128797 23.878476,4 22.499882,4 Z M22.499882,7.1858741 C22.1217129,7.1858741 21.8138899,6.87805106 21.8138899,6.49988198 C21.8138899,6.12147679 22.1217129,5.81388979 22.499882,5.81388979 C22.8782872,5.81388979 23.1861102,6.12147679 23.1861102,6.49988198 C23.1861102,6.87805106 22.8782872,7.1858741 22.499882,7.1858741 Z" id="Shape"></path>
        </g>
    </g>
</svg>