<?xml version="1.0" encoding="UTF-8"?>
<svg width="97px" height="97px" viewBox="0 0 97 97" version="1.1" xmlns="http://www.w3.org/2000/svg" xmlns:xlink="http://www.w3.org/1999/xlink">
    <!-- Generator: Sketch 49.1 (51147) - http://www.bohemiancoding.com/sketch -->
    <title>group_3_copy</title>
    <desc>Created with Sketch.</desc>
    <defs></defs>
    <g id="home_page" stroke="none" stroke-width="1" fill="none" fill-rule="evenodd">
        <g id="interview-wh" fill="#FFFFFF" fill-rule="nonzero">
            <g id="interview">
                <path d="M20.5,42 C26.29075,42 31,37.29075 31,31.5 C31,25.70925 26.29075,21 20.5,21 C14.70925,21 10,25.70925 10,31.5 C10,37.29075 14.70925,42 20.5,42 Z M20.5,24.5 C24.3605,24.5 27.5,27.6395 27.5,31.5 C27.5,35.3605 24.3605,38.5 20.5,38.5 C16.6395,38.5 13.5,35.3605 13.5,31.5 C13.5,27.6395 16.6395,24.5 20.5,24.5 Z" id="Shape"></path>
                <path d="M76.5,42 C82.29075,42 87,37.29075 87,31.5 C87,25.70925 82.29075,21 76.5,21 C70.70925,21 66,25.70925 66,31.5 C66,37.29075 70.70925,42 76.5,42 Z M76.5,24.5 C80.3605,24.5 83.5,27.6395 83.5,31.5 C83.5,35.3605 80.3605,38.5 76.5,38.5 C72.6395,38.5 69.5,35.3605 69.5,31.5 C69.5,27.6395 72.6395,24.5 76.5,24.5 Z" id="Shape"></path>
                <path d="M93.5357143,45 L93.5357143,67.5333333 C93.5357143,70.4002667 91.20425,72.7333333 88.3392857,72.7333333 L88.3392857,53.6666667 C88.3392857,48.8878667 84.4540893,45 79.6785714,45 L71.0178571,45 C70.0617143,45 69.2857143,45.7765333 69.2857143,46.7333333 L69.2857143,53.6666667 L69.2857143,55.4 L69.2857143,57.1333333 L55.4285714,57.1333333 C54.4724286,57.1333333 53.6964286,57.9098667 53.6964286,58.8666667 L53.6964286,64.0666667 L43.3035714,64.0666667 L43.3035714,58.8666667 C43.3035714,57.9098667 42.5275714,57.1333333 41.5714286,57.1333333 L27.7142857,57.1333333 L27.7142857,55.4 L27.7142857,53.6666667 L27.7142857,46.7333333 C27.7142857,45.7765333 26.9382857,45 25.9821429,45 L17.3214286,45 C12.5459107,45 8.66071429,48.8878667 8.66071429,53.6666667 L8.66071429,72.7333333 C5.79575,72.7333333 3.46428571,70.4002667 3.46428571,67.5333333 L3.46428571,45 L0,45 L0,67.5333333 C0,71.078 2.14266071,74.1234667 5.19642857,75.4650667 L5.19642857,97 L8.66071429,97 L8.66071429,76.2 L10.3928571,76.2 L12.125,76.2 L25.9821429,76.2 L25.9821429,95.2666667 C25.9821429,96.2234667 26.7581429,97 27.7142857,97 L32.9107143,97 L34.6428571,97 L36.375,97 L36.375,95.2666667 L36.375,69.2666667 L36.375,67.5333333 L41.5714286,67.5333333 L55.4285714,67.5333333 L60.625,67.5333333 L60.625,69.2666667 L60.625,95.2666667 L60.625,97 L62.3571429,97 L64.0892857,97 L69.2857143,97 C70.2418571,97 71.0178571,96.2234667 71.0178571,95.2666667 L71.0178571,76.2 L84.875,76.2 L86.6071429,76.2 L88.3392857,76.2 L88.3392857,97 L91.8035714,97 L91.8035714,75.4650667 C94.8573393,74.1234667 97,71.078 97,67.5333333 L97,45 L93.5357143,45 Z M34.6428571,64.0666667 L31.1785714,64.0666667 L20.7857143,64.0666667 L20.7857143,53.6666667 L17.3214286,53.6666667 L17.3214286,65.8 C17.3214286,66.7568 18.0974286,67.5333333 19.0535714,67.5333333 L31.1785714,67.5333333 C32.1329821,67.5333333 32.9107143,68.3116 32.9107143,69.2666667 L32.9107143,93.5333333 L29.4464286,93.5333333 L29.4464286,74.4666667 C29.4464286,73.5098667 28.6704286,72.7333333 27.7142857,72.7333333 L12.125,72.7333333 L12.125,53.6666667 C12.125,50.7997333 14.4564643,48.4666667 17.3214286,48.4666667 L24.25,48.4666667 L24.25,53.6666667 L24.25,55.4 L24.25,58.8666667 C24.25,59.8234667 25.026,60.6 25.9821429,60.6 L39.8392857,60.6 L39.8392857,64.0666667 L34.6428571,64.0666667 Z M69.2857143,72.7333333 C68.3295714,72.7333333 67.5535714,73.5098667 67.5535714,74.4666667 L67.5535714,93.5333333 L64.0892857,93.5333333 L64.0892857,69.2666667 C64.0892857,68.3116 64.8670179,67.5333333 65.8214286,67.5333333 L77.9464286,67.5333333 C78.9025714,67.5333333 79.6785714,66.7568 79.6785714,65.8 L79.6785714,53.6666667 L76.2142857,53.6666667 L76.2142857,64.0666667 L65.8214286,64.0666667 L62.3571429,64.0666667 L57.1607143,64.0666667 L57.1607143,60.6 L71.0178571,60.6 C71.974,60.6 72.75,59.8234667 72.75,58.8666667 L72.75,55.4 L72.75,53.6666667 L72.75,48.4666667 L79.6785714,48.4666667 C82.5435357,48.4666667 84.875,50.7997333 84.875,53.6666667 L84.875,72.7333333 L69.2857143,72.7333333 Z" id="Shape"></path>
                <path d="M33.1666667,17.1428571 L33.1666667,22.2857143 C33.1666667,23.0245714 33.6402778,23.6777143 34.3446667,23.9125714 C34.5237778,23.9708571 34.7080556,24 34.8888889,24 C35.4210556,24 35.9342778,23.7531429 36.2666667,23.3142857 L40.9166667,17.1428571 L53.8333333,17.1428571 C56.6818889,17.1428571 59,14.8354286 59,12 L59,5.14285714 C59,2.30742857 56.6818889,0 53.8333333,0 L33.1666667,0 C30.3181111,0 28,2.30742857 28,5.14285714 L28,12 C28,14.8354286 30.3181111,17.1428571 33.1666667,17.1428571 Z M31.4444444,5.14285714 C31.4444444,4.19828571 32.2177222,3.42857143 33.1666667,3.42857143 L53.8333333,3.42857143 C54.7822778,3.42857143 55.5555556,4.19828571 55.5555556,5.14285714 L55.5555556,12 C55.5555556,12.9445714 54.7822778,13.7142857 53.8333333,13.7142857 L40.0555556,13.7142857 C39.5130556,13.7142857 39.0032778,13.968 38.6777778,14.4 L36.6111111,17.1428571 L36.6111111,15.4285714 C36.6111111,14.4822857 35.8395556,13.7142857 34.8888889,13.7142857 L33.1666667,13.7142857 C32.2177222,13.7142857 31.4444444,12.9445714 31.4444444,12 L31.4444444,5.14285714 Z" id="Shape"></path>
                <rect id="Rectangle-path" x="34" y="7" width="18" height="3"></rect>
                <rect id="Rectangle-path" x="47" y="43" width="10" height="3"></rect>
                <path d="M45.2499009,36 C42.3554555,36 40,38.4228 40,41.4 L40,48.6 C40,51.5772 42.3554555,54 45.2499009,54 L59.2496366,54 C62.144082,54 64.4995375,51.5772 64.4995375,48.6 L64.4995375,47.3454 L67.705477,42.399 C68.0642202,41.8464 68.0974696,41.1372 67.7929754,40.5522 C67.4884811,39.9654 66.8952423,39.6 66.2495045,39.6 L64.2002932,39.6 C63.4775568,37.5048 61.5315936,36 59.2496366,36 L45.2499009,36 Z M60.9996036,41.4 C60.9996036,42.3936 61.7835888,43.2 62.7495706,43.2 L62.9788162,43.2 L61.293598,45.801 C61.1028516,46.0962 60.9996036,46.4454 60.9996036,46.8 L60.9996036,48.6 C60.9996036,49.5918 60.2138684,50.4 59.2496366,50.4 L45.2499009,50.4 C44.2856691,50.4 43.4999339,49.5918 43.4999339,48.6 L43.4999339,41.4 C43.4999339,40.4082 44.2856691,39.6 45.2499009,39.6 L59.2496366,39.6 C60.2138684,39.6 60.9996036,40.4082 60.9996036,41.4 Z" id="Shape"></path>
                <rect id="Rectangle-path" x="40" y="28" width="3" height="3"></rect>
                <rect id="Rectangle-path" x="47" y="28" width="3" height="3"></rect>
                <rect id="Rectangle-path" x="54" y="28" width="3" height="3"></rect>
            </g>
        </g>
    </g>
</svg>