<?xml version="1.0" encoding="UTF-8"?>
<svg width="29px" height="33px" viewBox="0 0 29 33" version="1.1" xmlns="http://www.w3.org/2000/svg" xmlns:xlink="http://www.w3.org/1999/xlink">
    <!-- Generator: Sketch 53.2 (72643) - https://sketchapp.com -->
    <title>linkedin (1) copy</title>
    <desc>Created with Sketch.</desc>
    <g id="home_page" stroke="none" stroke-width="1" fill="none" fill-rule="evenodd">
        <g id="13_contuct-us" transform="translate(-356.000000, -864.000000)" fill="#020F3E" fill-rule="nonzero">
            <g id="Group-17-Copy" transform="translate(238.000000, 862.000000)">
                <g id="linkedin-(1)-copy" transform="translate(118.000000, 2.000000)">
                    <path d="M6.84397823,10 L1.15627916,10 C0.518678223,10 0,10.5023522 0,11.1198838 L0,31.8803655 C0,32.4976478 0.518678223,33 1.15627916,33 L6.84397823,33 C7.48132178,33 8,32.4976478 8,31.8803655 L8,11.1198838 C8,10.5023522 7.48132178,10 6.84397823,10 Z M6.02027091,31.0825854 L1.97972909,31.0825854 L1.97972909,11.9174146 L6.02027091,11.9174146 L6.02027091,31.0825854 Z" id="Shape"></path>
                    <path d="M4.00012764,0 C1.79428753,0 0,1.79428753 0,3.99987236 C0,6.20571247 1.79428753,8 4.00012764,8 C6.20545711,8 8,6.20571247 8,3.99987236 C8,1.79428753 6.20571247,0 4.00012764,0 Z M4.00012764,6.03644486 C2.87703843,6.03644486 1.96355514,5.1229615 1.96355514,3.99987236 C1.96355514,2.87703843 2.87703843,1.96355514 4.00012764,1.96355514 C5.1229615,1.96355514 6.03644486,2.87703843 6.03644486,3.99987236 C6.03644486,5.12270621 5.1229615,6.03644486 4.00012764,6.03644486 Z" id="Shape"></path>
                    <path d="M25.4915458,12.4337543 C24.1771508,11.334551 22.5061622,10.7466804 20.7881419,10.778592 C19.721098,10.7982874 18.6784409,11.0560728 17.7335795,11.5227793 L17.7335795,11.0695356 C17.7335795,10.4789225 17.2555499,10 16.6660379,10 L11.0675415,10 C10.4780297,10 10,10.4789225 10,11.0695356 L10,31.9304645 C10,32.5213268 10.4780297,33 11.0675415,33 L16.7765248,33 C17.3050698,33 17.7335795,32.57069 17.7335795,32.041407 L17.7335795,19.6036312 C17.7335795,18.5388326 18.5652168,17.6378299 19.6272838,17.6061677 C20.7311565,17.5735082 21.6394379,18.463292 21.6394379,19.5619967 L21.6394379,32.0613517 C21.6394379,32.579665 22.0589891,33 22.5763362,33 L28.0631016,33 C28.5804487,33 29,32.579665 29,32.0613517 L29,19.9421928 C29,17.0352501 27.7211897,14.2983361 25.4915458,12.4337543 L25.4915458,12.4337543 Z M27.0861394,31.0825646 L23.5535473,31.0825646 L23.5535473,19.5619967 C23.5535473,17.4259173 21.8188545,15.6879844 19.6865087,15.6879844 C17.5544117,15.6879844 15.8197189,17.4259173 15.8197189,19.5619967 L15.8197189,31.0825646 L11.9138606,31.0825646 L11.9138606,11.9171861 L15.8197189,11.9171861 L15.8197189,13.310574 L15.8209632,13.310574 C15.8207143,13.5364479 15.8991002,13.7633191 16.0603512,13.9460625 C16.410475,14.3424639 17.0154152,14.3793616 17.4110775,14.0283345 C18.3539481,13.1921522 19.5658193,12.7189638 20.8234778,12.6955287 C22.0823805,12.671595 23.3042055,13.1019024 24.2652417,13.9056745 C26.058164,15.4050187 27.0861394,17.6051704 27.0861394,19.9421928 L27.0861394,31.0825646 Z" id="Shape"></path>
                </g>
            </g>
        </g>
    </g>
</svg>