<svg  viewBox="0 0 436 613" preserveAspectRatio="none" version="1.1" xmlns="http://www.w3.org/2000/svg" xmlns:xlink="http://www.w3.org/1999/xlink">
    <g id="logo">
        <path d="M23.8935196,552.983871 L39.2359102,552.983871 L63.4181818,610.048387 L46.4458923,610.048387 L42.4088404,599.928309 L20.4658561,599.928309 L16.5873148,610.048387 L0,610.048387 L23.8935196,552.983871 Z M31.4924544,571.938256 L25.2723027,587.558232 L37.7903124,587.558232 L31.4924544,571.938256 Z" id="Combined-Shape" fill="#6B6B6B"></path>
        <path d="M69.3636364,552.983871 L115.936364,552.983871 L115.936364,567.471818 L69.3636364,567.471818 L69.3636364,552.983871 Z M69.3636364,573.78022 L115.936364,573.78022 L115.936364,588.268167 L69.3636364,588.268167 L69.3636364,573.78022 Z M69.3636364,594.576569 L115.936364,594.576569 L115.936364,609.064516 L69.3636364,609.064516 L69.3636364,594.576569 Z" id="Combined-Shape" fill="#6B6B6B"></path>
        <path d="M178.04094,597.542 L183.318182,602.155751 L175.592628,611.032258 L169.629757,605.827152 C164.731046,609.05152 158.809581,610.936813 152.431624,610.936813 C135.559432,610.936813 121.881818,597.743358 121.881818,581.468406 C121.881818,565.193455 135.559432,552 152.431624,552 C169.303815,552 182.981429,565.193455 182.981429,581.468406 C182.981429,587.398427 181.165565,592.919343 178.04094,597.542 Z M165.611421,586.675204 C166.346045,584.926643 166.751845,583.007063 166.751845,580.99311 C166.751845,572.855634 160.126751,566.258906 151.954283,566.258906 C143.781815,566.258906 137.156721,572.855634 137.156721,580.99311 C137.156721,589.130585 143.781815,595.727313 151.954283,595.727313 C153.740199,595.727313 155.45222,595.412289 157.037357,594.835003 L150.095928,588.775695 L157.926404,579.9564 L165.611421,586.675204 Z" id="Combined-Shape" fill="#6B6B6B"></path>
        <path d="M206.038216,554.951613 L206.038216,588.066002 C206.038216,593.804035 210.622645,598.490755 216.359281,598.617359 C221.935037,598.740412 226.554835,594.320123 226.677888,588.744367 C226.679527,588.670109 226.680346,588.595835 226.680346,588.521559 L226.680346,554.951613 L242.772727,554.951613 C242.743175,571.696664 242.743175,583.089784 242.772727,589.130973 C242.772727,606.565838 229.231168,613.400412 215.115712,612.981974 C201.000256,612.563537 190.254545,604.401953 190.254545,589.130973 C190.254545,582.524055 190.254545,571.130935 190.254545,554.951613 L206.038216,554.951613 Z" id="Combined-Shape" fill="#6B6B6B"></path>
        <path d="M270.629883,553.967742 L285.972274,553.967742 L310.154545,611.032258 L293.182256,611.032258 L289.145204,600.91218 L267.20222,600.91218 L263.323678,611.032258 L246.736364,611.032258 L270.629883,553.967742 Z M278.228818,572.922127 L272.008666,588.542102 L284.526676,588.542102 L278.228818,572.922127 Z" id="Combined-Shape-Copy-2" fill="#6B6B6B"></path>
        <polygon id="Combined-Shape" fill="#6B6B6B" points="364.654545 554.951613 364.654545 611.032258 380.509091 611.032258 380.509091 554.951613"></polygon>
        <path d="M329.934292,554.951613 L329.934292,597.436481 L357.718182,597.436481 L357.718182,611.032258 L314.118182,611.032258 L314.118182,554.951613 L329.934292,554.951613 Z" id="Combined-Shape-Copy" fill="#6B6B6B"></path>
        <path d="M395.230516,592.050973 L386.454545,602.605302 C400.655572,616.101596 436.337851,616.842237 435.996336,593.137232 C436.208652,582.681687 427.15608,578.741345 418.70835,576.425553 C415.217387,575.468569 409.894221,574.63678 407.020536,573.025289 C405.518152,572.18279 405.076771,571.237584 405.076771,569.713069 C405.076771,562.701549 421.831353,567.523528 426.512074,571.806474 L434.488768,560.693698 C427.362935,555.084346 419.198698,552.535844 409.996059,553.048191 C392.394748,553.059464 389.062272,565.897563 389.062272,571.310039 C389.045576,574.700022 389.685154,579.290296 394.072946,582.73064 C396.719331,584.837635 401.550277,586.9073 406.593554,588.375139 C410.037984,589.377636 413.549672,589.994151 416.082153,590.940181 C418.953816,592.012915 420.052837,593.904532 420.086044,594.574224 C420.314578,599.183161 413.438475,600.109057 404.043453,597.063345 C402.033897,596.41188 399.096252,594.741089 395.230516,592.050973 Z" id="Path-24" fill="#6B6B6B"></path>
        <polygon id="Shape" fill="#00CBFF" points="327.131973 189.082367 109.436735 63.3608284 218.269388 0.515029586 435.994558 126.236568"></polygon>
        <polygon id="Shape" fill="#3345AF" points="109.436735 314.833846 435.994558 126.236568 435.994558 251.958107 218.269388 377.679645"></polygon>
        <polygon id="Shape" fill="#486BFF" points="109.436735 440.555385 435.994558 251.958107 435.994558 377.679645 218.269388 503.431124"></polygon>
        <polygon id="Shape" fill="#0090E8" points="0.57414966 126.236568 109.436735 63.3608284 218.269388 126.236568 109.436735 189.082367"></polygon>
        <polygon id="Shape" fill="#00CBFF" points="0.57414966 251.958107 109.436735 314.833846 218.269388 251.958107 109.436735 189.082367"></polygon>
        <polygon id="Shape" fill="#0090E8" points="0.57414966 377.679645 109.436735 314.833846 218.269388 377.679645 109.436735 440.555385"></polygon>
        <polygon id="Shape" fill="#0090E8" points="0.57414966 377.679645 109.436735 314.833846 0.57414966 251.958107"></polygon>
        <polygon id="Shape" fill="#00CBFF" points="0.57414966 126.236568 109.436735 189.082367 0.57414966 251.958107"></polygon>
    </g>
</svg>
