<?xml version="1.0" encoding="UTF-8"?>
<svg width="70px" height="71px" viewBox="0 0 70 71" version="1.1" xmlns="http://www.w3.org/2000/svg" xmlns:xlink="http://www.w3.org/1999/xlink">
    <!-- Generator: Sketch 49.1 (51147) - http://www.bohemiancoding.com/sketch -->
    <title>management copy</title>
    <desc>Created with Sketch.</desc>
    <defs></defs>
    <g id="home_page" stroke="none" stroke-width="1" fill="none" fill-rule="evenodd">
        <g id="management" fill="#06D0FB" fill-rule="nonzero">
            <path d="M1.16666667,71 L68.8333333,71 C69.4770509,71 70,70.4742686 70,69.8271266 L70,36.9866716 C70,35.0463908 68.4294434,33.4680514 66.5,33.4680514 L65.2957356,33.4680514 C65.2723795,32.8535529 65.2364908,32.2373362 65.1766764,31.6251284 L68.8447266,29.6338779 C69.2884929,29.3933472 69.5271811,28.8933871 69.4388835,28.3939996 C69.094808,26.468036 68.5917969,24.5707072 67.9440918,22.7524098 C67.773763,22.2753573 67.3094889,21.9477774 66.8138835,21.9758393 L62.6473795,22.0920959 C61.8225097,20.2566178 60.8136394,18.5007437 59.6389974,16.859981 L61.8190918,13.2944001 C62.082845,12.8614447 62.0406901,12.3082243 61.7154134,11.9222297 C61.0306804,11.1095798 60.3863932,10.402305 59.7495116,9.76203531 C59.1126302,9.12119283 58.4090983,8.4740507 57.6007488,7.78452943 C57.2167969,7.45580424 56.6659342,7.41628853 56.2358398,7.67972674 L52.6891276,9.87199219 C51.0553385,8.68995573 49.3104655,7.6751452 47.4841309,6.84703252 L47.5997721,2.65893533 C47.6140137,2.15095741 47.3024089,1.69223109 46.8261719,1.52214143 C45.020345,0.871563221 43.1313477,0.365876219 41.2161458,0.0199701991 C40.7165528,-0.0682244554 40.2220866,0.170015452 39.9828288,0.616715279 L38.0015462,4.30427966 C36.0065918,4.10612812 33.9968262,4.10612812 32.0013021,4.30427966 L30.0194498,0.615569969 C29.7790528,0.170015452 29.2834472,-0.0716605346 28.7861328,0.0188247417 C26.8703613,0.364730762 24.9830729,0.87041791 23.1743978,1.52099612 C22.6998698,1.69223109 22.3882649,2.15095741 22.4025064,2.65778987 L22.5175781,6.84588706 C20.6906738,7.6751452 18.9463705,8.68995573 17.313151,9.87084673 L13.7652995,7.67858143 C13.3363444,7.41457041 12.786621,7.45465879 12.4003906,7.78338412 C11.592041,8.47175993 10.8885092,9.11890206 10.2516276,9.75917174 C9.6141764,10.4000142 8.97045902,11.107289 8.28458662,11.9199391 C7.95760087,12.3070788 7.91715502,12.8602994 8.18033854,13.2921092 L10.3610026,16.8576902 C9.18522135,18.4995984 8.17578125,20.254327 7.35205085,22.0898051 L3.1861165,21.9735486 C2.68424479,21.9500682 2.22566735,22.2730666 2.05533854,22.750119 C1.40934252,24.5644075 0.906331417,26.4623092 0.5611165,28.3917088 C0.472249312,28.889951 0.711507125,29.3910565 1.15470381,29.6315871 L4.82275398,31.6228375 C4.76236979,32.2373362 4.72705085,32.8518348 4.70369462,33.4680514 L3.5,33.4680514 C1.56998698,33.4680514 0,35.0463908 0,36.9866716 L0,69.8271266 C0,70.4742686 0.522379521,71 1.16666667,71 Z M46.6666667,33.4680514 L44.3333333,33.4680514 L44.3333333,26.4308111 C44.3333333,25.7830963 43.8103842,25.2579377 43.1666667,25.2579377 L26.8333333,25.2579377 C26.1890462,25.2579377 25.6666667,25.7830963 25.6666667,26.4308111 L25.6666667,33.4680514 L23.3333333,33.4680514 L23.3333333,26.4308111 C23.3333333,24.4905303 24.9033203,22.9121909 26.8333333,22.9121909 L43.1666667,22.9121909 C45.0961101,22.9121909 46.6666667,24.4905303 46.6666667,26.4308111 L46.6666667,33.4680514 Z M42,33.4680514 L28,33.4680514 L28,27.6036845 L42,27.6036845 L42,33.4680514 Z M21,35.8137982 L49,35.8137982 L49,45.1967854 C48.3557129,45.1967854 47.8333333,45.721944 47.8333333,46.3696588 L47.8333333,49.8882789 L22.1666667,49.8882789 L22.1666667,46.3696588 C22.1666667,45.721944 21.6437175,45.1967854 21,45.1967854 L21,35.8137982 Z M54.8333333,47.5425322 L54.8333333,54.5797725 L50.1666667,54.5797725 L50.1666667,47.5425322 L54.8333333,47.5425322 Z M32.6666667,52.2340257 L37.3333333,52.2340257 L37.3333333,54.5797725 L32.6666667,54.5797725 L32.6666667,52.2340257 Z M19.8333333,47.5425322 L19.8333333,54.5797725 L15.1666667,54.5797725 L15.1666667,47.5425322 L19.8333333,47.5425322 Z M21,56.9255193 C21.6437175,56.9255193 22.1666667,56.3997879 22.1666667,55.7526459 L22.1666667,52.2340257 L30.3333333,52.2340257 L30.3333333,55.7526459 C30.3333333,56.3997879 30.8557129,56.9255193 31.5,56.9255193 L38.5,56.9255193 C39.1437175,56.9255193 39.6666667,56.3997879 39.6666667,55.7526459 L39.6666667,52.2340257 L47.8333333,52.2340257 L47.8333333,55.7526459 C47.8333333,56.3997879 48.3557129,56.9255193 49,56.9255193 L49,68.6542532 L21,68.6542532 L21,56.9255193 Z M18.6666667,68.6542532 L16.3333333,68.6542532 L16.3333333,56.9255193 L18.6666667,56.9255193 L18.6666667,68.6542532 Z M51.3333333,56.9255193 L53.6666667,56.9255193 L53.6666667,68.6542532 L51.3333333,68.6542532 L51.3333333,56.9255193 Z M56,56.9255193 C56.6437175,56.9255193 57.1666667,56.3997879 57.1666667,55.7526459 L57.1666667,52.2340257 L64.1666667,52.2340257 C64.4759929,52.2340257 64.7733561,52.1108969 64.9915365,51.8904105 L67.6666667,49.2010484 L67.6666667,59.3405618 C62.8085938,59.8834739 58.9423014,63.7703351 58.4022623,68.6542532 L56,68.6542532 L56,56.9255193 Z M51.3333333,45.1967854 L51.3333333,35.8137982 L53.6666667,35.8137982 L53.6666667,45.1967854 L51.3333333,45.1967854 Z M49,33.4680514 L49,26.4308111 C49,23.1968188 46.3829752,20.5664441 43.1666667,20.5664441 L26.8333333,20.5664441 C23.6170248,20.5664441 21,23.1968188 21,26.4308111 L21,33.4680514 L12.8925781,33.4680514 C13.5049642,21.7261456 23.1709799,12.3563304 35,12.3563304 C46.8290201,12.3563304 56.4944661,21.7261456 57.1068522,33.4680514 L49,33.4680514 Z M18.6666667,35.8137982 L18.6666667,45.1967854 L16.3333333,45.1967854 L16.3333333,35.8137982 L18.6666667,35.8137982 Z M14,56.9255193 L14,68.6542532 L11.5977377,68.6542532 C11.0576986,63.7703351 7.19140625,59.8834739 2.33333333,59.3405618 L2.33333333,49.2010484 L5.00846354,51.8904105 C5.22664392,52.1108969 5.52400713,52.2340257 5.83333333,52.2340257 L12.8333333,52.2340257 L12.8333333,55.7526459 C12.8333333,56.3997879 13.3557129,56.9255193 14,56.9255193 Z M2.33333333,61.7109344 C5.90226233,62.2269299 8.72664392,65.0663373 9.23990885,68.6542532 L2.33333333,68.6542532 L2.33333333,61.7109344 Z M60.7600911,68.6542532 C61.2744955,65.0663373 64.0977377,62.2269299 67.6666667,61.7109344 L67.6666667,68.6542532 L60.7600911,68.6542532 Z M67.6666667,36.9866716 L67.6666667,45.8840159 L63.6835938,49.8882789 L57.1666667,49.8882789 L57.1666667,46.3696588 C57.1666667,45.721944 56.6437175,45.1967854 56,45.1967854 L56,35.8137982 L66.5,35.8137982 C67.1425781,35.8137982 67.6666667,36.3401023 67.6666667,36.9866716 Z M6.62402344,29.9362593 L3.01692708,27.9776524 C3.26985677,26.7423556 3.59228523,25.5265303 3.97851563,24.3439211 L8.07438144,24.4590322 C8.54321285,24.4722042 8.99609375,24.1870034 9.18294271,23.7403037 C10.0881347,21.5703733 11.2701823,19.5144088 12.6954752,17.6308244 C12.9871419,17.24483 13.0127767,16.7190986 12.7609863,16.3061877 L10.6167806,12.7973032 C11.0576986,12.2961978 11.4820964,11.8414802 11.9025064,11.4188335 C12.3212076,10.9967593 12.7735189,10.5701037 13.2719727,10.1262673 L16.7628581,12.2835985 C17.1730144,12.5378737 17.6959635,12.5109573 18.0799154,12.217739 C19.9523925,10.7842906 21.9974772,9.59652719 24.1570637,8.68480139 C24.6013998,8.49753119 24.8862304,8.05541275 24.8719889,7.57091532 L24.7586262,3.45383195 C25.9372559,3.06440133 27.1472168,2.74083019 28.3731283,2.48655505 L30.3213705,6.11284119 C30.5515137,6.5389241 31.0249023,6.78002758 31.4931641,6.71932215 C33.8213705,6.42495849 36.1803385,6.4261038 38.5068359,6.71932215 C38.979655,6.77544605 39.4496257,6.5389241 39.6780599,6.11284119 L41.6263021,2.48655505 C42.8527832,2.74083019 44.0627441,3.06440133 45.240804,3.45268649 L45.1280111,7.57091532 C45.1137696,8.05541275 45.3986002,8.49753119 45.8429363,8.68480139 C48.0013835,9.59538188 50.0464681,10.7831452 51.9200846,12.2165935 C52.3040365,12.5109573 52.826416,12.535583 53.2371419,12.2824531 L56.726888,10.125122 C57.2247721,10.5689584 57.677653,10.995614 58.0974936,11.417688 C58.517334,11.8391894 58.9423014,12.293907 59.3832194,12.7950126 L57.2378743,16.3027516 C56.9855144,16.7156625 57.0111491,17.2425393 57.3028158,17.6268157 C58.7286783,19.5103999 59.9107259,21.5669372 60.8170573,23.7362949 C61.0039062,24.1835673 61.4379884,24.4722042 61.9256186,24.4555961 L66.0214844,24.3416304 C66.4088542,25.5265303 66.7307129,26.7423556 66.9842123,27.9753616 L63.3765462,29.9328232 C62.9532877,30.1624727 62.71403,30.6309349 62.7738444,31.1102782 C62.8706868,31.8891394 62.9356283,32.6771637 62.9686686,33.4628973 L59.4413248,33.4628973 C58.8255208,20.4324343 48.1153158,10.0105836 35,10.0105836 C21.8841146,10.0105836 11.1744792,20.4324343 10.5592448,33.4680514 L7.03247067,33.4680514 C7.0655111,32.6805998 7.12931319,31.8937209 7.22729496,31.1148597 C7.28710938,30.634371 7.04785156,30.1676269 6.62402344,29.9362593 Z M3.5,35.8137982 L14,35.8137982 L14,45.1967854 C13.3557129,45.1967854 12.8333333,45.721944 12.8333333,46.3696588 L12.8333333,49.8882789 L6.31640625,49.8882789 L2.33333333,45.8840159 L2.33333333,36.9866716 C2.33333333,36.3401023 2.85685225,35.8137982 3.5,35.8137982 Z" id="Shape"></path>
            <polygon id="Shape" points="34 45 36 45 36 47 34 47"></polygon>
            <polygon id="Shape" points="39 45 41 45 41 47 39 47"></polygon>
            <polygon id="Shape" points="29 45 31 45 31 47 29 47"></polygon>
        </g>
    </g>
</svg>