<svg width="92px" height="92px" viewBox="0 0 92 92" version="1.1" xmlns="http://www.w3.org/2000/svg" xmlns:xlink="http://www.w3.org/1999/xlink">
    <g id="manufacturing-wh" fill="#FFFFFF" fill-rule="nonzero">
        <g id="manufacturing">
            <path d="M90,10 C89.4742188,10 88.9578124,10.2140624 88.5859376,10.5859376 C88.2140624,10.9578124 88,11.4742188 88,12 C88,12.5257812 88.2140624,13.0421876 88.5859376,13.4140624 C88.9578124,13.7859376 89.4742188,14 90,14 C90.5257812,14 91.0421876,13.7859376 91.4140624,13.4140624 C91.7859376,13.0421876 92,12.5257812 92,12 C92,11.4742188 91.7859376,10.9578124 91.4140624,10.5859376 C91.0421876,10.2140624 90.5257812,10 90,10 Z" id="Shape"></path>
            <path d="M83.9140625,75.828125 L83.2367249,75.828125 L83.2367249,69.4372864 C83.2367249,64.0501709 78.8540345,59.6674805 73.4669189,59.6674805 L69.0758057,59.6674805 L64.0143737,47.7463379 C63.2619323,45.9726257 61.9346314,44.5681152 60.3041077,43.7082825 L60.3041077,36.8970032 L63.7799378,27.7680358 C63.857849,27.5637818 63.8978577,27.3468933 63.8978577,27.128601 L63.8978577,13.65625 L82.9559632,13.65625 C83.9477539,13.65625 84.7528382,12.8518678 84.7528382,11.859375 C84.7528382,10.8668822 83.9477539,10.0625 82.9559632,10.0625 L65.6210326,10.0625 C65.9003906,9.27496347 66.0534057,8.4284668 66.0534057,7.546875 C66.0534057,6.6652832 65.9003906,5.81878653 65.6210326,5.03125 L90.203125,5.03125 C91.1956178,5.03125 92,4.22686777 92,3.234375 C92,2.24188223 91.1956178,1.4375 90.203125,1.4375 L63.1341858,1.4375 C63.0696106,1.4375 63.0064392,1.44100948 62.9439697,1.44802861 C61.6980896,0.538360641 60.1644287,0 58.5072327,0 C54.345642,0 50.9603577,3.38528447 50.9603577,7.546875 C50.9603577,9.62521358 51.8047486,11.5098268 53.1678467,12.8757324 C53.1355592,13.0111999 53.1166077,13.1515808 53.1166077,13.296875 L53.1166077,27.128601 C53.1166077,27.3468933 53.1559144,27.5637818 53.2338256,27.7680358 L56.7103577,36.8970032 L56.7103577,42.7698365 C56.6366576,42.7677308 56.5636596,42.765625 56.4899597,42.765625 L35.7528991,42.765625 C32.4658814,42.765625 29.5122682,44.7204284 28.2277832,47.7463379 L23.1670533,59.6674805 L21.1624146,59.6674805 C15.7752991,59.6674805 11.3926087,64.0501709 11.3926087,69.4372864 L11.3926087,75.828125 L8.0859375,75.828125 C3.62744141,75.828125 0,79.4555664 0,83.9140625 C0,88.3725586 3.62744141,92 8.0859375,92 L83.9140625,92 C88.3725586,92 92,88.3725586 92,83.9140625 C92,79.4555664 88.3725586,75.828125 83.9140625,75.828125 Z M58.5072327,15.09375 C59.1263122,15.09375 59.7278443,15.0172425 60.3041077,14.8754577 L60.3041077,24.4073181 L56.7103577,24.4073181 L56.7103577,14.8761596 C57.2866211,15.0172425 57.8874512,15.09375 58.5072327,15.09375 Z M59.8457643,28.0017701 L58.5072327,31.5169068 L57.1679993,28.0017701 L59.8457643,28.0017701 Z M58.5072327,3.59375 C60.6866455,3.59375 62.4603577,5.36676034 62.4603577,7.546875 C62.4603577,9.72698966 60.6866455,11.5 58.5072327,11.5 C56.3271179,11.5 54.5541077,9.72698966 54.5541077,7.546875 C54.5541077,5.36676034 56.3271179,3.59375 58.5072327,3.59375 Z M60.7062988,49.1501465 L65.171112,59.6674805 L47.9183044,59.6674805 L47.9183044,46.359375 L56.4899597,46.359375 C58.3317565,46.359375 59.986847,47.4550476 60.7062988,49.1501465 Z M31.5358581,49.1501465 C32.25531,47.4550476 33.9111022,46.359375 35.7528991,46.359375 L44.3245544,46.359375 L44.3245544,59.6674805 L27.0710449,59.6674805 L31.5358581,49.1501465 Z M14.9863587,69.4372864 C14.9863587,66.0316468 17.7567748,63.2612305 21.1624146,63.2612305 L73.4669189,63.2612305 C76.8725586,63.2612305 79.6429749,66.0316468 79.6429749,69.4372864 L79.6429749,75.828125 L75.9664001,75.828125 C75.1585084,72.6477966 72.2694701,70.2858887 68.8427734,70.2858887 C65.4167786,70.2858887 62.5277405,72.6477966 61.7198486,75.828125 L35.1471557,75.828125 C34.339264,72.6477966 31.449524,70.2858887 28.023529,70.2858887 C24.5975342,70.2858887 21.7077942,72.6477966 20.8999023,75.828125 L14.9863587,75.828125 L14.9863587,69.4372864 Z M72.1325989,75.828125 L65.5536498,75.828125 C66.1937865,74.6678772 67.4284362,73.8796387 68.8427734,73.8796387 C70.2578125,73.8796387 71.4924622,74.6678772 72.1325989,75.828125 Z M31.3126526,75.828125 L24.7337037,75.828125 C25.3738404,74.6678772 26.609192,73.8796387 28.023529,73.8796387 C29.4378662,73.8796387 30.6732178,74.6678772 31.3126526,75.828125 Z M83.9140625,88.40625 L8.0859375,88.40625 C5.60891728,88.40625 3.59375,86.3910827 3.59375,83.9140625 C3.59375,81.4370423 5.60891728,79.421875 8.0859375,79.421875 L83.9140625,79.421875 C86.3910827,79.421875 88.40625,81.4370423 88.40625,83.9140625 C88.40625,86.3910827 86.3910827,88.40625 83.9140625,88.40625 Z" id="Shape"></path>
            <path d="M12,82 C11.4742188,82 10.9578124,82.2140624 10.5859376,82.5859376 C10.2140624,82.9578124 10,83.4742188 10,84 C10,84.5257812 10.2140624,85.0421876 10.5859376,85.4140624 C10.9578124,85.7859376 11.4742188,86 12,86 C12.5257812,86 13.0421876,85.7859376 13.4140624,85.4140624 C13.7859376,85.0421876 14,84.5257812 14,84 C14,83.4742188 13.7859376,82.9578124 13.4140624,82.5859376 C13.0421876,82.2140624 12.5257812,82 12,82 Z" id="Shape"></path>
            <path d="M46,82 C45.4742188,82 44.9578124,82.2140624 44.5859376,82.5859376 C44.2140624,82.9578124 44,83.4742188 44,84 C44,84.5257812 44.2140624,85.0421876 44.5859376,85.4140624 C44.9578124,85.7859376 45.4742188,86 46,86 C46.5257812,86 47.0421876,85.7859376 47.4140624,85.4140624 C47.7859376,85.0421876 48,84.5257812 48,84 C48,83.4742188 47.7859376,82.9578124 47.4140624,82.5859376 C47.0421876,82.2140624 46.5257812,82 46,82 Z" id="Shape"></path>
            <path d="M34,82 C33.4742188,82 32.9578124,82.2140624 32.5859376,82.5859376 C32.2140624,82.9578124 32,83.4742188 32,84 C32,84.5257812 32.2140624,85.0421876 32.5859376,85.4140624 C32.9578124,85.7859376 33.4742188,86 34,86 C34.5257812,86 35.0421876,85.7859376 35.4140624,85.4140624 C35.7859376,85.0421876 36,84.5257812 36,84 C36,83.4742188 35.7859376,82.9578124 35.4140624,82.5859376 C35.0421876,82.2140624 34.5257812,82 34,82 Z" id="Shape"></path>
            <path d="M23,82 C22.4742188,82 21.9578124,82.2140624 21.5859376,82.5859376 C21.2140624,82.9578124 21,83.4742188 21,84 C21,84.5257812 21.2140624,85.0421876 21.5859376,85.4140624 C21.9578124,85.7859376 22.4742188,86 23,86 C23.5257812,86 24.0421876,85.7859376 24.4140624,85.4140624 C24.7859376,85.0421876 25,84.5257812 25,84 C25,83.4742188 24.7859376,82.9578124 24.4140624,82.5859376 C24.0421876,82.2140624 23.5257812,82 23,82 Z" id="Shape"></path>
            <path d="M80,82 C79.4742188,82 78.9578124,82.2140624 78.5859376,82.5859376 C78.2140624,82.9578124 78,83.4742188 78,84 C78,84.5257812 78.2140624,85.0421876 78.5859376,85.4140624 C78.9578124,85.7859376 79.4742188,86 80,86 C80.5257812,86 81.0421876,85.7859376 81.4140624,85.4140624 C81.7859376,85.0421876 82,84.5257812 82,84 C82,83.4742188 81.7859376,82.9578124 81.4140624,82.5859376 C81.0421876,82.2140624 80.5257812,82 80,82 Z" id="Shape"></path>
            <path d="M57,82 C56.4742188,82 55.9578124,82.2140624 55.5859376,82.5859376 C55.2140624,82.9578124 55,83.4742188 55,84 C55,84.5257812 55.2140624,85.0421876 55.5859376,85.4140624 C55.9578124,85.7859376 56.4742188,86 57,86 C57.5257812,86 58.0421876,85.7859376 58.4140624,85.4140624 C58.7859376,85.0421876 59,84.5257812 59,84 C59,83.4742188 58.7859376,82.9578124 58.4140624,82.5859376 C58.0421876,82.2140624 57.5257812,82 57,82 Z" id="Shape"></path>
            <path d="M69,82 C68.4742188,82 67.9578124,82.2140624 67.5859376,82.5859376 C67.2140624,82.9578124 67,83.4742188 67,84 C67,84.5257812 67.2140624,85.0421876 67.5859376,85.4140624 C67.9578124,85.7859376 68.4742188,86 69,86 C69.5257812,86 70.0421876,85.7859376 70.4140624,85.4140624 C70.7859376,85.0421876 71,84.528125 71,84 C71,83.471875 70.7859376,82.9578124 70.4140624,82.5859376 C70.0421876,82.2140624 69.5257812,82 69,82 Z" id="Shape"></path>
            <path d="M3.04016431,29.681463 L14.7625378,17.712172 C15.069337,18.6932148 15.6015396,19.6167164 16.3626244,20.3938786 C17.125796,21.1731718 18.0329756,21.7173273 18.9978974,22.029897 L0.522463007,40.895614 C-0.172531163,41.6052895 -0.172531163,42.7568249 0.522463007,43.4672107 C0.870307914,43.8224036 1.32598461,44 1.78235713,44 C2.238034,44 2.69371088,43.8224036 3.04155578,43.4672107 L22.4693895,23.6289756 L30.7543596,32.0889605 C31.7923288,33.1488564 33.1725774,33.7327935 34.6404828,33.7327935 C35.4927028,33.7327935 36.3150083,33.5345958 37.058005,33.1623536 L41.9598353,38.167022 C42.3076804,38.5222147 42.7633571,38.6998113 43.219034,38.6998113 C43.6747109,38.6998113 44.1303876,38.5222147 44.4782326,38.167022 C45.1739225,37.4566361 45.1739225,36.3051006 44.4782326,35.5954251 L39.5770978,30.5900465 C39.9416392,29.8306441 40.1357367,28.9909679 40.1357367,28.1207453 C40.1357367,26.6218311 39.5638798,25.2124256 38.5259104,24.1532404 L25.6006895,10.9542715 C25.5979067,10.95143 25.5951239,10.9492988 25.5916454,10.9464572 C24.3554046,9.69120538 22.7163594,9 20.9715693,9 C19.2212138,9 17.5752118,9.69617813 16.3368839,10.9606649 L0.521767361,27.1098662 C-0.173922454,27.8202521 -0.173922454,28.9717877 0.521767361,29.6821735 C1.21745718,30.3918488 2.3444745,30.3918488 3.04016431,29.681463 Z M36.5738049,28.1207453 C36.5738049,28.648562 36.3727506,29.1437009 36.0082091,29.5166535 L36.0082091,29.517364 C36.0075135,29.517364 36.0075135,29.517364 36.0075135,29.517364 C35.6422762,29.8903165 35.1566848,30.095618 34.6404828,30.095618 C34.1242811,30.095618 33.6386895,29.8903165 33.2734524,29.517364 L24.9884824,21.0573788 L25.6069506,20.4258459 C26.3555129,19.6614707 26.8988466,18.7443625 27.2126027,17.7441393 L36.0075135,26.7248372 C36.3727506,27.0977897 36.5738049,27.5936389 36.5738049,28.1207453 Z M23.087162,13.5315513 L23.0885535,13.532972 C23.6534536,14.1105158 23.964427,14.877022 23.964427,15.6932553 C23.964427,16.436319 23.7035433,17.1374699 23.2304742,17.6929915 C23.1817758,17.7327731 23.1351648,17.7761068 23.089945,17.8222818 C21.9295342,19.0072054 20.0414321,19.0064949 18.8810215,17.8222818 C17.7206109,16.6373582 17.7206109,14.709371 18.8810215,13.5244474 C18.9088491,13.4967425 18.9331983,13.4669062 18.9582431,13.4370699 C19.5106207,12.9227507 20.2195287,12.6371755 20.972265,12.6371755 C21.7709171,12.6371755 22.5215663,12.954718 23.087162,13.5315513 Z" id="Shape"></path>
        </g>
    </g>
</svg>
