<?xml version="1.0" encoding="UTF-8"?>
<svg width="96px" height="103px" viewBox="0 0 96 103" version="1.1" xmlns="http://www.w3.org/2000/svg" xmlns:xlink="http://www.w3.org/1999/xlink">
    <!-- Generator: Sketch 49.1 (51147) - http://www.bohemiancoding.com/sketch -->
    <title>group_5_copy_2</title>
    <desc>Created with Sketch.</desc>
    <defs></defs>
    <g id="home_page" stroke="none" stroke-width="1" fill="none" fill-rule="evenodd">
        <g id="medicine-wh" fill="#FFFFFF" fill-rule="nonzero">
            <g id="medicine">
                <path d="M22.368932,25.2818182 C21.3399612,25.2818182 20.5048544,26.1208 20.5048544,27.1545455 C20.5048544,28.1882909 21.3399612,29.0272727 22.368932,29.0272727 C23.3979029,29.0272727 24.2330097,28.1882909 24.2330097,27.1545455 C24.2330097,26.1208 23.3979029,25.2818182 22.368932,25.2818182 Z" id="Shape"></path>
                <path d="M40.8231984,63.4854545 L34.6718447,63.4854545 L34.6718447,57.3055576 C34.6718447,56.1679687 33.7535914,55.2454545 32.6212567,55.2454545 C31.488922,55.2454545 30.5708738,56.1679687 30.5708738,57.3055576 L30.5708738,63.4854545 L24.41952,63.4854545 C23.2871853,63.4854545 22.368932,64.4079687 22.368932,65.5453515 C22.368932,66.6827344 23.2871853,67.6054545 24.41952,67.6054545 L30.5708738,67.6054545 L30.5708738,73.7853515 C30.5708738,74.9229404 31.4891271,75.8454545 32.6212567,75.8454545 C33.7533863,75.8454545 34.6718447,74.9229404 34.6718447,73.7853515 L34.6718447,67.6054545 L40.8231984,67.6054545 C41.9555331,67.6054545 42.8737864,66.6829404 42.8737864,65.5453515 C42.8737864,64.4077627 41.9557382,63.4854545 40.8231984,63.4854545 Z" id="Shape"></path>
                <path d="M93.8585304,64.7740544 C89.4430284,57.0719964 79.679985,54.4360442 72.0309094,58.8839495 L63.9174121,63.6014248 L63.9174121,46.1324829 C63.9174121,43.9729052 63.2082951,41.8298235 61.9200991,40.0977356 L51.9331345,26.6874318 L51.9331345,20.9769732 C54.2578399,20.1465366 55.9279603,17.9107148 55.9279603,15.28804 L55.9279603,6.03474733 C55.9275608,2.70716697 53.2395079,0 49.935422,0 L13.9819901,0 C10.6779042,0 7.98965154,2.70716697 7.98965154,6.03474733 L7.98965154,15.2882411 C7.98965154,17.9105137 9.65977196,20.1467378 11.9844773,20.9771744 L11.9844773,26.687633 L1.99671376,40.0987414 C0.70911703,41.8300247 0,43.9729052 0,46.1324829 L0,85.0913857 C0,90.6374871 4.48022137,95.149365 9.98696455,95.149365 L42.0873941,95.149365 C46.5660175,102.709999 56.2231927,105.240336 63.7931668,100.838298 L88.0102125,86.7568859 C95.5917722,82.3476055 98.2962047,72.5181572 93.8585304,64.7740544 Z M11.9844773,6.03474733 C11.9844773,4.92548682 12.8805615,4.02303077 13.9817903,4.02303077 L49.9352223,4.02303077 C51.0366508,4.02303077 51.932735,4.92548682 51.932735,6.03474733 L51.932735,15.2882411 C51.932735,16.3975016 51.0366508,17.2997565 49.9352223,17.2997565 L13.9819901,17.2997565 C12.8805615,17.2997565 11.9846771,16.3973005 11.9846771,15.2882411 L11.9846771,6.03474733 L11.9844773,6.03474733 Z M5.19353318,42.5113931 L15.5798005,28.5649669 C15.8390777,28.2169399 15.9793031,27.7932724 15.9793031,27.357937 L15.9793031,21.3231896 L47.9379093,21.3231896 L47.9379093,25.3464216 L29.9612932,25.3464216 C28.8582666,25.3464216 27.9637804,26.2472683 27.9637804,27.3581381 C27.9637804,28.469008 28.8582666,29.3698547 29.9612932,29.3698547 L48.9366656,29.3698547 L58.7230799,42.5107896 C59.3626835,43.3707984 59.7599888,44.3997914 59.8800393,45.4627825 L4.03737279,45.4627825 C4.15722356,44.3995903 4.55452885,43.3705972 5.19353318,42.5113931 Z M9.9871643,91.126133 C6.68307845,91.126133 3.99502552,88.4189661 3.99502552,85.0913857 L3.99502552,83.0597532 L40.2848386,83.0597532 C39.6514273,85.6679437 39.6556221,88.4537688 40.380919,91.1263342 L9.9871643,91.1263342 L9.9871643,91.126133 Z M41.8514879,79.0564372 L3.99482577,79.0564372 L3.99482577,49.4856121 L59.9223866,49.4856121 L59.9223866,65.9239515 L47.813664,72.9653618 C45.2890076,74.4341161 43.2483485,76.5248931 41.8514879,79.0564372 Z M61.7960535,97.3540052 C56.0637912,100.687621 48.7389119,98.7161384 45.4266362,92.939092 C42.0985802,87.106321 44.1154688,79.7627509 49.8115762,76.4492526 L60.6534762,70.1449352 L72.6379536,91.0496878 L61.7960535,97.3540052 Z M86.0126997,83.272794 L76.0976457,89.0381724 L64.1129686,68.1330175 L74.0282224,62.3682425 C79.7642801,59.0332188 87.0865626,61.008121 90.3988383,66.7853686 C93.7256958,72.5915849 91.7026148,79.9637214 86.0126997,83.272794 Z" id="Shape"></path>
            </g>
        </g>
    </g>
</svg>