<?xml version="1.0" encoding="UTF-8"?>
<svg width="72px" height="70px" viewBox="0 0 72 70" version="1.1" xmlns="http://www.w3.org/2000/svg" xmlns:xlink="http://www.w3.org/1999/xlink">
    <!-- Generator: Sketch 49.1 (51147) - http://www.bohemiancoding.com/sketch -->
    <title>meeting (1) copy</title>
    <desc>Created with Sketch.</desc>
    <defs></defs>
    <g id="home_page" stroke="none" stroke-width="1" fill="none" fill-rule="evenodd">
        <g id="meeting-1" fill="#3E61FF" fill-rule="nonzero">
            <path d="M31.2,24.5714286 L23.2968,24.5714286 L16.4484,17.3697381 C16.2234,17.133131 15.9183,17 15.6,17 L1.2,17 C0.5373,17 0,17.5650179 0,18.2619048 L0,44.7619048 C0.0039,48.2447619 2.688,51.0673274 6,51.0714286 L13.2,51.0714286 C13.8627,51.0714286 14.4,51.6364464 14.4,52.3333333 L14.4,66.2142857 C14.4,68.3051042 16.01175,70 18,70 L20.4,70 C22.38825,70 24,68.3051042 24,66.2142857 L24,49.8095238 C23.99475,44.9333661 20.23695,40.9817113 15.6,40.9761905 L14.4,40.9761905 L14.4,30.1414762 L18.3516,34.2969286 C18.5766,34.5335357 18.8817,34.6666667 19.2,34.6666667 L31.2,34.6666667 C33.85095,34.6666667 36,32.406753 36,29.6190476 C36,26.8313423 33.85095,24.5714286 31.2,24.5714286 Z M31.2,32.1428571 L19.6968,32.1428571 L14.0484,26.2030714 C13.57965,25.7102976 12.8199,25.7104554 12.3513,26.2033869 C12.12645,26.439994 12,26.7606756 12,27.0952381 L12,42.2380952 C12,42.9349821 12.5373,43.5 13.2,43.5 L15.6,43.5 C18.912,43.5041012 21.5961,46.3266667 21.6,49.8095238 L21.6,66.2142857 C21.6,66.9111726 21.0627,67.4761905 20.4,67.4761905 L18,67.4761905 C17.3373,67.4761905 16.8,66.9111726 16.8,66.2142857 L16.8,52.3333333 C16.8,50.2425149 15.18825,48.547619 13.2,48.547619 L6,48.547619 C4.01175,48.547619 2.4,46.8527232 2.4,44.7619048 L2.4,19.5238095 L15.1032,19.5238095 L21.9516,26.7255 C22.1766,26.9621071 22.4817,27.0952381 22.8,27.0952381 L31.2,27.0952381 C32.52555,27.0952381 33.6,28.2251161 33.6,29.6190476 C33.6,31.0129792 32.52555,32.1428571 31.2,32.1428571 Z" id="Shape"></path>
            <path d="M70.8,17 L56.4,17 C56.0817,17 55.7766,17.133131 55.5516,17.3697381 L48.7032,24.5714286 L40.8,24.5714286 C38.14905,24.5714286 36,26.8313423 36,29.6190476 C36,32.406753 38.14905,34.6666667 40.8,34.6666667 L52.8,34.6666667 C53.1183,34.6666667 53.4234,34.5335357 53.6484,34.2969286 L57.6,30.1414762 L57.6,40.9761905 L56.4,40.9761905 C51.76305,40.9817113 48.00525,44.9333661 48,49.8095238 L48,66.2142857 C48,68.3051042 49.61175,70 51.6,70 L54,70 C55.98825,70 57.6,68.3051042 57.6,66.2142857 L57.6,52.3333333 C57.6,51.6364464 58.1373,51.0714286 58.8,51.0714286 L66,51.0714286 C69.312,51.0673274 71.9961,48.2447619 72,44.7619048 L72,18.2619048 C72,17.5650179 71.4627,17 70.8,17 Z M69.6,44.7619048 C69.6,46.8527232 67.98825,48.547619 66,48.547619 L58.8,48.547619 C56.81175,48.547619 55.2,50.2425149 55.2,52.3333333 L55.2,66.2142857 C55.2,66.9111726 54.6627,67.4761905 54,67.4761905 L51.6,67.4761905 C50.9373,67.4761905 50.4,66.9111726 50.4,66.2142857 L50.4,49.8095238 C50.4039,46.3266667 53.088,43.5041012 56.4,43.5 L58.8,43.5 C59.4627,43.5 60,42.9349821 60,42.2380952 L60,27.0952381 C59.99985,26.3983512 59.46255,25.8334911 58.7997,25.8336488 C58.48155,25.8336488 58.1766,25.966622 57.9516,26.2030714 L52.3032,32.1428571 L40.8,32.1428571 C39.47445,32.1428571 38.4,31.0129792 38.4,29.6190476 C38.4,28.2251161 39.47445,27.0952381 40.8,27.0952381 L49.2,27.0952381 C49.5183,27.0952381 49.8234,26.9621071 50.0484,26.7255 L56.8968,19.5238095 L69.6,19.5238095 L69.6,44.7619048 Z" id="Shape"></path>
            <path d="M51.7692308,38 L22.2307692,38 C21.5510769,38 21,38.5510769 21,39.2307692 C21,39.9104615 21.5510769,40.4615385 22.2307692,40.4615385 L35.7692308,40.4615385 L35.7692308,67.5384615 L32.0769231,67.5384615 C31.3972308,67.5384615 30.8461538,68.0895385 30.8461538,68.7692308 C30.8461538,69.4489231 31.3972308,70 32.0769231,70 L41.9230769,70 C42.6027692,70 43.1538462,69.4489231 43.1538462,68.7692308 C43.1538462,68.0895385 42.6027692,67.5384615 41.9230769,67.5384615 L38.2307692,67.5384615 L38.2307692,40.4615385 L51.7692308,40.4615385 C52.4489231,40.4615385 53,39.9104615 53,39.2307692 C53,38.5510769 52.4489231,38 51.7692308,38 Z" id="Shape"></path>
            <path d="M64.5,0 L58.25,0 C57.5596875,0 57,0.5596875 57,1.25 L57,7.5 C57,11.6421875 60.3578125,15 64.5,15 C68.6421875,15 72,11.6421875 72,7.5 C71.9959375,3.35953125 68.6404687,0.0040625 64.5,0 Z M62.0517187,11.8654688 C60.47125,10.981875 59.494375,9.310625 59.5,7.5 L59.4999758,6.29 C62.9278125,6.454375 66.206875,7.73921875 68.83375,9.9475 C67.4904687,12.35 64.4540625,13.2085938 62.0517187,11.8654688 Z M59.5,3.79 L59.5,2.5 L64.5,2.5 C67.1746875,2.5090625 69.3684375,4.62140625 69.47875,7.29375 C66.5748437,5.15984375 63.100625,3.94 59.5,3.79 Z" id="Shape"></path>
            <path d="M13.75,0 L7.5,0 C3.3578125,0 0,3.3578125 0,7.5 C0,11.6421875 3.3578125,15 7.5,15 C11.6404688,14.9959375 14.9959375,11.6404688 15,7.5 L15,1.25 C15,0.5596875 14.4403125,0 13.75,0 Z M12.5,7.5 C12.5,10.2614062 10.2614062,12.5 7.5,12.5 C5.700625,12.4934375 4.04453125,11.5179687 3.16625,9.9475 C5.793125,7.73921875 9.0721875,6.454375 12.5,6.29 L12.5,7.5 Z M12.5,3.79 C8.89984375,3.93890625 5.425625,5.15734375 2.52125,7.29 C2.6334375,4.6190625 4.82671875,2.5090625 7.5,2.5 L12.5,2.5 L12.5,3.79 Z" id="Shape"></path>
        </g>
    </g>
</svg>