<?xml version="1.0" encoding="UTF-8"?>
<svg width="73px" height="73px" viewBox="0 0 73 73" version="1.1" xmlns="http://www.w3.org/2000/svg" xmlns:xlink="http://www.w3.org/1999/xlink">
    <!-- Generator: Sketch 49.1 (51147) - http://www.bohemiancoding.com/sketch -->
    <title>meeting copy</title>
    <desc>Created with Sketch.</desc>
    <defs></defs>
    <g id="home_page" stroke="none" stroke-width="1" fill="none" fill-rule="evenodd">
        <g id="meeting" fill="#06D0FB" fill-rule="nonzero">
            <path d="M1.20833333,12.3076923 L19.3333333,12.3076923 L19.3333333,14.7692308 C19.3333333,15.266226 19.6283366,15.7157452 20.0791016,15.90625 C20.2289633,15.9693509 20.3859049,16 20.5416667,16 C20.8555501,16 21.1653035,15.8743991 21.3959961,15.6394231 L24.6669922,12.3076923 L27.7916667,12.3076923 C28.4583739,12.3076923 29,11.7560095 29,11.0769231 L29,1.23076923 C29,0.551682769 28.4583739,0 27.7916667,0 L1.20833333,0 C0.541626052,0 0,0.551682769 0,1.23076923 L0,11.0769231 C0,11.7560095 0.541626052,12.3076923 1.20833333,12.3076923 Z M2.41666667,2.46153846 L26.5833333,2.46153846 L26.5833333,9.84615385 L24.1666667,9.84615385 C23.8462931,9.84615385 23.5383098,9.97536062 23.3123372,10.2067308 L21.75,11.7980769 L21.75,11.0769231 C21.75,10.3978366 21.2083739,9.84615385 20.5416667,9.84615385 L2.41666667,9.84615385 L2.41666667,2.46153846 Z" id="Shape"></path>
            <path d="M47.1875,9.45454545 L52.6333008,9.45454545 L55.8479004,12.6537642 C56.0746155,12.8793946 56.3790283,13 56.6875,13 C56.8405762,13 56.9948119,12.9705699 57.1420898,12.9099787 C57.585083,12.7270508 57.875,12.2954102 57.875,11.8181818 L57.875,9.45454545 L63.8125,9.45454545 C64.4677123,9.45454545 65,8.92480461 65,8.27272727 L65,1.18181818 C65,0.529740841 64.4677123,0 63.8125,0 L47.1875,0 C46.5322877,0 46,0.529740841 46,1.18181818 L46,8.27272727 C46,8.92480461 46.5322877,9.45454545 47.1875,9.45454545 Z M48.375,2.36363636 L62.625,2.36363636 L62.625,7.09090909 L56.6875,7.09090909 C56.0322877,7.09090909 55.5,7.62064993 55.5,8.27272727 L55.5,8.96519886 L53.9645996,7.43714489 C53.7425232,7.21497695 53.4398499,7.09090909 53.125,7.09090909 L48.375,7.09090909 L48.375,2.36363636 Z" id="Shape"></path>
            <path d="M6.08333333,57.1636364 L6.08333333,73 L8.51666667,73 L8.51666667,57.1636364 L18.25,57.1636364 L18.25,71.7818182 C18.25,72.4539594 18.7953614,73 19.4666667,73 L26.7666667,73 C27.4379719,73 27.9833333,72.4539594 27.9833333,71.7818182 L27.9833333,53.5090909 C27.9833333,52.1326883 27.5074789,50.8752486 26.7351807,49.8545455 L35.2833333,49.8545455 L35.2833333,70.5636364 L30.4166667,70.5636364 L30.4166667,73 L42.5833333,73 L42.5833333,70.5636364 L37.7166667,70.5636364 L37.7166667,49.8545455 L46.2357096,49.8545455 C45.4717286,50.8728693 45.0166667,52.1386364 45.0166667,53.5090909 L45.0166667,71.7818182 C45.0166667,72.4539594 45.5620281,73 46.2333333,73 L53.5333333,73 C54.2046386,73 54.75,72.4539594 54.75,71.7818182 L54.75,57.1636364 L64.4833333,57.1636364 L64.4833333,73 L66.9166667,73 L66.9166667,57.1636364 C70.2708171,57.1636364 73,54.4310548 73,51.0727273 L73,35.2363636 C73,32.5549361 71.2492594,30.2976118 68.8402833,29.4874734 C70.639738,27.9225142 71.7833333,25.6223632 71.7833333,23.0545455 C71.7833333,18.3525302 67.9628336,14.5272727 63.2666667,14.5272727 C58.5704997,14.5272727 54.75,18.3525302 54.75,23.0545455 C54.75,25.6223632 55.8935953,27.9225142 57.6930501,29.4874734 C55.2840739,30.2976118 53.5333333,32.5549361 53.5333333,35.2363636 L53.5333333,40.1090909 L43.8,40.1090909 C43.1286947,40.1090909 42.5833333,40.6551315 42.5833333,41.3272727 L42.5833333,47.4181818 L30.8889567,47.4181818 L34.0048828,38.0575728 L31.6963053,37.2866922 L28.3225505,47.4181818 L17.3339355,47.4181818 L19.2272542,38.8909091 L25.55,38.8909091 C25.872583,38.8909091 26.1826904,38.7630238 26.4102214,38.5340199 L33.353776,31.5818182 L34.2235026,31.5818182 C34.1201334,31.9767756 34.0666667,32.3860085 34.0666667,32.8 C34.0666667,35.4873758 36.2493001,37.6727273 38.9333333,37.6727273 C41.6173666,37.6727273 43.8,35.4873758 43.8,32.8 C43.8,32.3860085 43.7465333,31.9767756 43.6431641,31.5818182 L46.2333333,31.5818182 C46.9046386,31.5818182 47.45,31.0357776 47.45,30.3636364 L47.45,24.540989 C47.45,24.0585938 47.166626,23.6219992 46.7258219,23.4274947 C46.2879883,23.2335848 45.7735188,23.3150747 45.4158854,23.6380593 C44.9655761,24.0472922 44.3911052,24.2727273 43.8,24.2727273 C42.4579834,24.2727273 41.3666667,23.1800515 41.3666667,21.8363636 C41.3666667,20.4926757 42.4579834,19.4 43.8,19.4 C44.3911052,19.4 44.9655761,19.6254351 45.4170735,20.034668 C45.7735188,20.3588423 46.2868001,20.4391424 46.7270101,20.2452326 C47.166626,20.0507281 47.45,19.612944 47.45,19.1317382 L47.45,13.3090909 C47.45,12.6369496 46.9046386,12.0909091 46.2333333,12.0909091 L43.6431641,12.0909091 C43.7465333,11.6959517 43.8,11.2867187 43.8,10.8727273 C43.8,8.18535149 41.6173666,6 38.9333333,6 C36.2493001,6 34.0666667,8.18535149 34.0666667,10.8727273 C34.0666667,11.2867187 34.1201334,11.6959517 34.2235026,12.0909091 L31.6333333,12.0909091 C30.9620281,12.0909091 30.4166667,12.6369496 30.4166667,13.3090909 L30.4166667,21.3319602 L22.6128906,29.1454545 L19.3329997,29.1454545 C20.9144287,27.5959606 21.9,25.4397549 21.9,23.0545455 C21.9,18.3525302 18.0795003,14.5272727 13.3833333,14.5272727 C8.68716638,14.5272727 4.86666667,18.3525302 4.86666667,23.0545455 C4.86666667,25.6723277 6.05303544,28.0147106 7.91308594,29.5814542 C6.0078857,30.33568 4.54764815,32.0166282 4.15971672,34.1252486 L2.43333333,42.9683683 L2.43333333,32.8 L0,32.8 L0,51.0727273 C0,54.4310548 2.72918287,57.1636364 6.08333333,57.1636364 Z M57.1833333,23.0545455 C57.1833333,19.696218 59.9125162,16.9636364 63.2666667,16.9636364 C66.6208171,16.9636364 69.35,19.696218 69.35,23.0545455 C69.35,26.4128729 66.6208171,29.1454545 63.2666667,29.1454545 C59.9125162,29.1454545 57.1833333,26.4128729 57.1833333,23.0545455 Z M45.0166667,42.5454545 L54.75,42.5454545 C55.4213053,42.5454545 55.9666667,41.999414 55.9666667,41.3272727 L55.9666667,35.2363636 C55.9666667,33.221724 57.6045328,31.5818182 59.6166667,31.5818182 L66.9166667,31.5818182 C68.9288005,31.5818182 70.5666667,33.221724 70.5666667,35.2363636 L70.5666667,51.0727273 C70.5666667,53.0873669 68.9288005,54.7272727 66.9166667,54.7272727 L53.5333333,54.7272727 C52.8620281,54.7272727 52.3166667,55.2733133 52.3166667,55.9454545 L52.3166667,70.5636364 L47.45,70.5636364 L47.45,53.5090909 C47.45,51.4944513 49.0878662,49.8545455 51.1,49.8545455 L62.05,49.8545455 C62.7213053,49.8545455 63.2666667,49.3085049 63.2666667,48.6363636 L63.2666667,37.6727273 L60.8333333,37.6727273 L60.8333333,47.4181818 L45.0166667,47.4181818 L45.0166667,42.5454545 Z M32.85,14.5272727 L36.2320719,14.5272727 C36.7138672,14.5272727 37.1499187,14.2435458 37.3441813,13.8021928 C37.5402263,13.3626242 37.4576497,12.8475142 37.1338786,12.490625 C36.7251547,12.0397549 36.5,11.4645686 36.5,10.8727273 C36.5,9.52903938 37.5913167,8.43636364 38.9333333,8.43636364 C40.27535,8.43636364 41.3666667,9.52903938 41.3666667,10.8727273 C41.3666667,11.4645686 41.141512,12.0397549 40.732788,12.4918146 C40.4090169,12.8487038 40.3276286,13.3626242 40.5224854,13.8033825 C40.716748,14.2435458 41.1527995,14.5272727 41.6345948,14.5272727 L45.0166667,14.5272727 L45.0166667,17.1206676 C44.6222005,17.0171697 44.2134766,16.9636364 43.8,16.9636364 C41.1159667,16.9636364 38.9333333,19.1489879 38.9333333,21.8363636 C38.9333333,24.5237394 41.1159667,26.7090909 43.8,26.7090909 C44.2134766,26.7090909 44.6222005,26.6555576 45.0166667,26.5520597 L45.0166667,29.1454545 L41.6345948,29.1454545 C41.1527995,29.1454545 40.716748,29.4291814 40.5224854,29.8705345 C40.3264404,30.3112926 40.4102052,30.8252131 40.732788,31.1821023 C41.141512,31.6329724 41.3666667,32.2081587 41.3666667,32.8 C41.3666667,34.1436879 40.27535,35.2363636 38.9333333,35.2363636 C37.5913167,35.2363636 36.5,34.1436879 36.5,32.8 C36.5,32.2081587 36.7251547,31.6329724 37.1338786,31.1821023 C37.4576497,30.8252131 37.5402263,30.3112926 37.3441813,29.8705345 C37.1499187,29.4291814 36.7138672,29.1454545 36.2320719,29.1454545 L35.7871094,29.1454545 L37.3602214,27.5703835 C37.8360758,27.0939365 37.8360758,26.3242453 37.3602214,25.8477983 L32.85,21.3319602 L32.85,14.5272727 Z M7.3,23.0545455 C7.3,19.696218 10.0291829,16.9636364 13.3833333,16.9636364 C16.7374838,16.9636364 19.4666667,19.696218 19.4666667,23.0545455 C19.4666667,26.4128729 16.7374838,29.1454545 13.3833333,29.1454545 C10.0291829,29.1454545 7.3,26.4128729 7.3,23.0545455 Z M3.4563313,50.4297319 L6.54908854,34.5796875 C6.86929529,32.8428267 8.38299971,31.5818182 10.1468099,31.5818182 L23.1166667,31.5818182 C23.4392497,31.5818182 23.7493571,31.4539328 23.976888,31.224929 L31.6333333,23.5589489 L34.7795573,26.7090909 L25.046224,36.4545455 L18.25,36.4545455 C17.6790935,36.4545455 17.1854167,36.8518821 17.062443,37.4086293 L14.6291097,48.3722656 C14.5489094,48.7327236 14.6362386,49.1104314 14.8679281,49.3977273 C15.0990234,49.6862127 15.4477458,49.8545455 15.8166667,49.8545455 L21.9,49.8545455 C23.9121338,49.8545455 25.55,51.4944513 25.55,53.5090909 L25.55,70.5636364 L20.6833333,70.5636364 L20.6833333,55.9454545 C20.6833333,55.2733133 20.1379719,54.7272727 19.4666667,54.7272727 L7.04454745,54.7272727 C5.96154789,54.7272727 4.94092607,54.2484464 4.24764005,53.4139205 C3.55019531,52.5782049 3.26444502,51.4855292 3.4563313,50.4297319 Z" id="Shape"></path>
            <polygon id="Shape" points="5 5 10 5 10 7 5 7"></polygon>
            <polygon id="Shape" points="12 5 14 5 14 7 12 7"></polygon>
            <polygon id="Shape" points="17 5 19 5 19 7 17 7"></polygon>
            <polygon id="Shape" points="22 5 24 5 24 7 22 7"></polygon>
        </g>
    </g>
</svg>