<?xml version="1.0" encoding="UTF-8"?>
<svg width="1920px" height="1080px" viewBox="0 0 1920 1080" version="1.1" xmlns="http://www.w3.org/2000/svg" xmlns:xlink="http://www.w3.org/1999/xlink">
    <title>Menu background</title>
    <desc>Created with Sketch.</desc>
    <defs></defs>
    <g id="home_page" stroke="none" stroke-width="1" fill="none" fill-rule="evenodd">
        <g id="03_Menu-Copy-2">
            <path d="M173.5,-0.5 L173.5,1094.15976" id="Line-4" stroke="#979797" stroke-width="2" opacity="0.244055707" stroke-linecap="square"></path>
            <polygon id="Rectangle-3" fill="#020F3E" points="-12 0 1930 0 1930 1080 -12 1080"></polygon>
            <polygon id="Rectangle-3-Copy" fill="#020F3E" points="1140 484 3082 484 3082 1564 1140 1564"></polygon>
            <g id="Group-2-Copy" opacity="0.442255435" transform="translate(1789.207899, 69.207899) rotate(-225.000000) translate(-1789.207899, -69.207899) translate(1007.707899, -712.292101)" fill="#06D0FB" stroke="#979797">
                <circle id="Oval" opacity="0.0458559783" cx="781.5" cy="781.5" r="781.5"></circle>
                <circle id="Oval" opacity="0.0458559783" cx="674" cy="804" r="660"></circle>
                <circle id="Oval" opacity="0.0458559783" cx="604" cy="804" r="506"></circle>
                <circle id="Oval" opacity="0.0458559783" cx="604" cy="804" r="277"></circle>
                <circle id="Oval" opacity="0.0458559783" cx="604" cy="804" r="83"></circle>
            </g>
            <g id="Group-2" transform="translate(-528.000000, 226.000000)" fill="#06D0FB" opacity="0.0458559783" stroke="#979797">
                <circle id="Oval" cx="781.5" cy="781.5" r="781.5"></circle>
                <circle id="Oval" cx="674" cy="804" r="660"></circle>
                <circle id="Oval" cx="604" cy="804" r="506"></circle>
                <circle id="Oval" cx="604" cy="804" r="277"></circle>
                <circle id="Oval" cx="604" cy="804" r="83"></circle>
            </g>
            <path d="M1836.5,98.5 L1836.5,308.502381" id="Line-3" stroke="#979797" stroke-linecap="square"></path>
            <path d="M1836.5,786.487183 L1836.5,942.531611" id="Line-3-Copy" stroke="#979797" stroke-linecap="square"></path>
            <text id="Building-trust-in-yo" transform="translate(1835.500000, 537.500000) rotate(-270.000000) translate(-1835.500000, -537.500000) " font-family="Poppins-Medium, Poppins" font-size="18" font-weight="400" letter-spacing="3.21428561" fill="#06D0FB" fill-opacity="0.514322917">
                <tspan x="1620" y="544">BUILDING TRUST IN YOUR VALUECHAIN</tspan>
            </text>
        </g>
    </g>
</svg>