<svg width="1092" height="845" viewBox="0 0 1092 845" fill="none" xmlns="http://www.w3.org/2000/svg">
<path fill-rule="evenodd" clip-rule="evenodd" d="M0 0H1092V819.905C1092 819.905 953.631 765.663 819 819.905C684.369 874.147 546 819.905 546 819.905C546 819.905 403.867 763.714 273 819.905C142.133 876.095 0 819.905 0 819.905V0ZM541.677 175.975L477.422 138.86L408.723 178.502L472.707 214.841L541.677 175.975ZM408 186.752L541.226 262.426L479.861 297.663L408 256.415V186.752ZM687.295 178.502L548 98.135L484.955 134.528L624.034 214.841L687.295 178.502ZM408 340.464V265.098L542.057 342.053L476.465 379.962L408 340.464ZM548 421.229L688 340.464V266.415L483.997 384.313L548 421.229ZM688 257.714L549.59 337.703L487.43 302.014L688 186.788V257.714Z" fill="white"/>
<path fill-rule="evenodd" clip-rule="evenodd" d="M418.035 640.774V690.508H406V640.774H418.035ZM470.538 690.508H458.503L438.375 659.978V690.508H426.34V640.774H438.375L458.503 671.585V640.774H470.538V690.508ZM535.921 640.774L518.678 673.977V690.508H506.573V673.977L489.33 640.774H503.124L512.696 661.033L522.267 640.774H535.921ZM564.214 640C568.906 640 573.164 641.09 576.988 643.271C580.812 645.452 583.826 648.477 586.031 652.346C588.237 656.215 589.339 660.588 589.339 665.465C589.339 670.342 588.225 674.727 585.996 678.619C583.768 682.512 580.741 685.548 576.917 687.729C573.093 689.91 568.859 691 564.214 691C559.569 691 555.334 689.91 551.51 687.729C547.686 685.548 544.66 682.512 542.431 678.619C540.202 674.727 539.088 670.342 539.088 665.465C539.088 660.588 540.202 656.215 542.431 652.346C544.66 648.477 547.686 645.452 551.51 643.271C555.334 641.09 559.569 640 564.214 640ZM564.214 651.185C560.272 651.185 557.141 652.463 554.818 655.019C552.495 657.574 551.334 661.057 551.334 665.465C551.334 669.826 552.495 673.297 554.818 675.876C557.141 678.455 560.272 679.745 564.214 679.745C568.108 679.745 571.228 678.455 573.574 675.876C575.92 673.297 577.093 669.826 577.093 665.465C577.093 661.103 575.932 657.633 573.609 655.054C571.287 652.474 568.155 651.185 564.214 651.185ZM607.779 640.774V669.474C607.779 672.757 608.518 675.266 609.996 677.001C611.474 678.737 613.62 679.604 616.435 679.604C619.251 679.604 621.397 678.737 622.875 677.001C624.353 675.266 625.092 672.757 625.092 669.474V640.774H637.127V669.474C637.127 674.164 636.212 678.115 634.382 681.328C632.552 684.54 630.054 686.955 626.887 688.573C623.72 690.191 620.142 691 616.154 691C612.166 691 608.647 690.203 605.597 688.608C602.547 687.014 600.154 684.599 598.418 681.363C596.682 678.127 595.814 674.164 595.814 669.474V640.774H607.779ZM670.698 690.508L659.93 671.726H657.185V690.508H645.15V640.774H665.701C669.643 640.774 672.974 641.454 675.695 642.814C678.417 644.174 680.458 646.038 681.818 648.406C683.179 650.774 683.859 653.483 683.859 656.531C683.859 660.142 682.862 663.214 680.868 665.746C678.874 668.279 675.977 670.014 672.176 670.952L684 690.508H670.698ZM657.185 663.495H664.646C667.038 663.495 668.798 662.968 669.924 661.912C671.05 660.857 671.613 659.298 671.613 657.234C671.613 655.265 671.038 653.717 669.889 652.592C668.739 651.466 666.992 650.903 664.646 650.903H657.185V663.495Z" fill="#020F3E"/>
<path fill-rule="evenodd" clip-rule="evenodd" d="M414.008 703.311L421.578 726.922L429.148 703.311H437.156L426.392 734.689H416.721L406 703.311H414.008ZM459.211 728.964H447.615L445.689 734.689H437.813L449.146 703.533H457.767L469.1 734.689H461.136L459.211 728.964ZM457.285 723.194L453.435 711.655L449.54 723.194H457.285ZM479.471 728.875H489.448V734.689H471.988V703.311H479.471V728.875ZM500.169 703.311V721.419C500.169 723.49 500.629 725.073 501.547 726.168C502.466 727.263 503.801 727.81 505.551 727.81C507.302 727.81 508.636 727.263 509.555 726.168C510.474 725.073 510.934 723.49 510.934 721.419V703.311H518.416V721.419C518.416 724.378 517.848 726.871 516.71 728.897C515.572 730.924 514.019 732.448 512.05 733.469C510.08 734.49 507.856 735 505.376 735C502.897 735 500.709 734.497 498.813 733.491C496.916 732.485 495.429 730.961 494.349 728.92C493.27 726.878 492.73 724.378 492.73 721.419V703.311H500.169ZM530.888 709.347V715.915H541.346V721.641H530.888V728.609H542.659V734.689H523.405V703.311H542.659V709.347H530.888ZM561.038 703C564.976 703 568.236 704.05 570.818 706.151C573.4 708.252 575.07 711.092 575.828 714.673H567.908C567.324 713.223 566.427 712.084 565.217 711.255C564.006 710.427 562.569 710.012 560.906 710.012C558.718 710.012 556.953 710.826 555.612 712.454C554.27 714.081 553.599 716.256 553.599 718.978C553.599 721.7 554.27 723.867 555.612 725.48C556.953 727.092 558.718 727.899 560.906 727.899C562.569 727.899 564.006 727.485 565.217 726.656C566.427 725.828 567.324 724.703 567.908 723.283H575.828C575.07 726.834 573.4 729.667 570.818 731.782C568.236 733.898 564.976 734.956 561.038 734.956C558.033 734.956 555.393 734.282 553.117 732.936C550.842 731.59 549.084 729.704 547.844 727.277C546.604 724.851 545.985 722.085 545.985 718.978C545.985 715.871 546.604 713.104 547.844 710.678C549.084 708.252 550.842 706.366 553.117 705.019C555.393 703.673 558.033 703 561.038 703ZM606.766 703.311V734.689H599.239V721.596H587.512V734.689H580.029V703.311H587.512V715.472H599.239V703.311H606.766ZM631.096 728.964H619.499L617.574 734.689H609.697L621.031 703.533H629.652L640.985 734.689H633.021L631.096 728.964ZM629.17 723.194L625.319 711.655L621.425 723.194H629.17ZM651.356 703.311V734.689H643.873V703.311H651.356ZM684 734.689H676.517L664.002 715.427V734.689H656.519V703.311H664.002L676.517 722.75V703.311H684V734.689Z" fill="#020F3E"/>
<path fill-rule="evenodd" clip-rule="evenodd" d="M456.347 564.986V577.179H438.898V628.372H423.267V577.179H406V564.986H456.347ZM495.88 628.372L481.975 604.434H478.431V628.372H462.891V564.986H489.427C494.517 564.986 498.818 565.853 502.332 567.586C505.846 569.32 508.482 571.695 510.239 574.714C511.996 577.732 512.874 581.184 512.874 585.069C512.874 589.671 511.587 593.586 509.012 596.814C506.437 600.041 502.696 602.253 497.788 603.448L513.056 628.372H495.88ZM478.431 593.945H488.064C491.154 593.945 493.426 593.272 494.88 591.928C496.334 590.583 497.061 588.595 497.061 585.966C497.061 583.455 496.319 581.483 494.835 580.048C493.35 578.614 491.094 577.897 488.064 577.897H478.431V593.945ZM535.776 564.986V601.566C535.776 605.749 536.73 608.947 538.639 611.159C540.547 613.37 543.319 614.476 546.954 614.476C550.589 614.476 553.361 613.37 555.27 611.159C557.178 608.947 558.132 605.749 558.132 601.566V564.986H573.673V601.566C573.673 607.543 572.491 612.578 570.128 616.672C567.765 620.767 564.539 623.845 560.45 625.907C556.36 627.969 551.74 629 546.591 629C541.441 629 536.897 627.984 532.959 625.952C529.021 623.92 525.931 620.841 523.689 616.717C521.447 612.593 520.326 607.543 520.326 601.566V564.986H535.776ZM630.2 610.531C630.2 613.878 629.336 616.956 627.61 619.766C625.883 622.575 623.338 624.816 619.976 626.49C616.613 628.163 612.539 629 607.752 629C600.543 629 594.605 627.267 589.94 623.8C585.275 620.333 582.73 615.492 582.306 609.276H598.846C599.089 611.667 599.952 613.549 601.436 614.924C602.921 616.299 604.814 616.986 607.116 616.986C609.116 616.986 610.691 616.448 611.842 615.372C612.993 614.297 613.569 612.862 613.569 611.069C613.569 609.455 613.039 608.11 611.978 607.034C610.918 605.959 609.6 605.077 608.025 604.39C606.45 603.702 604.269 602.88 601.482 601.924C597.422 600.549 594.105 599.22 591.53 597.934C588.956 596.649 586.744 594.737 584.896 592.197C583.048 589.656 582.124 586.354 582.124 582.29C582.124 578.524 583.094 575.267 585.033 572.517C586.971 569.768 589.652 567.661 593.075 566.197C596.499 564.732 600.421 564 604.844 564C611.994 564 617.673 565.674 621.884 569.021C626.095 572.368 628.473 576.97 629.018 582.828H612.206C611.903 580.736 611.13 579.077 609.888 577.852C608.646 576.626 606.965 576.014 604.844 576.014C603.027 576.014 601.558 576.492 600.437 577.448C599.316 578.405 598.755 579.809 598.755 581.662C598.755 583.156 599.255 584.426 600.255 585.472C601.255 586.518 602.512 587.37 604.026 588.028C605.541 588.685 607.722 589.522 610.57 590.538C614.69 591.913 618.052 593.272 620.657 594.617C623.263 595.962 625.504 597.92 627.382 600.49C629.261 603.06 630.2 606.407 630.2 610.531ZM685 564.986V577.179H667.551V628.372H651.92V577.179H634.653V564.986H685Z" fill="#3E61FF"/>
<path fill-rule="evenodd" clip-rule="evenodd" d="M432.087 529.359C434.712 529.969 436.793 531.231 438.331 533.143C439.869 535.055 440.639 537.272 440.639 539.795C440.639 543.497 439.398 546.386 436.916 548.46C434.435 550.535 430.877 551.573 426.242 551.573H406V508.427H425.75C430.179 508.427 433.604 509.383 436.024 511.295C438.444 513.208 439.654 515.933 439.654 519.473C439.654 522.077 438.957 524.243 437.562 525.972C436.168 527.701 434.343 528.83 432.087 529.359ZM416.521 526.064H423.412C427.062 526.064 428.887 524.518 428.887 521.426C428.887 518.334 427.021 516.788 423.289 516.788H416.521V526.064ZM424.027 543.09C427.923 543.09 429.872 541.503 429.872 538.33C429.872 536.784 429.359 535.574 428.334 534.699C427.308 533.824 425.852 533.387 423.965 533.387H416.521V543.09H424.027ZM456.389 508.427V533.326C456.389 536.174 457.035 538.35 458.327 539.856C459.619 541.361 461.495 542.114 463.956 542.114C466.418 542.114 468.294 541.361 469.586 539.856C470.878 538.35 471.524 536.174 471.524 533.326V508.427H482.045V533.326C482.045 537.394 481.245 540.822 479.645 543.609C478.046 546.396 475.862 548.491 473.093 549.895C470.324 551.298 467.197 552 463.71 552C460.224 552 457.148 551.308 454.482 549.925C451.816 548.542 449.724 546.447 448.206 543.639C446.688 540.832 445.93 537.394 445.93 533.326V508.427H456.389ZM499.579 508.427V551.573H489.059V508.427H499.579ZM517.36 543.578H531.388V551.573H506.839V508.427H517.36V543.578ZM575.378 529.908C575.378 534.14 574.466 537.893 572.64 541.168C570.815 544.443 568.19 546.996 564.765 548.827C561.34 550.657 557.31 551.573 552.675 551.573H536.248V508.427H552.675C557.351 508.427 561.391 509.322 564.796 511.112C568.2 512.902 570.815 515.425 572.64 518.68C574.466 521.934 575.378 525.677 575.378 529.908ZM551.753 542.236C555.854 542.236 559.043 541.158 561.32 539.001C563.596 536.845 564.734 533.814 564.734 529.908C564.734 526.003 563.596 522.972 561.32 520.816C559.043 518.659 555.854 517.581 551.753 517.581H546.769V542.236H551.753ZM591.867 508.427V551.573H581.346V508.427H591.867ZM637.764 551.573H627.244L609.648 525.087V551.573H599.127V508.427H609.648L627.244 535.157V508.427H637.764V551.573ZM665.389 508C670.844 508 675.336 509.322 678.863 511.967C682.391 514.611 684.585 518.191 685.446 522.707H674.31C673.572 521.161 672.444 519.931 670.926 519.015C669.409 518.1 667.584 517.642 665.451 517.642C662.128 517.642 659.462 518.751 657.452 520.968C655.443 523.185 654.438 526.186 654.438 529.969C654.438 534.079 655.494 537.232 657.606 539.429C659.719 541.626 662.723 542.724 666.62 542.724C669.122 542.724 671.316 542.043 673.203 540.68C675.09 539.317 676.423 537.374 677.202 534.852H663.913V527.345H686V537.659C685.18 540.181 683.867 542.521 682.062 544.677C680.258 546.833 677.95 548.583 675.141 549.925C672.331 551.268 669.122 551.939 665.512 551.939C661.123 551.939 657.288 551.013 654.007 549.162C650.726 547.311 648.193 544.718 646.409 541.381C644.624 538.045 643.732 534.241 643.732 529.969C643.732 525.698 644.624 521.894 646.409 518.558C648.193 515.221 650.715 512.628 653.976 510.777C657.237 508.926 661.041 508 665.389 508Z" fill="#020F3E"/>
</svg>
