<?xml version="1.0" encoding="UTF-8"?>
<svg width="81px" height="80px" viewBox="0 0 81 80" version="1.1" xmlns="http://www.w3.org/2000/svg" xmlns:xlink="http://www.w3.org/1999/xlink">
    <!-- Generator: Sketch 49.1 (51147) - http://www.bohemiancoding.com/sketch -->
    <title>money copy</title>
    <desc>Created with Sketch.</desc>
    <defs></defs>
    <g id="home_page" stroke="none" stroke-width="1" fill="none" fill-rule="evenodd">
        <g id="money" fill="#3E61FF" fill-rule="nonzero">
            <path d="M16.8074163,43.6387882 C17.4659955,43.6387882 18,43.0745102 18,42.3782206 L18,41.5042941 C18,39.4940955 16.5468411,37.8358159 14.6926631,37.6412373 L14.6926631,36.2605676 C14.6926631,35.564278 14.1586585,35 13.5000793,35 C12.8415002,35 12.3074956,35.564278 12.3074956,36.2605676 L12.3074956,37.7016237 C10.4257049,38.0872585 9.00015869,39.8413178 9.00015869,41.9412574 C9.00015869,44.3230005 10.8333892,46.2605676 13.0865234,46.2605676 L13.9133179,46.2605676 C14.8515155,46.2605676 15.6146739,47.0672303 15.6146739,48.0589104 C15.6146739,49.0505904 14.8515155,49.8572531 13.9133179,49.8572531 L12.6731261,49.8572531 C11.9629715,49.8572531 11.3851674,49.246511 11.3851674,48.4957059 C11.3851674,47.7994163 10.8511629,47.2351382 10.1925837,47.2351382 C9.53400455,47.2351382 9,47.7994163 9,48.4957059 C9,50.5059045 10.4530002,52.1641841 12.3073369,52.3587627 L12.3073369,53.7394324 C12.3073369,54.435722 12.8413415,55 13.4999207,55 C14.1584998,55 14.6925044,54.435722 14.6925044,53.7394324 L14.6925044,52.2983763 C16.5742951,51.9127415 17.9998413,50.1586822 17.9998413,48.0587426 C17.9998413,45.6769995 16.1666108,43.7394324 13.9134766,43.7394324 L13.0866821,43.7394324 C12.1484845,43.7394324 11.3853261,42.9327697 11.3853261,41.9410896 C11.3853261,40.9494096 12.1484845,40.1427469 13.0866821,40.1427469 L14.3268739,40.1427469 C15.0370285,40.1427469 15.6148326,40.753489 15.6148326,41.5042941 L15.6148326,42.3782206 C15.6148326,43.0745102 16.1488371,43.6387882 16.8074163,43.6387882 Z" id="Shape"></path>
            <path d="M43.8074163,13.6387882 C44.4661541,13.6387882 45,13.0745102 45,12.3782206 L45,11.5042941 C45,9.49409554 43.5468411,7.83581589 41.6926631,7.64123725 L41.6926631,6.26056763 C41.6926631,5.56427805 41.1588172,5 40.5000793,5 C39.8415002,5 39.3074956,5.56427805 39.3074956,6.26056763 L39.3074956,7.70162373 C37.4257049,8.08725845 36.0001587,9.84131777 36.0001587,11.9412574 C36.0001587,14.3230005 37.8333892,16.2605676 40.0865234,16.2605676 L40.9133179,16.2605676 C41.8515155,16.2605676 42.6146739,17.0672303 42.6146739,18.0589104 C42.6146739,19.0505904 41.8515155,19.8572531 40.9133179,19.8572531 L39.6731261,19.8572531 C38.9629715,19.8572531 38.3851674,19.246511 38.3851674,18.4957059 C38.3851674,17.7994163 37.8511629,17.2351382 37.1925837,17.2351382 C36.5340045,17.2351382 36,17.7994163 36,18.4957059 C36,20.5059045 37.4530002,22.1641841 39.3073369,22.3587627 L39.3073369,23.7394324 C39.3073369,24.435722 39.8413415,25 40.4999207,25 C41.1586585,25 41.6925044,24.435722 41.6925044,23.7394324 L41.6925044,22.2983763 C43.5741364,21.9127415 44.9998413,20.1586822 44.9998413,18.0587426 C44.9998413,15.6769995 43.1666108,13.7394324 40.9134766,13.7394324 L40.0866821,13.7394324 C39.1484845,13.7394324 38.3853261,12.9327697 38.3853261,11.9410896 C38.3853261,10.9494096 39.1484845,10.1427469 40.0866821,10.1427469 L41.3268739,10.1427469 C42.0370285,10.1427469 42.6148326,10.753489 42.6148326,11.5042941 L42.6148326,12.3782206 C42.6148326,13.0746779 43.1486784,13.6387882 43.8074163,13.6387882 Z" id="Shape"></path>
            <path d="M67.1301738,23.1499084 C63.6936855,23.1499084 60.5454434,24.424676 58.119873,26.5315323 L52.2345586,21.5574516 C53.5864043,19.3870575 54.3698262,16.8181079 54.3698262,14.0667278 C54.3698262,6.31030028 48.1478555,0 40.5,0 C32.8521445,0 26.6301738,6.31030028 26.6301738,14.0667278 C26.6301738,18.1365177 28.3436719,21.8072708 31.0767891,24.3781458 L21.3849492,33.1153982 C19.218041,31.6931779 16.6374316,30.866384 13.8698262,30.866384 C6.2219707,30.8665445 0,37.1766843 0,44.9332722 C0,52.6898602 6.2219707,59 13.8698262,59 C21.5176816,59 27.7396523,52.6896997 27.7396523,44.9332722 C27.7396523,40.8634823 26.0261543,37.1927292 23.2930371,34.6216938 L32.984877,25.8844413 C35.1517852,27.3066616 37.7323945,28.1334555 40.5,28.1334555 C44.5813242,28.1334555 48.2562246,26.3359449 50.7964922,23.4810752 L56.4464004,28.2560386 C54.4573125,30.6911737 53.2603477,33.8146351 53.2603477,37.2164757 C53.2603477,44.9729031 59.4823184,51.2832034 67.1301738,51.2832034 C74.7780293,51.2832034 81,44.9729031 81,37.2164757 C81,29.4600482 74.7780293,23.1499084 67.1301738,23.1499084 Z M25.3620176,44.9332722 C25.3620176,51.3600585 20.2066523,56.5886114 13.8698262,56.5886114 C7.533,56.5886114 2.37763477,51.3600585 2.37763477,44.9332722 C2.37763477,38.5064859 7.533,33.2779331 13.8698262,33.2779331 C20.2066523,33.2779331 25.3620176,38.5064859 25.3620176,44.9332722 Z M40.5,25.7220669 C34.1631738,25.7220669 29.0078086,20.4935141 29.0078086,14.0667278 C29.0078086,7.63994148 34.1631738,2.41138862 40.5,2.41138862 C46.8368262,2.41138862 51.9921914,7.63994148 51.9921914,14.0667278 C51.9921914,20.4935141 46.8368262,25.7220669 40.5,25.7220669 Z M67.1301738,48.8719753 C60.7933477,48.8719753 55.6379824,43.6434224 55.6379824,37.2166361 C55.6379824,34.1841493 56.7865371,31.419131 58.6647246,29.3437226 C58.8537773,29.2731251 59.0282754,29.1540719 59.1667031,28.9857608 C59.2560879,28.8769764 59.3220586,28.7563187 59.3677793,28.6306871 C61.4141367,26.7263174 64.1401348,25.5614574 67.1300156,25.5614574 C73.4668418,25.5614574 78.622207,30.7900103 78.622207,37.2167966 C78.6223652,43.6434224 73.467,48.8719753 67.1301738,48.8719753 Z" id="Shape"></path>
            <path d="M69.8074373,35.6387882 C70.4661636,35.6387882 71,35.0745102 71,34.3782206 L71,33.5042941 C71,31.4940955 69.5468667,29.8358159 67.6927214,29.6412373 L67.6927214,28.2605676 C67.6927214,27.564278 67.1588849,27 66.5001587,27 C65.8414325,27 65.307596,27.564278 65.307596,28.2605676 L65.307596,29.7016237 C63.4259971,30.0872585 62.0003174,31.8413178 62.0003174,33.9412574 C62.0003174,36.3230005 63.8335155,38.2605676 66.08661,38.2605676 L66.9132313,38.2605676 C67.8514123,38.2605676 68.6145573,39.0672303 68.6145573,40.0589104 C68.6145573,41.0505904 67.8514123,41.8572531 66.9132313,41.8572531 L65.6730613,41.8572531 C64.9629192,41.8572531 64.3851254,41.246511 64.3851254,40.4957059 C64.3851254,39.7994163 63.8512889,39.2351382 63.1925627,39.2351382 C62.5338364,39.2351382 62,39.7994163 62,40.4957059 C62,42.5059045 63.4529746,44.1641841 65.3072786,44.3587627 L65.3072786,45.7394324 C65.3072786,46.435722 65.8411151,47 66.4998413,47 C67.1585675,47 67.692404,46.435722 67.692404,45.7394324 L67.692404,44.2983763 C69.5740029,43.9127415 70.9996826,42.1586822 70.9996826,40.0587426 C70.9996826,37.6769995 69.1664845,35.7394324 66.91339,35.7394324 L66.0867687,35.7394324 C65.1485877,35.7394324 64.3854427,34.9327697 64.3854427,33.9410896 C64.3854427,32.9494096 65.1485877,32.1427469 66.0867687,32.1427469 L67.3269387,32.1427469 C68.0370808,32.1427469 68.6148746,32.753489 68.6148746,33.5042941 L68.6148746,34.3782206 C68.6150333,35.0745102 69.1487111,35.6387882 69.8074373,35.6387882 Z" id="Shape"></path>
            <path d="M25.8607163,61 L16.1392837,61 C15.5101383,61 15,61.5746911 15,62.28383 L15,78.71617 C15,79.4253089 15.5101383,80 16.1392837,80 L25.8607163,80 C26.4898617,80 27,79.4253089 27,78.71617 L27,62.28383 C27,61.5745203 26.4898617,61 25.8607163,61 Z M24.7214326,77.4323401 L17.2784158,77.4323401 L17.2784158,63.5674891 L24.7214326,63.5674891 L24.7214326,77.4323401 Z" id="Shape"></path>
            <path d="M72.8607163,61 L63.1392837,61 C62.5099867,61 62,61.5746911 62,62.28383 L62,78.71617 C62,79.4253089 62.5099867,80 63.1392837,80 L72.8607163,80 C73.4900133,80 74,79.4253089 74,78.71617 L74,62.28383 C73.9998484,61.5745203 73.4900133,61 72.8607163,61 Z M71.7214326,77.4323401 L64.2784158,77.4323401 L64.2784158,63.5674891 L71.7214326,63.5674891 L71.7214326,77.4323401 Z" id="Shape"></path>
            <path d="M40.8607307,66.9425089 C41.4900197,66.9425089 42,66.3910494 42,65.7105773 L42,47.2319316 C42,46.5514595 41.4900197,46 40.8607307,46 L31.1392693,46 C30.5101319,46 30,46.5514595 30,47.2319316 L30,78.7680684 C30,79.4485405 30.5101319,80 31.1392693,80 L40.8605791,80 C41.4898681,80 41.9998484,79.4485405 41.9998484,78.7680684 L41.9998484,71.4592635 C41.9998484,70.7787914 41.4898681,70.2273319 40.8605791,70.2273319 C40.2312901,70.2273319 39.7213098,70.7787914 39.7213098,71.4592635 L39.7213098,77.5361369 L32.278387,77.5361369 L32.278387,48.4636992 L39.7213098,48.4636992 L39.7213098,65.7104134 C39.7214614,66.3910494 40.2314417,66.9425089 40.8607307,66.9425089 Z" id="Shape"></path>
            <path d="M56.8607163,55 L47.1392837,55 C46.5099867,55 46,55.5278949 46,56.1792897 L46,78.8207103 C46,79.4721051 46.5099867,80 47.1392837,80 L56.8607163,80 C57.4900133,80 58,79.4721051 58,78.8207103 L58,56.1792897 C58,55.5278949 57.4900133,55 56.8607163,55 Z M55.7215842,77.6414206 L48.2785674,77.6414206 L48.2785674,57.3584225 L55.7215842,57.3584225 L55.7215842,77.6414206 Z" id="Shape"></path>
        </g>
    </g>
</svg>