<?xml version="1.0" encoding="UTF-8"?>
<svg width="81px" height="81px" viewBox="0 0 81 81" version="1.1" xmlns="http://www.w3.org/2000/svg" xmlns:xlink="http://www.w3.org/1999/xlink">
    <!-- Generator: Sketch 49.1 (51147) - http://www.bohemiancoding.com/sketch -->
    <title>plan copy</title>
    <desc>Created with Sketch.</desc>
    <defs></defs>
    <g id="home_page" stroke="none" stroke-width="1" fill="none" fill-rule="evenodd">
        <g id="plan" fill="#06D0FB" fill-rule="nonzero">
            <path d="M1.34284648,51.4 L6.71423241,51.4 L6.71423241,79.6545455 C6.71423241,80.3969104 7.31418584,81 8.05707889,81 L16.1141578,81 C16.8570508,81 17.4570043,80.3969104 17.4570043,79.6545455 L17.4570043,66.333363 L20.1695803,79.9179865 C20.2941609,80.5480114 20.8449378,81 21.4855437,81 L29.5426226,81 C29.9386574,81 30.3150215,80.8252487 30.5713951,80.521076 C30.8251459,80.2169034 30.9353013,79.8161578 30.8664542,79.4246093 L25.5140832,48.5934659 L25.5140832,32.5636364 L36.256855,32.5636364 C36.6437103,32.5636364 37.0115505,32.3954545 37.2679241,32.1050782 L46.6678495,21.3414418 C47.1340426,20.8086471 47.105848,20.0038707 46.6062148,19.503267 L42.5776754,15.4669034 C42.0524703,14.9406783 41.2040116,14.9406783 40.6788065,15.4669034 L33.0151397,23.1454545 L22.6808607,23.1454545 C24.4262988,21.4340732 25.5140832,19.0525922 25.5140832,16.4181818 C25.5140832,11.2249113 21.2960503,7 16.1141578,7 C10.9322653,7 6.71423241,11.2249113 6.71423241,16.4181818 C6.71423241,19.0525922 7.80201678,21.4340732 9.54876631,23.1454545 L9.39992537,23.1454545 C4.21803288,23.1454545 0,27.3703658 0,32.5636364 L0,50.0545455 C0,50.7969104 0.599953426,51.4 1.34284648,51.4 Z M9.39992537,16.4181818 C9.39992537,12.7089843 12.4121503,9.69090909 16.1141578,9.69090909 C19.8161653,9.69090909 22.8283902,12.7089843 22.8283902,16.4181818 C22.8283902,20.1273793 19.8161653,23.1454545 16.1141578,23.1454545 C12.4121503,23.1454545 9.39992537,20.1273793 9.39992537,16.4181818 Z M2.68569296,32.5636364 C2.68569296,28.8544388 5.69791785,25.8363636 9.39992537,25.8363636 L33.571162,25.8363636 C33.9285113,25.8363636 34.2694684,25.6951171 34.5205965,25.4421875 L41.6282409,18.3207386 L43.8195462,20.5149858 L35.6470664,29.8727273 L24.1712367,29.8727273 C23.4283436,29.8727273 22.8283902,30.4758168 22.8283902,31.2181818 L22.8283902,48.7090909 C22.8283902,48.7872692 22.834947,48.8641335 22.8487165,48.9390271 L27.9473368,78.3090909 L22.5864418,78.3090909 L17.4301211,52.4820135 C17.2943939,51.8033737 16.6564108,51.33299 15.9810533,51.4065695 C15.2952051,51.4755505 14.7713113,52.0536755 14.7713113,52.7454545 L14.7713113,78.3090909 L9.39992537,78.3090909 L9.39992537,32.5636364 L6.71423241,32.5636364 L6.71423241,48.7090909 L2.68569296,48.7090909 L2.68569296,32.5636364 Z" id="Shape"></path>
            <path d="M77.3333333,37.3636364 C77.3333333,36.6112394 76.7376302,36 76,36 L68,36 C67.2623698,36 66.6666667,36.6112394 66.6666667,37.3636364 L66.6666667,45.5454545 L60,45.5454545 C59.2623698,45.5454545 58.6666667,46.156694 58.6666667,46.9090909 L58.6666667,56.4545455 L52,56.4545455 C51.2623698,56.4545455 50.6666667,57.0657849 50.6666667,57.8181818 L50.6666667,66 L44,66 C43.2623698,66 42.6666667,66.6112394 42.6666667,67.3636364 L42.6666667,78.2727273 L40,78.2727273 L40,81 L80,81 L80,78.2727273 L77.3333333,78.2727273 L77.3333333,37.3636364 Z M45.3333333,68.7272727 L50.6666667,68.7272727 L50.6666667,78.2727273 L45.3333333,78.2727273 L45.3333333,68.7272727 Z M53.3333333,67.3636364 L53.3333333,59.1818182 L58.6666667,59.1818182 L58.6666667,78.2727273 L53.3333333,78.2727273 L53.3333333,67.3636364 Z M61.3333333,57.8181818 L61.3333333,48.2727273 L66.6666667,48.2727273 L66.6666667,78.2727273 L61.3333333,78.2727273 L61.3333333,57.8181818 Z M69.3333333,78.2727273 L69.3333333,38.7272727 L74.6666667,38.7272727 L74.6666667,78.2727273 L69.3333333,78.2727273 Z" id="Shape"></path>
            <path d="M31,55.3333798 L31,58 C45.1160474,58 56.7707905,47.6453629 58.3310277,34.3669486 L63.0540711,38.9430406 L65,37.0576568 L58.1193676,30.3911064 C57.5811463,29.8696312 56.71166,29.8696312 56.1734387,30.3911064 L49.2928063,37.0576568 L51.2387352,38.9430406 L55.4759683,34.8376436 C53.7154942,46.4123114 43.4261264,55.3333798 31,55.3333798 Z" id="Shape"></path>
            <path d="M66,30 C74.2703746,30 81,23.2703746 81,15 C81,6.7296254 74.2703746,0 66,0 C57.7296254,0 51,6.7296254 51,15 C51,23.2703746 57.7296254,30 66,30 Z M66,2.72727273 C72.7675781,2.72727273 78.2727273,8.23375364 78.2727273,15 C78.2727273,21.7662464 72.7675781,27.2727273 66,27.2727273 C59.2324219,27.2727273 53.7272727,21.7662464 53.7272727,15 C53.7272727,8.23375364 59.2324219,2.72727273 66,2.72727273 Z" id="Shape"></path>
            <path d="M66,19.9285714 C65.264323,19.9285714 64.6666667,19.3189174 64.6666667,18.5714286 L62,18.5714286 C62,20.3380998 63.1184897,21.8310896 64.6666667,22.3930316 L64.6666667,24 L67.3333333,24 L67.3333333,22.3930316 C68.8815103,21.8310896 70,20.3380998 70,18.5714286 L70,17.2142857 C70,14.9698312 68.2050782,13.1428571 66,13.1428571 C65.264323,13.1428571 64.6666667,12.5332031 64.6666667,11.7857143 L64.6666667,10.4285714 C64.6666667,9.68108259 65.264323,9.07142857 66,9.07142857 C66.735677,9.07142857 67.3333333,9.68108259 67.3333333,10.4285714 L70,10.4285714 C70,8.6619002 68.8815103,7.16891039 67.3333333,6.60696843 L67.3333333,5 L64.6666667,5 L64.6666667,6.60696843 C63.1184897,7.16891039 62,8.6619002 62,10.4285714 L62,11.7857143 C62,14.0301688 63.7949218,15.8571429 66,15.8571429 C66.735677,15.8571429 67.3333333,16.4667969 67.3333333,17.2142857 L67.3333333,18.5714286 C67.3333333,19.3189174 66.735677,19.9285714 66,19.9285714 Z" id="Shape"></path>
            <polygon id="Shape" points="14.25 43 16.75 43 16.75 30.7272727 18 30.7272727 18 28 13 28 13 30.7272727 14.25 30.7272727"></polygon>
            <polygon id="Shape" points="34 5 36 5 36 7 34 7"></polygon>
            <polygon id="Shape" points="39 5 41 5 41 7 39 7"></polygon>
            <polygon id="Shape" points="45 5 47 5 47 7 45 7"></polygon>
        </g>
    </g>
</svg>