<?xml version="1.0" encoding="UTF-8"?>
<svg width="71px" height="71px" viewBox="0 0 71 71" version="1.1" xmlns="http://www.w3.org/2000/svg" xmlns:xlink="http://www.w3.org/1999/xlink">
    <!-- Generator: Sketch 49.1 (51147) - http://www.bohemiancoding.com/sketch -->
    <title>puzzle copy</title>
    <desc>Created with Sketch.</desc>
    <defs></defs>
    <g id="home_page" stroke="none" stroke-width="1" fill="none" fill-rule="evenodd">
        <g id="puzzle" fill="#06D0FB" fill-rule="nonzero">
            <path d="M71,5.78118384 C71,2.5936287 68.4063713,0 65.2188162,0 L40.937844,0 C40.6301541,0 40.3365783,0.121382314 40.1203485,0.338741241 L34.3391646,6.11992508 C33.8869451,6.57214461 33.8869451,7.30269662 34.3391646,7.75491614 L39.302853,12.7186045 L34.3391646,17.6822928 C33.8869451,18.1345123 33.8869451,18.8650643 34.3391646,19.3172838 L39.302853,24.2809721 L34.3391646,29.2446605 C33.8869451,29.69688 33.8869451,30.427432 34.3391646,30.8796515 L40.1203485,36.6608354 C40.572568,37.1130549 41.30312,37.1130549 41.7553395,36.6608354 L46.7190279,31.697147 L51.6827162,36.6608354 C52.1349357,37.1130549 52.8654877,37.1130549 53.3177072,36.6608354 L58.2813955,31.697147 L63.2450839,36.6608354 C63.4703468,36.8860983 63.7667454,36.9995766 64.0625794,36.9995766 C64.3584134,36.9995766 64.654812,36.8860983 64.8800749,36.6608354 L70.6612588,30.8796515 C70.8786177,30.6634217 71,30.3687168 71,30.062156 L71,5.78118384 Z M68.6875265,29.5834017 L64.0625794,34.2083488 L59.0988911,29.2446605 C58.8736281,29.0193975 58.5772296,28.9059192 58.2813955,28.9059192 C57.9855615,28.9059192 57.689163,29.0193975 57.4639,29.2446605 L52.5002117,34.2083488 L47.5365234,29.2446605 C47.0843039,28.7924409 46.3537518,28.7924409 45.9015323,29.2446605 L40.937844,34.2083488 L36.7916512,30.062156 L41.7553395,25.0984677 C42.2075591,24.6462482 42.2075591,23.9156961 41.7553395,23.4634766 L36.7916512,18.4997883 L41.7553395,13.5361 C42.2075591,13.0838805 42.2075591,12.3533284 41.7553395,11.9011089 L36.7916512,6.93742061 L41.4165983,2.31247354 L65.2188162,2.31247354 C67.1310105,2.31247354 68.6875265,3.8689895 68.6875265,5.78118384 L68.6875265,29.5834017 Z" id="Shape"></path>
            <path d="M5.86538462,71 L55.1346154,71 C58.3685961,71 61,68.3685961 61,65.1346154 L61,40.5 C61,40.0263014 60.7147499,39.5978534 60.2759916,39.4162785 C59.8372333,39.2352764 59.3331768,39.3349422 58.997521,39.670598 L53.9615385,44.7065805 L48.9255559,39.670598 C48.46675,39.211792 47.7255577,39.211792 47.2667518,39.670598 L42.2307692,44.7065805 L37.1947867,39.670598 C36.7359807,39.211792 35.9947885,39.211792 35.5359826,39.670598 L30.5,44.7065805 L26.2934195,40.5 L31.329402,35.4640174 C31.788208,35.0052115 31.788208,34.2640193 31.329402,33.8052133 L26.2934195,28.7692308 L31.329402,23.7332482 C31.788208,23.2744423 31.788208,22.53325 31.329402,22.0744441 L26.2934195,17.0384615 L31.329402,12.002479 C31.6650578,11.6668232 31.7658691,11.1627667 31.5837215,10.7240084 C31.4032921,10.2863957 30.9736986,10 30.5,10 L5.86538462,10 C2.63140392,10 0,12.6314039 0,15.8653846 L0,65.1346154 C0,68.3685961 2.63140392,71 5.86538462,71 Z M36.3653846,42.1588041 L41.4013672,47.1947867 C41.8601731,47.6535926 42.6013653,47.6535926 43.0601713,47.1947867 L48.0961538,42.1588041 L53.1321364,47.1947867 C53.5909423,47.6535926 54.3321346,47.6535926 54.7909405,47.1947867 L58.6538462,43.331881 L58.6538462,65.1346154 C58.6538462,67.0746601 57.0746601,68.6538462 55.1346154,68.6538462 L30.9857272,68.6538462 L26.2934195,63.9615385 L31.329402,58.9255559 C31.788208,58.46675 31.788208,57.7255577 31.329402,57.2667518 L26.2934195,52.2307692 L36.3653846,42.1588041 Z M28.8411959,46.3653846 L23.8052133,51.4013672 C23.3464074,51.8601731 23.3464074,52.6013653 23.8052133,53.0601713 L28.8411959,58.0961538 L23.8052133,63.1321364 C23.3464074,63.5909423 23.3464074,64.3321346 23.8052133,64.7909405 L27.668119,68.6538462 L5.86538462,68.6538462 C3.92533988,68.6538462 2.34615385,67.0746601 2.34615385,65.1346154 L2.34615385,43.331881 L6.2090595,47.1947867 C6.66786542,47.6535926 7.40905765,47.6535926 7.86786358,47.1947867 L12.9038462,42.1588041 L17.9398287,47.1947867 C18.1683726,47.4233305 18.469088,47.5384615 18.7692308,47.5384615 C19.0693735,47.5384615 19.370089,47.4233305 19.5986328,47.1947867 L24.6346154,42.1588041 L28.8411959,46.3653846 Z M5.86538462,12.3461538 L27.668119,12.3461538 L23.8052133,16.2090595 C23.3464074,16.6678654 23.3464074,17.4090577 23.8052133,17.8678636 L28.8411959,22.9038462 L23.8052133,27.9398287 C23.3464074,28.3986347 23.3464074,29.1398269 23.8052133,29.5986328 L28.8411959,34.6346154 L18.7692308,44.7065805 L13.7332482,39.670598 C13.2744423,39.211792 12.53325,39.211792 12.0744441,39.670598 L7.03846154,44.7065805 L2.34615385,40.0142728 L2.34615385,15.8653846 C2.34615385,13.9253399 3.92533988,12.3461538 5.86538462,12.3461538 Z" id="Shape"></path>
            <path d="M53.5,6 C50.4674804,6 48,8.723842 48,12.0714286 L48,14.5 L50.2,14.5 L50.2,12.0714286 C50.2,10.0632324 51.6808105,8.42857143 53.5,8.42857143 C55.3191895,8.42857143 56.8,10.0632324 56.8,12.0714286 L56.8,13.9972098 L52.7222656,18.4986049 C52.5154786,18.7256906 52.4,19.0351911 52.4,19.3571429 L52.4,23 L54.6,23 L54.6,19.859933 L58.6777344,15.3585379 C58.8845214,15.1314523 59,14.8219518 59,14.5 L59,12.0714286 C59,8.723842 56.5325196,6 53.5,6 Z" id="Shape"></path>
            <polygon id="Shape" points="53 25 55 25 55 27 53 27"></polygon>
            <polygon id="Shape" points="53 64 55 64 55 66 53 66"></polygon>
            <polygon id="Shape" points="48 64 50 64 50 66 48 66"></polygon>
            <polygon id="Shape" points="44 64 46 64 46 66 44 66"></polygon>
        </g>
    </g>
</svg>