<?xml version="1.0" encoding="UTF-8"?>
<svg width="800px" height="458px" viewBox="0 0 800 458" version="1.1" xmlns="http://www.w3.org/2000/svg" xmlns:xlink="http://www.w3.org/1999/xlink">
    <!-- Generator: Sketch 49.1 (51147) - http://www.bohemiancoding.com/sketch -->
    <title>group_37</title>
    <desc>Created with Sketch.</desc>
    <defs></defs>
    <g id="home" stroke="none" stroke-width="1" fill="none" fill-rule="evenodd" opacity="0.147361866">
        <g id="Group-37" fill="#020F3E">
            <path d="M19.4000587,457.714663 C6.46662155,420.761985 0,384.117797 0,347.780997 C0,305.901296 11.0856369,272.182484 33.2572434,246.623548 C55.4288499,221.064613 87.7619576,208.285337 130.257537,208.285337 L130.257537,266.485513 C97.6160049,266.485513 81.2954839,287.42505 81.2954839,329.304751 L81.2954839,343.161935 L140.419472,343.161935 L140.419472,457.714663 L19.4000587,457.714663 Z M194.000587,457.714663 C181.683027,420.146107 175.52434,383.501919 175.52434,347.780997 C175.52434,305.901296 186.45601,272.182484 208.319677,246.623548 C230.183345,221.064613 262.362485,208.285337 304.858065,208.285337 L304.858065,266.485513 C272.832411,266.485513 256.819824,287.42505 256.819824,329.304751 L256.819824,343.161935 L315.02,343.161935 L315.02,457.714663 L194.000587,457.714663 Z" id="“"></path>
            <path d="M503.400059,249.714663 C490.466622,212.761985 484,176.117797 484,139.780997 C484,97.901296 495.085637,64.1824836 517.257243,38.6235484 C539.42885,13.0646132 571.761958,0.285337243 614.257537,0.285337243 L614.257537,58.4855132 C581.616005,58.4855132 565.295484,79.4250496 565.295484,121.304751 L565.295484,135.161935 L624.419472,135.161935 L624.419472,249.714663 L503.400059,249.714663 Z M678.000587,249.714663 C665.683027,212.146107 659.52434,175.501919 659.52434,139.780997 C659.52434,97.901296 670.45601,64.1824836 692.319677,38.6235484 C714.183345,13.0646132 746.362485,0.285337243 788.858065,0.285337243 L788.858065,58.4855132 C756.832411,58.4855132 740.819824,79.4250496 740.819824,121.304751 L740.819824,135.161935 L799.02,135.161935 L799.02,249.714663 L678.000587,249.714663 Z" id="“-copy" transform="translate(641.510000, 125.000000) scale(-1, 1) translate(-641.510000, -125.000000) "></path>
        </g>
    </g>
</svg>