<?xml version="1.0" encoding="UTF-8"?>
<svg width="86px" height="112px" viewBox="0 0 86 112" version="1.1" xmlns="http://www.w3.org/2000/svg" xmlns:xlink="http://www.w3.org/1999/xlink">
    <!-- Generator: Sketch 49.1 (51147) - http://www.bohemiancoding.com/sketch -->
    <title>group_9_copy</title>
    <desc>Created with Sketch.</desc>
    <defs></defs>
    <g id="home_page" stroke="none" stroke-width="1" fill="none" fill-rule="evenodd">
        <g id="rice-wh" fill="#FFFFFF" fill-rule="nonzero">
            <g id="rice">
                <path d="M75.6098697,8.58871803 C68.728185,2.67742066 59.3504553,0.971166007 49.2041916,3.78561118 C42.1765662,5.73489775 36.331519,10.4459106 31.8320063,17.7882744 C28.3115401,23.5324463 25.6062915,30.9004039 23.7913033,39.6873966 C22.5323734,45.7831007 21.8779306,51.668148 21.5450373,56.5294425 C16.1537372,31.0244355 15.6517795,1.95269993 15.6467621,1.61626152 C15.6352003,0.844946913 15.0893949,0.185851366 14.3354768,0.032944699 C13.5813405,-0.12061822 12.8230594,0.274007856 12.5132898,0.980134782 C12.4282122,1.17416656 10.4114375,5.83202301 8.88309529,14.6955784 C7.96360309,20.0271867 7.11609961,27.6289887 7.22800933,37.202171 C4.64754119,27.004237 3.40170016,20.7473137 3.37508615,20.6116883 C3.21562025,19.8016549 2.48068093,19.2350908 1.65913701,19.2926222 C0.837593094,19.3484036 0.185549872,20.0079367 0.136684806,20.8321889 C0.12992223,20.9441892 -0.50859584,32.218595 1.03348965,48.8635466 C2.45603025,64.2178697 6.07815325,87.4544331 15.2562779,110.957216 C15.509111,111.60428 16.1264687,112 16.7802571,112 C16.9785533,112 17.180558,111.963469 17.3764545,111.886687 C18.2178499,111.556155 18.6327667,110.604371 18.3033638,109.76065 C9.27467026,86.6406809 5.70403009,63.7565247 4.29850501,48.6303585 C3.84366723,43.7360326 3.57992676,39.3153018 3.43398601,35.5188852 C6.4897978,47.8594814 11.7462827,67.0432524 19.4503839,88.4138732 C19.7575358,89.2661255 20.6953524,89.706908 21.5452555,89.3989071 C22.3949404,89.0909063 22.8349442,88.1502787 22.5275742,87.2982451 C22.2156231,86.4330865 21.9091257,85.5727404 21.6052461,84.7150194 C21.634696,84.0812989 21.9394482,78.3603145 23.5345436,72.4273608 C25.0120574,66.9319084 27.915384,60.1469211 33.3557674,59.0317306 C38.7394324,57.9281338 47.9655494,63.9435565 59.3343124,75.9702455 C62.0432695,78.8360971 64.5979962,81.7487613 66.8462255,84.420581 C64.6931086,82.755014 62.3656917,80.9844467 59.9929001,79.2287544 C54.5051787,75.1683058 49.8464182,71.9776096 46.1464165,69.7452598 C39.575374,65.7808427 37.204982,65.5448108 35.8747179,65.7821552 C33.6053282,66.1866251 31.1184454,68.9336951 28.3106675,86.1454295 C27.5992881,90.5060039 27.0292684,94.8670158 26.6256953,98.2524 C26.0901429,96.8725213 25.5589534,95.48608 25.0340903,94.0950449 C24.7142859,93.2476051 23.7699249,92.8208227 22.924821,93.1410736 C22.0797171,93.461762 21.653893,94.4085145 21.9734792,95.2559543 C23.9950532,100.613813 26.103668,105.909327 28.2410784,110.995935 C28.5046007,111.622874 29.1110511,111.999781 29.7495691,111.999781 C29.9613905,111.999781 30.1767022,111.958219 30.3841605,111.870718 C31.21683,111.518967 31.6073142,110.556684 31.2565329,109.721713 C30.5689316,108.085458 29.8848207,106.42536 29.2050727,104.750168 C29.3152372,103.616821 30.1138756,95.598299 31.4238521,87.3925267 C33.993631,71.296639 36.1421668,69.2421334 36.5016741,69.0052265 C36.9089557,68.9684764 38.7169632,69.0927268 44.455118,72.5540174 C48.0661155,74.7323359 52.6367443,77.8637507 58.0402608,81.8614178 C67.2792486,88.6969365 75.8369614,95.7713307 75.9224752,95.8419872 C76.5577211,96.3678636 77.4844122,96.3381135 78.0849725,95.771987 C78.6853148,95.2058605 78.7719194,94.2803267 78.2871954,93.6118249 C78.2136796,93.5105433 70.8333095,83.3679532 61.7302277,73.7350519 C49.1924116,60.4667345 39.4263792,54.438843 32.7004519,55.8165343 C29.2153256,56.5309738 26.5726854,58.7994174 24.5687814,61.7709255 C24.5969225,60.9066419 24.6357527,59.9749831 24.6874537,58.9877617 C25.8951189,55.3895331 30.1007868,43.9884708 37.1334296,36.4603878 C39.8720548,35.5042289 42.5779578,35.2111031 45.1813314,35.5947917 C46.0750822,35.7262608 46.9064428,35.1063216 47.0377676,34.2098816 C47.1690925,33.3132229 46.550644,32.4797832 45.6566751,32.3483141 C44.5188171,32.1807511 43.3676522,32.1212509 42.2079794,32.1650011 C44.4583902,30.7385284 46.9136416,29.7871821 49.5732974,29.5518064 C55.4019835,29.0362113 60.2548954,30.6521219 63.996127,34.3555695 C71.1535502,41.4404639 73.1262591,54.6919375 73.588732,63.7783998 C72.8058002,61.8000194 71.8782366,59.6195134 70.804514,57.3515072 C65.4548801,46.0519452 59.3124977,38.4372369 52.5479583,34.7184768 C51.755428,34.2831631 50.7611111,34.5738826 50.3267792,35.3683848 C49.8924473,36.162887 50.1825837,37.1601709 50.9748958,37.5957034 C65.7491612,45.7176943 73.5603728,73.6873643 73.637379,73.9688963 C73.8341481,74.686617 74.4844461,75.1750871 75.2139318,75.1750871 C75.2662872,75.1750871 75.3192971,75.1724621 75.3725251,75.1674308 C76.1644009,75.0906494 76.7865579,74.4540851 76.8465485,73.6584892 C76.8687996,73.3636134 77.3805739,66.3377817 76.3827667,57.7054457 C75.0230526,45.9449761 71.6304209,37.3047651 66.298675,32.0243444 C61.841483,27.6099574 56.1172895,25.6781709 49.2853425,26.283235 C44.8613089,26.6747986 40.6109207,28.7085229 36.6519778,32.328189 C33.5765327,35.1400092 30.6660073,38.917832 28.001116,43.5566571 C27.1625566,45.0161611 26.4029666,46.4647276 25.7212553,47.8577314 C26.0541485,45.4085997 26.4753916,42.8636552 27.0074536,40.2946482 C28.7476171,31.8939691 31.3136875,24.8915437 34.6345487,19.4816227 C36.239897,16.8662406 38.0252171,14.6247032 39.9815649,12.7648857 C46.7016022,11.0220997 55.6827395,13.2568558 64.039102,18.756902 C72.9785732,24.640418 79.6674153,33.2723166 82.3903339,42.4394978 C82.61219,43.1858749 83.3257508,43.6730324 84.100393,43.6056573 C84.8741626,43.5380633 85.49392,42.9343117 85.5835787,42.1608096 C87.2838212,27.4973008 83.7419765,15.5745183 75.6098697,8.58871803 Z M19.1068014,77.4925309 C16.1515557,68.7374758 13.6358774,60.5166096 11.5405695,53.1919646 C9.56218882,36.1729495 10.7408404,23.2548518 12.0811393,15.4080491 C12.3053951,14.0953268 12.5414308,12.8764485 12.7805206,11.7544767 C13.5265854,25.2476697 15.5987696,49.6772988 21.229814,68.7604446 C20.2051747,71.7654215 19.5380793,74.8487112 19.1068014,77.4925309 Z M65.8344569,16.014207 C58.9846218,11.505976 51.66097,9.03278174 45.2175439,8.91771893 C46.7602839,8.07574788 48.3809025,7.41840234 50.0763458,6.94808855 C59.140161,4.4342067 67.4522396,5.90180445 73.4809671,11.0807248 C79.4152367,16.1784887 82.6010645,24.3667611 82.724536,34.5576951 C79.0262795,27.3448317 73.1251684,20.8127201 65.8344569,16.014207 Z" id="Shape"></path>
            </g>
        </g>
    </g>
</svg>