<?xml version="1.0" encoding="UTF-8"?>
<svg width="73px" height="73px" viewBox="0 0 73 73" version="1.1" xmlns="http://www.w3.org/2000/svg" xmlns:xlink="http://www.w3.org/1999/xlink">
    <!-- Generator: Sketch 49.1 (51147) - http://www.bohemiancoding.com/sketch -->
    <title>solution copy</title>
    <desc>Created with Sketch.</desc>
    <defs></defs>
    <g id="home_page" stroke="none" stroke-width="1" fill="none" fill-rule="evenodd">
        <g id="solution" fill="#06D0FB" fill-rule="nonzero">
            <path d="M68.1764706,24 L52.5,24 C51.8340515,24 51.2941176,24.5399338 51.2941176,25.2058824 L51.2941176,30.0294118 C51.2941176,30.6953603 51.8340515,31.2352941 52.5,31.2352941 L56.1176471,31.2352941 C57.4496949,31.2352941 58.5294118,32.315011 58.5294118,33.6470588 C58.5294118,34.9791066 57.4496949,36.0588235 56.1176471,36.0588235 L52.5,36.0588235 C51.8340515,36.0588235 51.2941176,36.5987574 51.2941176,37.2647059 L51.2941176,43.2941176 L33.2058824,43.2941176 C32.5399338,43.2941176 32,43.8340515 32,44.5 L32,60.1764706 C32,62.8404154 34.1595846,65 36.8235294,65 L68.1764706,65 C70.8404154,65 73,62.8404154 73,60.1764706 L73,28.8235294 C73,26.1595846 70.8404154,24 68.1764706,24 Z M51.2941176,62.5882353 L36.8235294,62.5882353 C35.4914816,62.5882353 34.4117647,61.5085184 34.4117647,60.1764706 L34.4117647,45.7058824 L51.2941176,45.7058824 L51.2941176,48.1176471 L48.8823529,48.1176471 C46.2184081,48.1176471 44.0588235,50.2772316 44.0588235,52.9411765 C44.0588235,55.6051213 46.2184081,57.7647059 48.8823529,57.7647059 L51.2941176,57.7647059 L51.2941176,62.5882353 Z M70.5882353,60.1764706 C70.5882353,61.5085184 69.5085184,62.5882353 68.1764706,62.5882353 L53.7058824,62.5882353 L53.7058824,56.5588235 C53.7058824,55.892875 53.1659485,55.3529412 52.5,55.3529412 L48.8823529,55.3529412 C47.5503051,55.3529412 46.4705882,54.2732243 46.4705882,52.9411765 C46.4705882,51.6091287 47.5503051,50.5294118 48.8823529,50.5294118 L52.5,50.5294118 C53.1659485,50.5294118 53.7058824,49.9894779 53.7058824,49.3235294 L53.7058824,45.7058824 L57.3235294,45.7058824 L57.3235294,48.1176471 C57.3235294,50.7815919 59.483114,52.9411765 62.1470588,52.9411765 C64.8110037,52.9411765 66.9705882,50.7815919 66.9705882,48.1176471 L66.9705882,45.7058824 L70.5882353,45.7058824 L70.5882353,60.1764706 Z M70.5882353,43.2941176 L65.7647059,43.2941176 C65.0987574,43.2941176 64.5588235,43.8340515 64.5588235,44.5 L64.5588235,48.1176471 C64.5588235,49.4496949 63.4791066,50.5294118 62.1470588,50.5294118 C60.815011,50.5294118 59.7352941,49.4496949 59.7352941,48.1176471 L59.7352941,44.5 C59.7352941,43.8340515 59.1953603,43.2941176 58.5294118,43.2941176 L53.7058824,43.2941176 L53.7058824,38.4705882 L56.1176471,38.4705882 C58.7815919,38.4705882 60.9411765,36.3110037 60.9411765,33.6470588 C60.9411765,30.983114 58.7815919,28.8235294 56.1176471,28.8235294 L53.7058824,28.8235294 L53.7058824,26.4117647 L68.1764706,26.4117647 C69.5085184,26.4117647 70.5882353,27.4914816 70.5882353,28.8235294 L70.5882353,43.2941176 Z" id="Shape"></path>
            <path d="M53.1667359,4.87359417 L50.7501038,4.87359417 L50.7501038,1.22396528 C50.7501038,0.552129434 50.2090803,0.00742232264 49.5417877,0.00742232264 L33.8336793,0.00742232264 C31.1643581,0.00742232264 29.0004151,2.1860987 29.0004151,4.87359417 L29.0004151,18.4988753 L24.0016117,20.9319613 C23.2498881,19.9322671 22.316766,19.085097 21.2514844,18.4356151 C26.0244838,16.0277724 27.9550707,10.1801546 25.5635112,5.3746578 C23.1719517,0.569161035 17.3638786,-1.37457048 12.5908792,1.03327217 C7.81787981,3.44111483 5.88729287,9.28873271 8.27885238,14.0942295 C9.10352808,15.751161 10.3808692,17.1366514 11.9607424,18.0876838 C9.43158588,19.32947 7.56368033,21.6168749 6.84231565,24.3553131 L2.02838456,39.6168446 C0.666461352,43.9275125 0.943467804,48.5937151 2.80533178,52.7104965 C4.78002226,57.0620707 4.68758608,62.0804624 2.55400204,66.3552423 L0.12770344,71.2396623 C-0.170599582,71.8406346 0.0715167441,72.5713207 0.668424866,72.8716547 C0.836380795,72.9560524 1.02140419,73 1.20914629,73 L14.5006227,73 C15.1679152,73 15.7089387,72.4552929 15.7089387,71.783457 C15.7125637,69.5255533 14.4666388,67.4536286 12.4779016,66.4099868 L13.0554767,65.2494048 C14.8045142,61.7092648 15.373631,57.6957375 14.6782451,53.8041686 L13.7816747,48.8406733 C13.6668846,48.2000114 14.0897952,47.5868737 14.7261247,47.4713022 C14.7940924,47.4589847 14.8629665,47.4527499 14.9319915,47.4525978 C15.4974834,47.4519895 15.9826223,47.858467 16.084725,48.4185329 L17.7256182,57.5085419 C17.9915988,58.9849689 18.1255708,60.4825333 18.1255708,61.9829869 L18.1255708,71.783457 C18.1255708,72.4552929 18.6665943,73 19.3338868,73 L32.6253632,73 C33.2926558,73 33.8336793,72.4552929 33.8336793,71.783457 C33.8336793,71.5468394 33.8199347,71.3103739 33.7925965,71.075429 C33.5847662,69.2443798 32.4616364,67.647363 30.8153058,66.8418595 C29.4674293,66.1502549 27.9059829,66.0108086 26.4581182,66.4525658 L27.2628567,62.4039108 C27.6144766,60.6314077 27.791646,58.8281869 27.7920991,57.0207082 L27.7920991,46.1314322 L26.380786,29.8407054 L34.7652909,25.8127316 C36.3146542,25.118998 37.3473113,23.6098765 37.4392943,21.9051956 L49.5417877,21.9051956 C50.2090803,21.9051956 50.7501038,21.3604885 50.7501038,20.6886527 L50.7501038,14.6059379 L53.1667359,14.6059379 C55.836057,14.6059379 58,12.4272615 58,9.73976601 C58,7.05227054 55.836057,4.87359417 53.1667359,4.87359417 Z M9.66735855,9.73976601 C9.66735855,5.70844677 12.9131975,2.44050825 16.9172548,2.44050825 C20.921312,2.44050825 24.167151,5.70844677 24.167151,9.73976601 C24.167151,13.7710853 20.921312,17.0390238 16.9172548,17.0390238 C12.91501,17.03507 9.67143661,13.7694125 9.66735855,9.73976601 Z M26.4569099,69.0851648 C27.4631351,68.5101961 28.6891227,68.4832801 29.7193632,69.0133887 C30.3795568,69.3354685 30.9013983,69.8873228 31.1886755,70.5669141 L20.5422029,70.5669141 L20.5422029,61.9829869 C20.5420518,60.336396 20.3949394,58.6931506 20.1023758,57.0730196 L18.4614827,47.9842271 C18.1240604,46.0192061 16.268238,44.70169 14.3166566,45.0415617 C12.3649241,45.3812814 11.0563178,47.2497393 11.3938911,49.2146082 C11.397365,49.2351374 11.401141,49.2556665 11.405068,49.2761957 L12.3028469,54.239691 C12.9044372,57.6131646 12.410387,61.0920213 10.8939504,64.1605988 L9.72067549,66.5219087 C9.4182944,67.1209041 9.65542643,67.8532629 10.250371,68.1577028 C10.3338959,68.2004339 10.422254,68.2332805 10.5133308,68.2554825 C11.7038242,68.5378725 12.6715343,69.4077007 13.0846273,70.5669141 L3.16435268,70.5669141 L4.71341384,67.4428318 C7.17399841,62.5115749 7.2806323,56.7229593 5.00340969,51.7031989 C3.38879738,48.1347743 3.14849353,44.0896169 4.32916934,40.3528531 L9.16243348,25.0244118 C10.1653358,21.2414194 13.897673,18.8787409 17.7185193,19.6083625 C19.2976374,19.9267926 20.7229972,20.7741148 21.7627531,22.0122514 L14.6216053,25.4854816 C13.0751118,26.2429316 12.0909384,27.8197234 12.0841417,29.5511681 C12.0781001,32.0411274 14.0780142,34.0646946 16.551135,34.0707773 C17.2258285,34.0724501 17.8920637,33.9206863 18.5002998,33.6265871 L24.0585536,30.9587083 L25.3756181,46.2360549 L25.3756181,57.0207082 C25.3742587,58.6677553 25.2123444,60.3106966 24.8922916,61.9258094 L23.6042267,68.4051172 C23.4728224,69.0638752 23.8964882,69.7051455 24.5507913,69.8374445 C24.8374643,69.8953824 25.1351632,69.8468727 25.3889095,69.7007355 L26.4569099,69.0851648 Z M33.7768884,23.5937573 L33.7406389,23.6095723 L17.4585803,31.430727 C16.4271316,31.9252517 15.1926857,31.4842549 14.7015052,30.4456313 C14.5693457,30.1661306 14.5007737,29.8606263 14.5006227,29.5511681 C14.5036435,28.753268 14.956762,28.0263836 15.6690643,27.6764754 L32.081621,19.6959536 C32.7342627,19.4026147 33.4906686,19.4658749 34.0862173,19.8638365 C34.6876566,20.2526741 35.048641,20.9252703 35.0419953,21.6448554 C35.0416932,22.4897445 34.5453774,23.2543418 33.7768884,23.5937573 Z M53.1667359,12.1728519 L49.5417877,12.1728519 C48.8744952,12.1728519 48.3334717,12.717559 48.3334717,13.3893949 L48.3334717,19.4721097 L36.9136768,19.4721097 C35.8517181,17.4972043 33.5164963,16.5989394 31.4170472,17.357758 L31.4170472,4.87359417 C31.4170472,3.5297704 32.4989432,2.44050825 33.8336793,2.44050825 L48.3334717,2.44050825 L48.3334717,6.09013713 C48.3334717,6.76197298 48.8744952,7.30668009 49.5417877,7.30668009 L53.1667359,7.30668009 C54.501472,7.30668009 55.5833679,8.39594224 55.5833679,9.73976601 C55.5833679,11.0835898 54.501472,12.1728519 53.1667359,12.1728519 Z" id="Shape"></path>
            <path d="M48.3487738,31.709963 L44.5033087,35.6017676 L44.5033087,29 L42.1677696,29 L42.1677696,37.965451 L41,39.1472927 L39.8322304,37.965451 L39.8322304,33.7273667 L37.4966913,33.7273667 L37.4966913,35.6017676 L33.6512262,31.709963 L32,33.3810871 L40.1743869,41.6539789 C40.6304009,42.1153404 41.3695991,42.1153404 41.8256131,41.6539789 L50,33.3810871 L48.3487738,31.709963 Z" id="Shape"></path>
            <rect id="Rectangle-path" x="38" y="29" width="3" height="3"></rect>
            <rect id="Rectangle-path" x="38" y="24" width="3" height="3"></rect>
            <rect id="Rectangle-path" x="43" y="24" width="3" height="3"></rect>
        </g>
    </g>
</svg>