<?xml version="1.0" encoding="UTF-8"?>
<svg width="80px" height="80px" viewBox="0 0 80 80" version="1.1" xmlns="http://www.w3.org/2000/svg" xmlns:xlink="http://www.w3.org/1999/xlink">
    <!-- Generator: Sketch 49.1 (51147) - http://www.bohemiancoding.com/sketch -->
    <title>teamwork copy</title>
    <desc>Created with Sketch.</desc>
    <defs></defs>
    <g id="home_page" stroke="none" stroke-width="1" fill="none" fill-rule="evenodd">
        <g id="teamwork" fill="#3E61FF" fill-rule="nonzero">
            <path d="M42.7838497,1.61915372 C41.9362616,0.59002926 40.7393898,0 39.5,0 C38.2606102,0 37.0635999,0.590186811 36.2161503,1.61915372 C35.3685623,2.64812064 34.9287029,4.04528472 35.0094453,5.45253207 L35.2357458,9.39855953 C35.2357458,9.39871708 35.2357458,9.39871708 35.2357458,9.39871708 C35.3253519,10.9589467 36.0494026,12.3860455 37.1727338,13.2163403 C37.8796111,13.7389377 38.689944,14 39.5001385,14 C40.3103329,14 41.1208044,13.7387801 41.8274047,13.2164979 C42.9505974,12.386203 43.6747866,10.9591042 43.7642542,9.39871708 L43.9905547,5.45253207 C44.0712971,4.04544227 43.6314377,2.64827819 42.7838497,1.61915372 Z M41.1717705,5.24346163 L40.94547,9.18933153 C40.9137547,9.74312402 40.6682034,10.2409858 40.2885893,10.5215845 C39.8093973,10.8756021 39.1907412,10.875287 38.7118262,10.5215845 C38.332212,10.2409858 38.0867993,9.74280891 38.054807,9.18933153 L37.8285065,5.24346163 C37.7981762,4.71204141 37.9575837,4.20519919 38.2777836,3.81652037 C38.597845,3.4279991 39.0318877,3.21388701 39.5,3.21388701 C39.9681123,3.21388701 40.4020165,3.4279991 40.7222164,3.81652037 C41.0426933,4.20519919 41.2021008,4.71204141 41.1717705,5.24346163 Z" id="Shape"></path>
            <path d="M52.9748014,25.0947391 L52.5367025,22.6145863 C51.9605088,19.3542231 49.4410919,16.7521476 46.2673874,16.1393629 C45.7881539,16.04693 45.2984047,16 44.8111298,16 L43.4914205,16 C43.0731157,16 42.671976,16.1704382 42.3761471,16.4735803 C41.8751091,16.987273 41.2089142,17.2702796 40.5000382,17.2702796 C39.7911622,17.2702796 39.1249673,16.987273 38.6239293,16.4735803 C38.3281004,16.1704382 37.9269607,16 37.5086559,16 L36.1889466,16 C35.7018263,16 35.2119225,16.04693 34.732689,16.1393629 C31.5589845,16.7518305 29.0395676,19.3540646 28.4633739,22.6145863 L28.025275,25.0947391 C27.9419233,25.5662583 28.0670281,26.0515711 28.3665684,26.4194004 C28.666418,26.7872297 29.1097748,27 29.5772556,27 L51.4229755,27 C51.8904563,27 52.333813,26.7873883 52.6333533,26.4194004 C52.9328936,26.0515711 53.0579985,25.5664168 52.9748014,25.0947391 Z M31.4660451,23.7657971 L31.5674898,23.1909052 C31.9121854,21.2404583 33.4190107,19.6838426 35.3167694,19.3174402 C35.6037837,19.2619487 35.897293,19.2338858 36.1892559,19.2338858 L36.9132867,19.2338858 C37.9322186,20.0573796 39.1826485,20.504324 40.5001928,20.504324 C41.8175825,20.504324 43.0681671,20.0575382 44.087099,19.2338858 L44.8111298,19.2338858 C45.102938,19.2338858 45.396602,19.2619487 45.6836163,19.3174402 C47.5815296,19.6838426 49.0880457,21.2404583 49.4328959,23.1909052 L49.5344953,23.7657971 L31.4660451,23.7657971 Z" id="Shape"></path>
            <path d="M42.7838497,56.6191537 C41.9362616,55.5900293 40.7393898,55 39.5,55 C38.2606102,55 37.0635999,55.5901868 36.2161503,56.6191537 C35.3685623,57.6482782 34.9287029,59.0454423 35.0094453,60.4525321 L35.2357458,64.3987171 C35.3253519,65.9591042 36.0495411,67.386203 37.1725953,68.2163403 C37.8797496,68.7389377 38.6898056,69 39.5001385,69 C40.3101944,69 41.1208044,68.7387801 41.8274047,68.2163403 C42.9504589,67.386203 43.6747866,65.9589467 43.7642542,64.3985595 L43.9905547,60.4523745 C44.0712971,59.0454423 43.6314377,57.6482782 42.7838497,56.6191537 Z M41.1717705,60.2431465 L40.94547,64.189174 C40.9137547,64.7428089 40.6682034,65.2406707 40.2884508,65.5212694 C39.8093973,65.875287 39.1907412,65.875287 38.7118262,65.5212694 C38.332212,65.2406707 38.0867993,64.7426514 38.054807,64.189174 L37.8285065,60.2433041 C37.7981762,59.7117263 37.9575837,59.2048841 38.2777836,58.8163628 C38.5977065,58.4278415 39.0318877,58.2137295 39.5,58.2137295 C39.9681123,58.2137295 40.402155,58.4278415 40.7222164,58.8163628 C41.0426933,59.2048841 41.2021008,59.7117263 41.1717705,60.2431465 Z" id="Shape"></path>
            <path d="M52.9748013,78.0947391 L52.5366996,75.6145863 C51.9605024,72.3542231 49.4410699,69.7521476 46.2673458,69.1393629 C45.7885732,69.04693 45.2986664,69 44.8110792,69 L43.4913617,69 C43.0730543,69 42.6719121,69.1704382 42.3760814,69.4735803 C41.3415243,70.5344191 39.6585521,70.5342606 38.623995,69.4735803 C38.3281643,69.1704382 37.9270222,69 37.5087147,69 L36.1889972,69 C35.7021833,69 35.2122764,69.04693 34.7327306,69.1393629 C31.5590065,69.7521476 29.039574,72.3542231 28.4633768,75.6147449 L28.0252751,78.0948977 C27.9419229,78.5664168 28.0670286,79.0517296 28.3665707,79.419559 C28.6664221,79.7873883 29.1097816,80 29.5772653,80 L51.4231203,80 C51.890604,80 52.3339635,79.7873883 52.6333511,79.4192419 C52.9328932,79.0515711 53.0579988,78.5664168 52.9748013,78.0947391 Z M31.4660665,76.7659556 L31.5673572,76.1912223 C31.9122096,74.2407754 33.4188896,72.6841597 35.3161961,72.3177573 C35.6035215,72.2622658 35.8971872,72.2342029 36.1889972,72.2342029 L36.9139604,72.2342029 C39.0109101,73.9243154 41.9897849,73.9243154 44.0864253,72.2342029 L44.8113884,72.2342029 C45.1033531,72.2342029 45.3970189,72.2622658 45.6838803,72.3175987 C47.5818054,72.6840012 49.0883308,74.2406169 49.4331831,76.1910637 L49.5347831,76.7659556 L31.4660665,76.7659556 Z" id="Shape"></path>
            <path d="M15.784132,29.6193295 C14.9365286,28.5901935 13.739635,28 12.5000842,28 C11.2605334,28 10.0633628,28.5901935 9.21589791,29.6193295 C8.36843297,30.648308 7.92870407,32.0454878 8.00944799,33.4524359 L8.23575257,37.3985077 C8.32522182,38.9587549 9.04928567,40.3860273 10.1726372,41.2163315 C10.8796659,41.7387772 11.6900136,42 12.5002227,42 C13.3104319,42 14.120918,41.7387772 14.8275312,41.216489 C15.9508828,40.3861849 16.6749466,38.9589124 16.7642774,37.3988229 L16.990582,33.4525934 C17.0711874,32.0456453 16.6314585,30.6481504 15.784132,29.6193295 Z M14.1717465,33.2432055 L13.945442,37.1894349 C13.9138646,37.7430761 13.6683089,38.240786 13.2885493,38.5213878 C12.8094872,38.8754094 12.1908198,38.8754094 11.7118961,38.5213878 C11.3321365,38.2406284 11.0867193,37.742761 11.054865,37.1894349 L10.8285604,33.2432055 C10.798091,32.7117793 10.9576399,32.2049314 11.2777071,31.8164058 C11.5977744,31.4277226 12.0319634,31.2136081 12.5000842,31.2136081 C12.9682051,31.2136081 13.4022556,31.4278801 13.7223228,31.8164058 C14.0423901,32.2049314 14.202216,32.7117793 14.1717465,33.2432055 Z" id="Shape"></path>
            <path d="M24.9747262,51.0948702 L24.5366259,48.6146817 C23.9604304,45.3542715 21.4410055,42.7521584 18.2672909,42.1393649 C17.7883651,42.0469306 17.2984597,42 16.810874,42 L15.4911605,42 C15.073009,42 14.6720227,42.1704406 14.3760382,42.4735871 C13.3414842,43.5342827 11.6585171,43.5344413 10.6239631,42.4735871 C10.3281333,42.1704406 9.92699233,42 9.50868614,42 L8.188818,42 C7.70200548,42 7.21194547,42.0469306 6.7327104,42.1393649 C3.55899583,42.7521584 1.03957091,45.3542715 0.463375401,48.6146817 L0.0252750567,51.0948702 C-0.0580768972,51.5663962 0.0670283546,52.0517159 0.366569606,52.4195506 C0.666420142,52.7873852 1.10977831,53 1.5772606,53 L23.42305,53 C23.8905323,53 24.3338904,52.7873852 24.6332771,52.4195506 C24.9329729,52.0517159 25.0580782,51.5667133 24.9747262,51.0948702 Z M3.46621073,49.7660675 L3.56765578,49.1911674 C3.91250709,47.240851 5.41918258,45.6840543 7.31694729,45.3176466 C7.60396255,45.2621543 7.89747277,45.234091 8.18928193,45.234091 L8.91362432,45.234091 C9.93255943,46.0575967 11.183148,46.5043889 12.5005419,46.5043889 C13.8179358,46.5043889 15.0685244,46.0575967 16.0874595,45.234091 L16.8114926,45.234091 C17.1033017,45.234091 17.396812,45.2621543 17.6838272,45.3176466 C19.5817466,45.6840543 21.0882674,47.240851 21.4331187,49.1911674 L21.5347184,49.7660675 L3.46621073,49.7660675 Z" id="Shape"></path>
            <path d="M68.7838313,29.6191537 C67.9362304,28.5900293 66.7393405,28 65.499932,28 C64.260385,28 63.0633565,28.5901868 62.2158942,29.6193113 C61.3684318,30.6482782 60.9287043,32.0455998 61.009448,33.4525321 L61.2357518,37.3985595 C61.3252208,38.9587891 62.049144,40.3860455 63.1724921,41.2163403 C63.8796571,41.7389377 64.6897253,42 65.5000705,42 C66.3101387,42 67.1207609,41.7387801 67.8273719,41.2163403 C68.95072,40.3860455 69.6749201,38.9587891 69.7642506,37.3985595 L69.9905545,33.4523745 C70.0712982,32.0452847 69.6314321,30.6481206 68.7838313,29.6191537 Z M67.1717277,33.2431465 L66.9454238,37.1893315 C66.9138465,37.7428089 66.6681531,38.2406707 66.2883947,38.5212694 C65.8097495,38.8751294 65.1909455,38.875287 64.7117463,38.5212694 C64.3321264,38.2406707 64.0867099,37.7428089 64.0548556,37.1893315 L63.8285518,33.2431465 C63.7980824,32.7117263 63.9577693,32.2048841 64.2776971,31.8163628 C64.5976249,31.4278415 65.0318126,31.2137295 65.499932,31.2137295 C65.9681899,31.2137295 66.4022391,31.4278415 66.7221669,31.8163628 C67.0426486,32.2048841 67.2020585,32.7117263 67.1717277,33.2431465 Z" id="Shape"></path>
            <path d="M79.974786,51.0948702 L79.5366846,48.6146817 C78.9604878,45.3542715 76.4410568,42.7521584 73.2673346,42.1393649 C72.7880984,42.0469306 72.2983465,42 71.8110689,42 L70.4911976,42 C70.0730451,42 69.6720578,42.1704406 69.3760726,42.4735871 C68.3415162,43.5342827 66.658545,43.5344413 65.6239886,42.4735871 C65.328158,42.1704406 64.9270161,42 64.5087089,42 L63.1889922,42 C62.7017146,42 62.2118081,42.0469306 61.7328812,42.1393649 C58.5590044,42.7521584 56.0395734,45.3542715 55.4633765,48.6146817 L55.0252751,51.0948702 C54.941923,51.5663962 55.0670285,52.0517159 55.3665705,52.4195506 C55.6664217,52.7873852 56.109781,53 56.5772644,53 L78.4231061,53 C78.8905895,53 79.3339487,52.7873852 79.633336,52.4195506 C79.9330326,52.0517159 80.0579835,51.5667133 79.974786,51.0948702 Z M58.4660644,49.7660675 L58.5676643,49.1911674 C58.9123618,47.240851 60.4190409,45.6840543 62.3171194,45.3176466 C62.6039808,45.2621543 62.897337,45.234091 63.1893015,45.234091 L63.9133364,45.234091 C64.9322739,46.0575967 66.1828655,46.5043889 67.5002625,46.5043889 C68.8176596,46.5043889 70.0682511,46.0575967 71.0871887,45.234091 L71.8113782,45.234091 C72.1030334,45.234091 72.396699,45.2621543 72.6837149,45.3176466 C74.5816388,45.6840543 76.0881633,47.240851 76.4330154,49.1911674 L76.5346153,49.7660675 L58.4660644,49.7660675 Z" id="Shape"></path>
            <path d="M32.9119007,10.207231 C32.6180239,9.27827536 31.6756645,8.7799303 30.8065708,9.09405137 C24.2294297,11.4738145 18.3709434,16.124861 14.3103969,22.1899746 C13.7766971,22.987466 13.9483016,24.096989 14.6939834,24.6679441 C14.9868833,24.8922168 15.3247194,25 15.6592994,25 C16.1767178,25 16.6868097,24.7419471 17.0108068,24.2577061 C20.6698575,18.7922782 25.9472655,14.6019658 31.8710396,12.45849 C32.7399705,12.1441948 33.2059402,11.1361866 32.9119007,10.207231 Z" id="Shape"></path>
            <path d="M66.6824327,19.7063277 C63.7594259,16.2210486 59.9022622,13.2742951 55.527325,11.1847195 C54.7093759,10.7940078 53.6743281,11.0433015 53.2164897,11.742006 C52.7584848,12.4407105 53.0510019,13.323898 53.869284,13.7148939 C57.8110229,15.5978144 61.286932,18.2533463 63.921251,21.3941055 C64.252726,21.7895075 64.7741623,22 65.3034235,22 C65.6453871,22 65.990847,21.9120224 66.2901901,21.7288185 C67.0530321,21.2627786 67.2283426,20.3571348 66.6824327,19.7063277 Z" id="Shape"></path>
            <path d="M51.6871572,9.32495016 C51.345862,9.23849675 50.997481,9.15366688 50.651462,9.07330174 C49.6010049,8.82868864 48.4619763,9.2163084 48.1063128,9.93810644 C47.7512398,10.6599045 48.3145541,11.4431264 49.3646176,11.6874689 C49.6759953,11.7598516 49.989735,11.8361579 50.2969795,11.9142231 C50.5264779,11.9723998 50.7610937,12 50.9919699,12 C51.8085985,12 52.5762175,11.6548628 52.8751953,11.097448 C53.2592016,10.3824147 52.7273794,9.58891042 51.6871572,9.32495016 Z" id="Shape"></path>
            <path d="M31.8711209,67.5412168 C25.9473585,65.3981084 20.6699609,61.2076595 17.0109174,55.7421064 C16.4768931,54.9447963 15.439616,54.7610963 14.6940985,55.3320463 C13.9482554,55.9031704 13.7766512,57.0125093 14.3105127,57.8099936 C18.3710513,63.8752269 24.2296888,68.5260576 30.8066541,70.9057993 C30.9831427,70.9695284 31.1625618,71 31.3390503,71 C32.031491,71 32.677693,70.5330016 32.9119799,69.7926297 C33.2058561,68.8636825 32.7398873,67.8556833 31.8711209,67.5412168 Z" id="Shape"></path>
            <path d="M66.3059697,55.3320056 C65.5602866,54.7610415 64.5228428,54.9449202 63.9891421,55.7420759 C60.3300851,61.2077647 55.0526678,65.3981435 49.1288833,67.541305 C48.2601137,67.8556052 47.7941432,68.8636294 48.0880204,69.7927739 C48.3221454,70.5331641 48.9685126,71 49.6609558,71 C49.8372822,71 50.0168648,70.9697018 50.1931912,70.9059711 C56.8655894,68.4916931 62.5699021,63.9631586 66.6895569,57.8098403 C67.2232575,57.0123362 67.0518156,55.9029698 66.3059697,55.3320056 Z" id="Shape"></path>
        </g>
    </g>
</svg>