<?xml version="1.0" encoding="UTF-8"?>
<svg width="62px" height="61px" viewBox="0 0 62 61" version="1.1" xmlns="http://www.w3.org/2000/svg" xmlns:xlink="http://www.w3.org/1999/xlink">
    <!-- Generator: Sketch 49.1 (51147) - http://www.bohemiancoding.com/sketch -->
    <title>group_12</title>
    <desc>Created with Sketch.</desc>
    <defs></defs>
    <g id="home" stroke="none" stroke-width="1" fill="none" fill-rule="evenodd">
        <g id="Group-12" fill="#3E61FF">
            <path d="M39.2148,26.625 L29.7768,35.909 C29.4598,36.226 29.0448,36.384 28.6308,36.384 C28.2138,36.384 27.7998,36.226 27.4838,35.909 L24.2398,32.666 C23.6078,32.032 23.6078,31.01 24.2398,30.375 C24.8738,29.74 25.8988,29.74 26.5318,30.375 L28.6308,32.471 L36.9228,24.332 C37.5568,23.698 38.5818,23.698 39.2148,24.332 C39.8508,24.966 39.8508,25.991 39.2148,26.625 M31.0568,10.848 C20.4188,10.848 11.7658,19.503 11.7658,30.141 C11.7658,40.778 20.4188,49.433 31.0568,49.433 C41.6938,49.433 50.3478,40.778 50.3478,30.141 C50.3478,19.503 41.6938,10.848 31.0568,10.848" id="Fill-386"></path>
            <path d="M31.0566,53.291 C18.2736,53.291 7.9066,42.921 7.9066,30.141 C7.9066,17.358 18.2736,6.989 31.0566,6.989 C43.8426,6.989 54.2066,17.358 54.2066,30.141 C54.2066,42.924 43.8426,53.291 31.0566,53.291 M60.0136,27.394 L58.7936,26.228 C57.2166,24.715 56.4216,21.76 57.0356,19.661 L57.5096,18.045 C58.1216,15.945 56.8846,13.8 54.7576,13.283 L53.1266,12.886 C51.0006,12.37 48.8356,10.204 48.3156,8.077 L47.9126,6.443 C47.3926,4.316 45.2516,3.077 43.1476,3.691 L41.5356,4.166 C39.4326,4.779 36.4776,3.988 34.9686,2.402 L33.8036,1.187 C32.2916,-0.395 29.8196,-0.395 28.3056,1.187 L27.1436,2.402 C25.6306,3.984 22.6756,4.774 20.5766,4.166 L18.9646,3.691 C16.8666,3.077 14.7206,4.316 14.2026,6.443 L13.7976,8.077 C13.2816,10.204 11.1156,12.37 8.9906,12.886 L7.3506,13.283 C5.2246,13.8 3.9886,15.94 4.6036,18.045 L5.0776,19.661 C5.6916,21.76 4.9006,24.72 3.3196,26.228 L2.1026,27.394 C0.5216,28.905 0.5216,31.379 2.1026,32.892 L3.3196,34.053 C4.9006,35.565 5.6916,38.517 5.0776,40.616 L4.6036,42.24 C3.9886,44.339 5.2246,46.485 7.3506,46.998 L8.9866,47.399 C11.1136,47.916 13.2776,50.082 13.7976,52.206 L14.1956,53.839 C14.7156,55.965 16.8576,57.204 18.9606,56.59 L20.5736,56.115 C22.6726,55.501 25.6306,56.296 27.1396,57.88 L28.3006,59.09 C29.8146,60.671 32.2866,60.671 33.7986,59.09 L34.9616,57.88 C36.4736,56.296 39.4256,55.501 41.5286,56.115 L43.1416,56.59 C45.2436,57.204 47.3896,55.965 47.9066,53.839 L48.3076,52.206 C48.8276,50.082 50.9926,47.916 53.1186,47.395 L54.7506,46.998 C56.8766,46.478 58.1156,44.335 57.5016,42.233 L57.0266,40.616 C56.4126,38.515 57.2076,35.558 58.7906,34.05 L60.0016,32.889 C61.5916,31.375 61.5916,28.902 60.0136,27.394" id="Fill-388"></path>
        </g>
    </g>
</svg>