<?xml version="1.0" encoding="UTF-8"?>
<svg width="54px" height="54px" viewBox="0 0 54 54" version="1.1" xmlns="http://www.w3.org/2000/svg" xmlns:xlink="http://www.w3.org/1999/xlink">
    <!-- Generator: Sketch 49.1 (51147) - http://www.bohemiancoding.com/sketch -->
    <title>group_10</title>
    <desc>Created with Sketch.</desc>
    <defs></defs>
    <g id="home" stroke="none" stroke-width="1" fill="none" fill-rule="evenodd">
        <g id="Group-10" fill="#3E61FF">
            <path d="M52.5283,6.5195 L47.2573,1.2575 C46.2313,0.2325 44.5533,0.2325 43.5273,1.2575 C42.5033,2.2845 42.5033,3.9525 43.5273,4.9765 L48.7993,10.2395 C49.8563,11.2855 51.4523,11.3165 52.5283,10.2395 C53.5653,9.2125 53.5653,7.5445 52.5283,6.5195" id="Fill-370"></path>
            <path d="M5.1919,10.2275 L10.4649,4.9655 C11.4899,3.9405 11.4899,2.2735 10.4649,1.2485 C9.4389,0.2225 7.7599,0.2225 6.7349,1.2485 L1.4629,6.5095 C0.4369,7.5355 0.4369,9.2025 1.4629,10.2275 C2.5399,11.3065 4.1349,11.2855 5.1919,10.2275" id="Fill-372"></path>
            <path d="M29.6367,30.6543 C29.6367,31.4303 29.0047,32.0633 28.2227,32.0633 L19.6417,32.0633 C18.8597,32.0633 18.2277,31.4303 18.2277,30.6543 C18.2277,29.8773 18.8597,29.2463 19.6417,29.2463 L26.8067,29.2463 L26.8067,18.8143 C26.8067,18.0403 27.4407,17.4053 28.2227,17.4053 C29.0047,17.4053 29.6367,18.0403 29.6367,18.8143 L29.6367,30.6543 Z M26.9957,5.7533 C13.9037,5.7533 3.2547,16.3723 3.2547,29.4223 C3.2547,36.3413 6.2697,42.5563 11.0237,46.8863 L9.3037,48.6063 C8.2787,49.6323 8.2787,51.2993 9.3037,52.3243 C10.5267,53.5373 12.4117,53.0913 13.0347,52.3243 L15.3437,50.0253 C18.7917,51.9733 22.7597,53.1013 26.9957,53.1013 C31.2327,53.1013 35.1987,51.9733 38.6487,50.0253 L40.9587,52.3243 C42.0347,53.3903 43.8897,53.1233 44.6877,52.3243 C45.7127,51.2993 45.7127,49.6323 44.6877,48.6063 L42.9687,46.8863 C47.7337,42.5563 50.7377,36.3413 50.7377,29.4223 C50.7377,16.3723 40.0877,5.7533 26.9957,5.7533 Z" id="Fill-374"></path>
        </g>
    </g>
</svg>