<svg width="491" height="158" xmlns="http://www.w3.org/2000/svg"><title>tryangle</title><g id="home_page" fill="none" fill-rule="evenodd"><g id="tryangle"><g id="Group-24" transform="translate(0 72)"><g id="Group-26"><path id="Path-11" fill="#03CAFF" d="M0 84.75L147.874 0v84.75z"/><path id="Path-11" fill="#486BFF" transform="matrix(-1 0 0 1 441.874 0)" d="M147 84.75L294.874 0v84.75z"/></g></g><g id="Group-23" transform="translate(220 56)"><g id="Group-25"><path id="Path-11-Copy" fill="#03CAFF" d="M.077 57.853L96 0v100.883H75.197z"/><path id="Path-11-Copy-2" fill="#3245AE" transform="matrix(-1 0 0 1 288.953 0)" d="M95.953 56.5l97-56.5.047 101.027h-15.361z"/><path id="Path-16" fill="#03CAFF" d="M191.994 56l78.759 45H110.875z"/></g></g><g id="Group-23-Copy-4" transform="translate(171)"><path id="Path-11-Copy" fill="#03CAFF" d="M0 45.5L46 19v53z"/><path id="Path-11-Copy-2" fill="#3245AE" transform="matrix(-1 0 0 1 148 0)" d="M51 26.5L97 0v53z"/></g></g></g></svg>