<?xml version="1.0" encoding="UTF-8"?>
<svg width="35px" height="29px" viewBox="0 0 35 29" version="1.1" xmlns="http://www.w3.org/2000/svg" xmlns:xlink="http://www.w3.org/1999/xlink">
    <!-- Generator: Sketch 49.1 (51147) - http://www.bohemiancoding.com/sketch -->
    <title>twitter (1) copy</title>
    <desc>Created with Sketch.</desc>
    <defs></defs>
    <g id="home" stroke="none" stroke-width="1" fill="none" fill-rule="evenodd">
        <g id="twitter-(1)-copy" fill="#020F3E" fill-rule="nonzero">
            <path d="M13.3174984,29 C7.47598242,29 2.85905931,27.9757531 0.65019938,26.1904228 L0.607207737,26.1555845 L0.568221607,26.1164584 C0.043510579,25.5895957 -0.128455789,24.8984569 0.0969162833,24.2204495 L0.117477462,24.1641721 C0.390914669,23.4778571 1.06088921,23.0158473 1.78693978,23.0115595 C3.28123139,22.9855647 4.58860303,22.8068173 5.77501077,22.459774 C3.88257962,21.5764884 2.56799819,20.0470858 1.78587167,17.8335121 C1.52284859,17.1431772 1.7498228,16.3778059 2.35597758,15.9214239 C2.50551355,15.8086013 2.67454259,15.7233814 2.85345173,15.6663002 C1.80189338,14.4480306 1.02510742,13.0617332 0.590117912,11.5955756 L0.576499508,11.5500178 L0.567153493,11.503388 C0.419486738,10.7618676 0.749801002,9.9994442 1.35515468,9.67115997 C1.60909875,9.52483903 1.88493926,9.44899866 2.16184782,9.44256697 C1.8633099,8.79725395 1.64621573,8.13478976 1.51750802,7.46830574 C1.16022382,5.62133841 1.45502331,3.76981532 2.39336157,1.96518993 L2.61045574,1.52944289 C2.78429133,1.18079165 3.11647481,0.935851371 3.49939367,0.873410386 C3.88231261,0.811237371 4.2748445,0.938263238 4.54908281,1.21348604 L4.94455203,1.61091098 C8.06878574,4.89804112 10.8672446,6.45772624 15.7055344,7.52485104 C15.9215605,5.66100051 16.7245153,3.92846371 18.0198707,2.56494517 C19.5614263,0.942551032 21.6199492,0.0321987567 23.8162588,0.00111224919 L23.8306783,0.00111224919 C25.4331164,0.00111224919 27.4208768,0.919236203 28.6230392,1.56669312 C29.6543033,1.22795738 30.896787,0.703506509 32.1860008,0.149041147 C32.7892182,-0.135025215 33.5328926,-0.00505145831 34.0071352,0.470893677 C34.4720319,0.937459259 34.6010067,1.59536769 34.3542724,2.23478502 C34.2605454,2.49660844 34.154268,2.75360811 34.0359744,3.00498001 C34.2124802,3.08618013 34.3740325,3.19632286 34.5104841,3.3332643 C34.9230431,3.74730441 35.0950095,4.39529726 34.9484108,4.98433301 L34.9326561,5.04034231 C34.4386533,6.63808156 33.489634,7.93942708 32.2345999,8.75625187 C32.0249826,19.9583821 23.6194587,29 13.3174984,29 Z M2.61846663,25.0431699 C4.69995391,26.2249932 8.66666261,26.9399829 13.3174984,26.9399829 C17.7888909,26.9399829 22.0084757,25.0134233 25.1986654,21.5151193 C28.415024,17.9881407 30.1862241,13.3045296 30.1862241,8.32693651 L30.1862241,8.27092722 C30.1862241,7.82017283 30.4334926,7.40881263 30.831365,7.19710276 C31.6385923,6.76805537 32.2922781,6.03725444 32.7173875,5.10278329 C32.2789266,5.17219198 31.8332561,4.99558844 31.5600859,4.62737415 C31.242589,4.19939872 31.2391176,3.62135042 31.5512739,3.1896232 C31.719769,2.95647436 31.8725093,2.71394602 32.0086938,2.46311006 C30.8954519,2.93235555 29.838286,3.35309532 28.9205089,3.63260591 C28.5869903,3.73390501 28.2152866,3.69424292 27.9106071,3.52353513 C26.2766596,2.60996701 24.754864,2.0638092 23.837354,2.06112936 C20.4516994,2.11311883 17.6989023,5.02319113 17.6989023,8.55150977 C17.6989023,8.91624024 17.5376171,9.25819182 17.2569701,9.49000067 C16.9760562,9.72154156 16.6107612,9.81426514 16.2540111,9.74351653 C10.6752511,8.64048142 7.36943809,6.98646491 3.93171287,3.51951531 C3.43904526,4.70428641 3.30446289,5.89763316 3.5322382,7.07597257 C3.76321785,8.26958723 4.37765046,9.46561383 5.30931303,10.5346146 C5.66339281,10.940347 5.71038983,11.5208072 5.42627149,11.9787972 C5.14322125,12.4351792 4.60515883,12.6484971 4.08792454,12.5094117 C3.68364339,12.4006089 3.31193969,12.2577718 2.95946204,12.0742006 C3.67750171,13.6395134 4.91250861,15.0871799 6.46501247,16.1548406 C6.91495551,16.4643658 7.10294359,17.0413422 6.92243231,17.5580213 C6.74165402,18.0755045 6.23670307,18.4086125 5.69089677,18.3678784 C5.09622423,18.3236606 4.56937698,18.210302 4.08445318,18.0192272 C4.95496616,19.7983938 6.34591771,20.7773508 8.48882165,21.1514608 C8.99911311,21.2407005 9.39645155,21.6450931 9.47762822,22.1577524 C9.55907197,22.6704119 9.30619594,23.1785155 8.84877603,23.4221158 C7.02230094,24.3938371 5.02599578,24.9153401 2.61846663,25.0431699 Z" id="Shape"></path>
        </g>
    </g>
</svg>