<?xml version="1.0" encoding="UTF-8"?>
<svg width="512px" height="512px" viewBox="0 0 512 512" version="1.1" xmlns="http://www.w3.org/2000/svg" xmlns:xlink="http://www.w3.org/1999/xlink">
    <!-- Generator: Sketch 49.1 (51147) - http://www.bohemiancoding.com/sketch -->
    <title>united_states_1</title>
    <desc>Created with Sketch.</desc>
    <defs></defs>
    <g id="home" stroke="none" stroke-width="1" fill="none" fill-rule="evenodd">
        <g id="united-states-(1)" fill-rule="nonzero">
            <circle id="Oval" fill="#F0F0F0" cx="256" cy="256" r="256"></circle>
            <g id="Group" transform="translate(8.000000, 55.000000)" fill="#D80027">
                <path d="M236.87,201 L504,201 C504,177.894 500.92,155.51 495.181,134.217 L236.87,134.217 L236.87,201 Z" id="Shape"></path>
                <path d="M236.87,67.435 L466.426,67.435 C450.755,41.863 430.718,19.26 407.356,0.652 L236.87,0.652 L236.87,67.435 Z" id="Shape"></path>
                <path d="M248,457 C308.249,457 363.626,436.176 407.356,401.348 L88.644,401.348 C132.374,436.176 187.751,457 248,457 Z" id="Shape"></path>
                <path d="M29.574,334.565 L466.426,334.565 C479.007,314.036 488.764,291.596 495.181,267.782 L0.819,267.782 C7.236,291.596 16.993,314.036 29.574,334.565 Z" id="Shape"></path>
            </g>
            <path d="M118.584,39.978 L141.913,39.978 L120.213,55.743 L128.502,81.252 L106.803,65.487 L85.104,81.252 L92.264,59.215 C73.158,75.13 56.412,93.776 42.612,114.552 L50.087,114.552 L36.274,124.587 C34.122,128.177 32.058,131.824 30.08,135.525 L36.676,155.826 L24.37,146.885 C21.311,153.366 18.513,159.993 15.998,166.758 L23.265,189.126 L50.087,189.126 L28.387,204.891 L36.676,230.4 L14.977,214.635 L1.979,224.079 C0.678,234.537 0,245.189 0,256 L256,256 C256,114.616 256,97.948 256,0 C205.428,0 158.285,14.67 118.584,39.978 Z M128.502,230.4 L106.803,214.635 L85.104,230.4 L93.393,204.891 L71.693,189.126 L98.515,189.126 L106.803,163.617 L115.091,189.126 L141.913,189.126 L120.213,204.891 L128.502,230.4 Z M120.213,130.317 L128.502,155.826 L106.803,140.061 L85.104,155.826 L93.393,130.317 L71.693,114.552 L98.515,114.552 L106.803,89.043 L115.091,114.552 L141.913,114.552 L120.213,130.317 Z M220.328,230.4 L198.629,214.635 L176.93,230.4 L185.219,204.891 L163.519,189.126 L190.341,189.126 L198.629,163.617 L206.917,189.126 L233.739,189.126 L212.039,204.891 L220.328,230.4 Z M212.039,130.317 L220.328,155.826 L198.629,140.061 L176.93,155.826 L185.219,130.317 L163.519,114.552 L190.341,114.552 L198.629,89.043 L206.917,114.552 L233.739,114.552 L212.039,130.317 Z M212.039,55.743 L220.328,81.252 L198.629,65.487 L176.93,81.252 L185.219,55.743 L163.519,39.978 L190.341,39.978 L198.629,14.469 L206.917,39.978 L233.739,39.978 L212.039,55.743 Z" id="Shape" fill="#0052B4"></path>
        </g>
    </g>
</svg>