<?xml version="1.0" encoding="UTF-8"?>
<svg width="29px" height="29px" viewBox="0 0 29 29" version="1.1" xmlns="http://www.w3.org/2000/svg" xmlns:xlink="http://www.w3.org/1999/xlink">
    <!-- Generator: Sketch 49.1 (51147) - http://www.bohemiancoding.com/sketch -->
    <title>whatsapp copy</title>
    <desc>Created with Sketch.</desc>
    <defs></defs>
    <g id="home" stroke="none" stroke-width="1" fill="none" fill-rule="evenodd">
        <g id="whatsapp-copy" fill="#020F3E" fill-rule="nonzero">
            <path d="M24.8809438,4.11905669 C22.2245872,1.4626999 18.6936199,0 14.936754,0 C14.9365327,0 14.9356477,0 14.9354264,0 C13.0773486,0.000221252441 11.2666188,0.359977736 9.55390388,1.06953427 C7.8409677,1.77909087 6.30636095,2.80503848 4.99234283,4.11905669 C2.33620759,6.77519229 0.873507855,10.3068237 0.873507855,14.0632477 C0.873507855,16.3034287 1.41402752,18.5296707 2.43820494,20.5131988 L0.0743441282,27.2662659 C-0.092258927,27.7426224 0.0256685966,28.2603531 0.382769968,28.6172333 C0.632563988,28.8672485 0.96134505,29 1.29941874,29 C1.44433909,29 1.59080822,28.9756622 1.73373725,28.9256592 L8.48680352,26.5620193 C10.4703314,27.5861969 12.6965732,28.1267166 14.936754,28.1267166 C18.6931774,28.1267166 22.2245872,26.6637955 24.8809438,24.0076599 C27.537079,21.3515244 29,17.8198929 29,14.0634689 C29,10.3068237 27.5373003,6.77519229 24.8809438,4.11905669 Z M23.6782156,22.8049316 C21.3433389,25.1400299 18.238725,26.4257278 14.936754,26.4257278 C12.9167194,26.4257278 10.90996,25.9261398 9.13330305,24.9805069 C8.81115954,24.8092575 8.43038414,24.779831 8.08854917,24.8995285 L1.95321965,27.0467834 L4.10069562,20.9114532 C4.22039317,20.5691757 4.19074532,20.1884003 4.01949597,19.866478 C3.07408441,18.0902634 2.57427519,16.0835037 2.57427519,14.0632477 C2.57427519,10.7612763 3.86019423,7.65666202 6.19507097,5.32178496 C8.52972646,2.9871292 11.6338979,1.70121001 14.9356477,1.70076753 L14.936754,1.70076753 C18.2389463,1.70076753 21.3433389,2.98668672 23.6782156,5.32178496 C26.0133136,7.65666202 27.2992327,10.761055 27.2992327,14.0632477 C27.2992327,17.3654404 26.0133136,20.4700546 23.6782156,22.8049316 Z" id="Shape"></path>
            <path d="M19.6606448,14.676776 C19.0281644,14.0442589 17.9989779,14.0442589 17.3664976,14.676776 L16.6747493,15.3685645 C14.957059,14.4325517 13.5670732,13.042485 12.6308985,11.324695 L13.3226468,10.6329064 C13.9553434,10.0003894 13.9553434,8.97114302 13.3226468,8.33862593 L11.458517,6.47438778 C10.8260367,5.84187074 9.79685022,5.84187074 9.1643699,6.47438778 L7.67315258,7.96569177 C6.81895807,8.81993594 6.77634569,10.2885264 7.55310249,12.1010643 C8.22754626,13.6747858 9.4617914,15.4044735 11.0284996,16.9712728 C12.5952079,18.5380721 14.324795,19.772389 15.8984251,20.446872 C16.7595414,20.8159124 17.5427874,21 18.2196106,21 C18.9673823,21 19.5851538,20.7752444 20.0335572,20.3268149 L21.5247745,18.8352946 L21.5247745,18.8355109 C21.8312809,18.5289867 22,18.1216578 22,17.6883706 C22,17.2548672 21.8312809,16.8475383 21.5247745,16.5412304 L19.6606448,14.676776 Z M18.8577149,19.1509042 C18.6139374,19.3946958 17.8642189,19.4801419 16.5536176,18.9185775 C15.1696883,18.3254305 13.6250433,17.2161461 12.204342,15.7953621 C10.7836406,14.3745782 9.67463704,12.8300597 9.08152448,11.44605 C8.51977641,10.1353725 8.60521751,9.38539413 8.84899493,9.14160248 L10.3116598,7.6788526 L12.118252,9.4857662 L11.2523769,10.3519079 C10.8608621,10.7434455 10.7663361,11.3372415 11.017468,11.8295838 C12.1558893,14.0619971 13.9376063,15.8438176 16.1698898,16.9823051 C16.6624198,17.2334516 17.2561813,17.1391365 17.6476961,16.7473825 L18.5135712,15.8814571 L20.3203797,17.6883706 L18.8577149,19.1509042 Z" id="Shape"></path>
        </g>
    </g>
</svg>