<?xml version="1.0" encoding="UTF-8"?>
<svg width="38px" height="29px" viewBox="0 0 38 29" version="1.1" xmlns="http://www.w3.org/2000/svg" xmlns:xlink="http://www.w3.org/1999/xlink">
    <!-- Generator: Sketch 49.1 (51147) - http://www.bohemiancoding.com/sketch -->
    <title>youtube copy</title>
    <desc>Created with Sketch.</desc>
    <defs></defs>
    <g id="home" stroke="none" stroke-width="1" fill="none" fill-rule="evenodd">
        <g id="youtube-copy" fill="#020F3E" fill-rule="nonzero">
            <path d="M24.2313023,12.7079214 L16.1868856,8.18827598 C15.7243393,7.92840498 15.1776179,7.93810376 14.7242392,8.21394933 C14.2705827,8.49008015 14,8.9778732 14,9.51929503 L14,18.4809953 C14,19.0198497 14.2689158,19.506787 14.7195165,19.7832031 C14.9548179,19.9275442 15.2156773,20 15.4770924,20 C15.7165608,20 15.9565848,19.9392398 16.1774403,19.8171489 L24.2221348,15.3753793 C24.6996825,15.1115146 24.997768,14.6017566 24.9999904,14.0446456 C25.001935,13.4875345 24.7074611,12.9754944 24.2313023,12.7079214 Z M16.1338248,17.3536512 L16.1338248,10.6557673 L22.1460935,14.0338058 L16.1338248,17.3536512 Z" id="Shape"></path>
            <path d="M37.7202323,6.84454452 L37.7184928,6.82701763 C37.6863122,6.51883638 37.3659564,3.77763004 36.0433652,2.38336559 C34.5146445,0.743432432 32.781534,0.5442101 31.948029,0.448688505 C31.8790293,0.440801383 31.8158279,0.433498529 31.7592945,0.425903504 L31.692904,0.418892746 C26.6692607,0.0508280321 19.0824807,0.000584229824 19.0065231,0.000292114912 L18.9998551,0 L18.993187,0.000292114912 C18.9172294,0.000584229824 11.3304494,0.0508280321 6.26157947,0.418892746 L6.19460913,0.425903504 C6.14068495,0.433206433 6.08125243,0.43992502 6.01660142,0.447520045 C5.19266365,0.543333736 3.4781076,0.74284824 1.94503824,2.44208066 C0.685358541,3.82144724 0.321225577,6.5039385 0.283826589,6.80540109 L0.279477848,6.84454452 C0.268171153,6.97278299 0,10.0256759 0,13.0905455 L0,15.9556086 C0,19.0204782 0.268171153,22.0733712 0.279477848,22.2019018 L0.28150727,22.2211814 C0.313687755,22.5243966 0.633753673,25.2153592 1.95025675,26.6102079 C3.38765419,28.1952234 5.20512993,28.4049619 6.18272265,28.5177183 C6.3372472,28.5355373 6.47031811,28.5507272 6.56106142,28.5667936 L6.64890561,28.5790624 C9.54950297,28.8571558 18.6438397,28.9941577 19.0294264,28.9997079 L19.041023,29 L19.0526196,28.9997079 C19.1285772,28.9994157 26.7150672,28.949172 31.7387105,28.5811072 L31.805101,28.5740964 C31.8685923,28.5656251 31.9399113,28.5580302 32.0181884,28.5498509 C32.8374875,28.4622165 34.5427663,28.2802289 36.0546719,26.6040735 C37.3143516,25.2244148 37.6787744,22.5419235 37.7158835,22.240753 L37.7202323,22.2016097 C37.731539,22.0730791 38,19.0204782 38,15.9556086 L38,13.0905455 C37.9997101,10.0256759 37.731539,6.97307508 37.7202323,6.84454452 Z M35.7728747,15.9556086 C35.7728747,18.7923365 35.527027,21.7137777 35.5038338,21.9819393 C35.4093215,22.7206979 35.0251845,24.4178855 34.4114349,25.0900419 C33.465153,26.1390265 32.4930688,26.2430195 31.7833574,26.3186772 C31.6975426,26.3277328 31.618106,26.3364963 31.5462071,26.3455518 C26.6872354,26.699595 19.3868913,26.7539285 19.0505902,26.7559732 C18.673411,26.7504231 9.71214515,26.6122527 6.89997177,26.3490572 C6.75588415,26.3253959 6.60019993,26.3072847 6.43610813,26.2885893 C5.60376277,26.1924836 4.46439772,26.0610319 3.58827522,25.0900419 L3.56769125,25.0678412 C2.96466851,24.4348282 2.59154824,22.8477679 2.49674609,21.9907027 C2.47906131,21.787975 2.22683541,18.8320641 2.22683541,15.9556086 L2.22683541,13.0905455 C2.22683541,10.2570309 2.47210335,7.33880295 2.49587633,7.06509122 C2.60865323,6.19488096 3.00003815,4.60051773 3.58827522,3.95611227 C4.56354854,2.8752871 5.59187629,2.75551995 6.27201632,2.67635679 C6.33695723,2.66876184 6.39754948,2.66175108 6.45350301,2.65444822 C11.3832139,2.29865222 18.7360326,2.24577944 18.9998551,2.24373462 C19.2636775,2.24548735 26.6138869,2.29865222 31.4998207,2.65444822 C31.5598331,2.66204317 31.6253538,2.6696382 31.6958031,2.67781742 C32.3953675,2.75814896 33.4526867,2.87966876 34.4230315,3.92251904 L34.4320189,3.93215881 C35.0350416,4.56517184 35.4081619,6.17998308 35.502964,7.05428299 C35.5197791,7.24561828 35.7728747,10.2079556 35.7728747,13.0905455 L35.7728747,15.9556086 Z" id="Shape"></path>
        </g>
    </g>
</svg>