<svg width="576px" height="1240px" viewBox="0 0 576 1240" version="1.1" xmlns="http://www.w3.org/2000/svg" xmlns:xlink="http://www.w3.org/1999/xlink">
    <g id="offwhite">
        <path d="M0,0 L575.788033,0 L575.788033,1240 L0.0766533107,1240 L0,0 Z M252.465452,369.995459 L188.209968,332.876324 L119.510613,372.523027 L183.49513,408.865838 L252.465452,369.995459 Z M252.013839,456.456324 L118.788033,380.77373 L118.788033,450.444324 L190.648678,491.697838 L252.013839,456.456324 Z M398.083517,372.523027 L258.788033,292.146378 L195.742871,328.543351 L334.821581,408.865838 L398.083517,372.523027 Z M118.788033,459.128324 L118.788033,534.504 L187.252549,574.00627 L252.844807,536.092757 L118.788033,459.128324 Z M258.788033,615.277838 L398.788033,534.504 L398.788033,460.44627 L194.785452,578.357297 L258.788033,615.277838 Z M260.37771,531.74173 L398.788033,451.744216 L398.788033,380.809838 L198.21771,496.048865 L260.37771,531.74173 Z" id="Combined-Shape-Copy" fill="#FFFFFF"></path>
        <g id="Group-Copy" transform="translate(121.000000, 644.000000)">
            <path d="M12.0349367,132.773793 L12.0349367,182.507586 L0,182.507586 L0,132.773793 L12.0349367,132.773793 Z M64.5382278,182.507586 L52.5032911,182.507586 L32.3746835,151.977931 L32.3746835,182.507586 L20.3397468,182.507586 L20.3397468,132.773793 L32.3746835,132.773793 L52.5032911,163.584828 L52.5032911,132.773793 L64.5382278,132.773793 L64.5382278,182.507586 Z M129.921013,132.773793 L112.677975,165.976552 L112.677975,182.507586 L100.572658,182.507586 L100.572658,165.976552 L83.3296203,132.773793 L97.1240506,132.773793 L106.695696,153.033103 L116.267342,132.773793 L129.921013,132.773793 Z M158.213671,132 C162.905677,132 167.16361,133.090334 170.987595,135.271034 C174.81158,137.451735 177.826149,140.476532 180.031392,144.345517 C182.236635,148.214502 183.339241,152.587562 183.339241,157.464828 C183.339241,162.342093 182.224906,166.726877 179.996203,170.61931 C177.767499,174.511744 174.741201,177.548265 170.917215,179.728966 C167.09323,181.909666 162.858757,183 158.213671,183 C153.568584,183 149.334112,181.909666 145.510127,179.728966 C141.686141,177.548265 138.659842,174.511744 136.431139,170.61931 C134.202436,166.726877 133.088101,162.342093 133.088101,157.464828 C133.088101,152.587562 134.202436,148.214502 136.431139,144.345517 C138.659842,140.476532 141.686141,137.451735 145.510127,135.271034 C149.334112,133.090334 153.568584,132 158.213671,132 Z M158.213671,143.184828 C154.272385,143.184828 151.140518,144.462746 148.817975,147.018621 C146.495431,149.574496 145.334177,153.05653 145.334177,157.464828 C145.334177,161.826229 146.495431,165.296539 148.817975,167.875862 C151.140518,170.455185 154.272385,171.744828 158.213671,171.744828 C162.108036,171.744828 165.228174,170.455185 167.574177,167.875862 C169.920181,165.296539 171.093165,161.826229 171.093165,157.464828 C171.093165,153.103426 169.93191,149.633116 167.609367,147.053793 C165.286824,144.47447 162.154956,143.184828 158.213671,143.184828 Z M201.778734,132.773793 L201.778734,161.474483 C201.778734,164.757258 202.517714,167.266198 203.995696,169.001379 C205.473678,170.73656 207.620239,171.604138 210.435443,171.604138 C213.250647,171.604138 215.397208,170.73656 216.87519,169.001379 C218.353172,167.266198 219.092152,164.757258 219.092152,161.474483 L219.092152,132.773793 L231.127089,132.773793 L231.127089,161.474483 C231.127089,166.164161 230.212161,170.115156 228.382278,173.327586 C226.552396,176.540016 224.05394,178.955164 220.886835,180.573103 C217.719731,182.191043 214.14213,183 210.153924,183 C206.165718,183 202.646766,182.202767 199.596962,180.608276 C196.547158,179.013785 194.15427,176.598637 192.418228,173.362759 C190.682185,170.12688 189.814177,166.164161 189.814177,161.474483 L189.814177,132.773793 L201.778734,132.773793 Z M264.698228,182.507586 L253.930127,163.725517 L251.185316,163.725517 L251.185316,182.507586 L239.15038,182.507586 L239.15038,132.773793 L259.701266,132.773793 C263.642551,132.773793 266.973826,133.453786 269.69519,134.813793 C272.416554,136.1738 274.457546,138.037919 275.818228,140.406207 C277.17891,142.774495 277.859241,145.482743 277.859241,148.531034 C277.859241,152.142087 276.862204,155.21378 274.868101,157.746207 C272.873998,160.278633 269.976728,162.013788 266.176203,162.951724 L278,182.507586 L264.698228,182.507586 Z M251.185316,155.495172 L258.64557,155.495172 C261.038493,155.495172 262.797969,154.967591 263.924051,153.912414 C265.050132,152.857236 265.613165,151.297941 265.613165,149.234483 C265.613165,147.264818 265.038402,145.717247 263.888861,144.591724 C262.739319,143.466201 260.991573,142.903448 258.64557,142.903448 L251.185316,142.903448 L251.185316,155.495172 Z" id="in-your" fill="#020F3E"></path>
            <path d="M8.0078703,195.31068 L15.5781521,218.92233 L23.1484338,195.31068 L31.1563041,195.31068 L20.391626,226.68932 L10.7209193,226.68932 L0,195.31068 L8.0078703,195.31068 Z M53.2107666,220.963939 L41.6146702,220.963939 L39.6892807,226.68932 L31.8126869,226.68932 L43.1462301,195.532594 L51.7667244,195.532594 L63.1002676,226.68932 L55.1361561,226.68932 L53.2107666,220.963939 Z M51.285377,215.194175 L47.4345978,203.654646 L43.5400598,215.194175 L51.285377,215.194175 Z M73.471116,220.875173 L83.4481347,220.875173 L83.4481347,226.68932 L65.988352,226.68932 L65.988352,195.31068 L73.471116,195.31068 L73.471116,220.875173 Z M94.169054,195.31068 L94.169054,213.418863 C94.169054,215.49007 94.6285174,217.073041 95.5474579,218.167822 C96.4663984,219.262604 97.8010301,219.809986 99.551393,219.809986 C101.301756,219.809986 102.636388,219.262604 103.555328,218.167822 C104.474269,217.073041 104.933732,215.49007 104.933732,213.418863 L104.933732,195.31068 L112.416496,195.31068 L112.416496,213.418863 C112.416496,216.377731 111.847637,218.87054 110.709901,220.897365 C109.572165,222.92419 108.018741,224.447984 106.049583,225.468793 C104.080425,226.489603 101.856038,227 99.3763576,227 C96.8966768,227 94.708756,226.497 92.8125295,225.490985 C90.916303,224.48497 89.4285169,222.961175 88.3491264,220.919556 C87.2697359,218.877937 86.7300488,216.377731 86.7300488,213.418863 L86.7300488,195.31068 L94.169054,195.31068 Z M124.88777,201.346741 L124.88777,207.915395 L135.346136,207.915395 L135.346136,213.640777 L124.88777,213.640777 L124.88777,220.608877 L136.658901,220.608877 L136.658901,226.68932 L117.405006,226.68932 L117.405006,195.31068 L136.658901,195.31068 L136.658901,201.346741 L124.88777,201.346741 Z M155.03762,195 C158.975937,195 162.235939,196.050382 164.817724,198.151179 C167.399509,200.251975 169.069622,203.092446 169.828113,206.672677 L161.90776,206.672677 C161.324306,205.222831 160.427258,204.083684 159.216591,203.255201 C158.005923,202.426718 156.569188,202.012483 154.906343,202.012483 C152.71839,202.012483 150.953467,202.826159 149.611522,204.453537 C148.269577,206.080914 147.598615,208.25565 147.598615,210.977809 C147.598615,213.699967 148.269577,215.867306 149.611522,217.479889 C150.953467,219.092472 152.71839,219.898752 154.906343,219.898752 C156.569188,219.898752 158.005923,219.484516 159.216591,218.656033 C160.427258,217.82755 161.324306,216.703197 161.90776,215.28294 L169.828113,215.28294 C169.069622,218.833582 167.399509,221.666656 164.817724,223.782247 C162.235939,225.897838 158.975937,226.955617 155.03762,226.955617 C152.03283,226.955617 149.392739,226.282485 147.117267,224.9362 C144.841796,223.589915 143.084166,221.703664 141.844326,219.277393 C140.604485,216.851121 139.984574,214.08462 139.984574,210.977809 C139.984574,207.870997 140.604485,205.104497 141.844326,202.678225 C143.084166,200.251953 144.841796,198.365703 147.117267,197.019417 C149.392739,195.673132 152.03283,195 155.03762,195 Z M200.765623,195.31068 L200.765623,226.68932 L193.2391,226.68932 L193.2391,213.596394 L181.511727,213.596394 L181.511727,226.68932 L174.028963,226.68932 L174.028963,195.31068 L181.511727,195.31068 L181.511727,207.471567 L193.2391,207.471567 L193.2391,195.31068 L200.765623,195.31068 Z M225.095545,220.963939 L213.499449,220.963939 L211.574059,226.68932 L203.697466,226.68932 L215.031009,195.532594 L223.651503,195.532594 L234.985046,226.68932 L227.020935,226.68932 L225.095545,220.963939 Z M223.170156,215.194175 L219.319377,203.654646 L215.424839,215.194175 L223.170156,215.194175 Z M245.355895,195.31068 L245.355895,226.68932 L237.873131,226.68932 L237.873131,195.31068 L245.355895,195.31068 Z M278,226.68932 L270.517236,226.68932 L258.002204,207.427184 L258.002204,226.68932 L250.51944,226.68932 L250.51944,195.31068 L258.002204,195.31068 L270.517236,214.750347 L270.517236,195.31068 L278,195.31068 L278,226.68932 Z" id="valuechain" fill="#020F3E"></path>
            <path d="M50.3472313,56.9862069 L50.3472313,69.1793103 L32.8983713,69.1793103 L32.8983713,120.372414 L17.267101,120.372414 L17.267101,69.1793103 L0,69.1793103 L0,56.9862069 L50.3472313,56.9862069 Z M89.8798046,120.372414 L75.9752443,96.4344828 L72.4309446,96.4344828 L72.4309446,120.372414 L56.8905537,120.372414 L56.8905537,56.9862069 L83.4273616,56.9862069 C88.5166378,56.9862069 92.8182235,57.8528649 96.3322476,59.5862069 C99.8462716,61.3195489 102.48175,63.6953872 104.238762,66.7137931 C105.995774,69.732199 106.874267,73.1838886 106.874267,77.0689655 C106.874267,81.6712874 105.586821,85.5861908 103.011889,88.8137931 C100.436958,92.0413954 96.69579,94.2528676 91.7882736,95.4482759 L107.056026,120.372414 L89.8798046,120.372414 Z M72.4309446,85.9448276 L82.0641694,85.9448276 C85.1540871,85.9448276 87.4260514,85.2724205 88.8801303,83.9275862 C90.3342092,82.5827519 91.0612378,80.5954154 91.0612378,77.9655172 C91.0612378,75.4551599 90.3190628,73.4827658 88.8346906,72.0482759 C87.3503183,70.6137859 85.0935005,69.8965517 82.0641694,69.8965517 L72.4309446,69.8965517 L72.4309446,85.9448276 Z M129.775896,56.9862069 L129.775896,93.5655172 C129.775896,97.7494462 130.730121,100.947115 132.638599,103.158621 C134.547078,105.370126 137.318874,106.475862 140.954072,106.475862 C144.589269,106.475862 147.361065,105.370126 149.269544,103.158621 C151.178023,100.947115 152.132248,97.7494462 152.132248,93.5655172 L152.132248,56.9862069 L167.672638,56.9862069 L167.672638,93.5655172 C167.672638,99.5425586 166.491217,104.57814 164.128339,108.672414 C161.76546,112.766687 158.539271,115.844817 154.449674,117.906897 C150.360077,119.968976 145.740417,121 140.590554,121 C135.440691,121 130.896762,119.983918 126.958632,117.951724 C123.020501,115.91953 119.93063,112.8414 117.688925,108.717241 C115.44722,104.593083 114.326384,99.5425586 114.326384,93.5655172 L114.326384,56.9862069 L129.775896,56.9862069 Z M224.199674,102.531034 C224.199674,105.878178 223.336328,108.956308 221.609609,111.765517 C219.88289,114.574727 217.33829,116.816084 213.975733,118.489655 C210.613175,120.163227 206.538786,121 201.752443,121 C194.542635,121 188.605235,119.266684 183.940065,115.8 C179.274895,112.333316 176.730295,107.491985 176.306189,101.275862 L192.846254,101.275862 C193.088601,103.666679 193.951947,105.549418 195.436319,106.924138 C196.920691,108.298857 198.813995,108.986207 201.116287,108.986207 C203.115645,108.986207 204.690874,108.448281 205.84202,107.372414 C206.993165,106.296546 207.56873,104.862078 207.56873,103.068966 C207.56873,101.455164 207.038605,100.11035 205.978339,99.0344828 C204.918073,97.9586153 203.600334,97.0770149 202.025081,96.3896552 C200.449829,95.7022954 198.268744,94.8804646 195.481759,93.9241379 C191.422455,92.5494184 188.105387,91.2195467 185.530456,89.9344828 C182.955525,88.6494189 180.744146,86.7367943 178.896254,84.1965517 C177.048362,81.6563091 176.12443,78.3540433 176.12443,74.2896552 C176.12443,70.5241191 177.093801,67.2666804 179.032573,64.5172414 C180.971345,61.7678023 183.652263,59.6609269 187.075407,58.1965517 C190.498551,56.7321766 194.421476,56 198.8443,56 C205.993521,56 211.673432,57.6735465 215.884202,61.0206897 C220.094972,64.3678328 222.472961,68.9700857 223.018241,74.8275862 L206.205537,74.8275862 C205.902604,72.7356217 205.130137,71.0770176 203.888111,69.8517241 C202.646085,68.6264307 200.964831,68.0137931 198.8443,68.0137931 C197.026701,68.0137931 195.557497,68.4919492 194.436645,69.4482759 C193.315792,70.4046025 192.755375,71.8091861 192.755375,73.662069 C192.755375,75.1563293 193.255207,76.4264316 194.254886,77.4724138 C195.254565,78.518396 196.511719,79.3701117 198.026384,80.0275862 C199.54105,80.6850608 201.722136,81.521834 204.569707,82.537931 C208.689597,83.9126506 212.052104,85.2724071 214.657329,86.6172414 C217.262554,87.9620757 219.504225,89.9195274 221.38241,92.4896552 C223.260596,95.059783 224.199674,98.4068759 224.199674,102.531034 Z M279,56.9862069 L279,69.1793103 L261.55114,69.1793103 L261.55114,120.372414 L245.91987,120.372414 L245.91987,69.1793103 L228.652769,69.1793103 L228.652769,56.9862069 L279,56.9862069 Z" id="trust" fill="#3E61FF"></path>
            <path d="M26.0865744,21.3592233 C28.7116516,21.9694899 30.7932246,23.2306885 32.3313557,25.1428571 C33.8694869,27.0550257 34.638541,29.2722944 34.638541,31.7947295 C34.638541,35.4970134 33.3978004,38.3855652 30.9162821,40.4604716 C28.4347638,42.5353779 24.8766071,43.5728155 20.2417051,43.5728155 L0,43.5728155 L0,0.427184466 L19.7495056,0.427184466 C24.1793234,0.427184466 27.6041775,1.38325442 30.0241705,3.29542302 C32.4441636,5.20759162 33.6541419,7.9334081 33.6541419,11.4729542 C33.6541419,14.0767583 32.9568663,16.2431721 31.562294,17.9722607 C30.1677217,19.7013494 28.3425001,20.8303256 26.0865744,21.3592233 Z M10.5207647,18.0638003 L17.4115579,18.0638003 C21.0620559,18.0638003 22.8872775,16.5178148 22.8872775,13.4257975 C22.8872775,10.3337802 21.0210397,8.78779473 17.288508,8.78779473 L10.5207647,8.78779473 L10.5207647,18.0638003 Z M18.0268073,35.0901526 C21.9234063,35.0901526 23.8716766,33.5034833 23.8716766,30.3300971 C23.8716766,28.7840884 23.3589739,27.5737445 22.3335531,26.6990291 C21.3081323,25.8243137 19.8520566,25.3869626 17.9652824,25.3869626 L10.5207647,25.3869626 L10.5207647,35.0901526 L18.0268073,35.0901526 Z M50.3889255,0.427184466 L50.3889255,25.3259362 C50.3889255,28.1738469 51.0349309,30.3504317 52.3269611,31.8557559 C53.6189913,33.3610801 55.4954832,34.1137309 57.9564931,34.1137309 C60.417503,34.1137309 62.2939949,33.3610801 63.586025,31.8557559 C64.8780552,30.3504317 65.5240606,28.1738469 65.5240606,25.3259362 L65.5240606,0.427184466 L76.0448253,0.427184466 L76.0448253,25.3259362 C76.0448253,29.39438 75.2450091,32.8219925 73.6453527,35.6088766 C72.0456962,38.3957606 69.8615827,40.4909777 67.0929466,41.8945908 C64.3243105,43.298204 61.196824,44 57.7103933,44 C54.2239626,44 51.1477464,43.3083749 48.4816524,41.925104 C45.8155583,40.5418331 43.7237313,38.446616 42.2061085,35.6393897 C40.6884858,32.8321635 39.9296858,29.39438 39.9296858,25.3259362 L39.9296858,0.427184466 L50.3889255,0.427184466 Z M93.5794331,0.427184466 L93.5794331,43.5728155 L83.0586684,43.5728155 L83.0586684,0.427184466 L93.5794331,0.427184466 Z M111.360141,35.5783634 L125.387827,35.5783634 L125.387827,43.5728155 L100.839376,43.5728155 L100.839376,0.427184466 L111.360141,0.427184466 L111.360141,35.5783634 Z M169.378159,21.9084605 C169.378159,26.1396421 168.465548,29.8927252 166.640299,33.1678225 C164.81505,36.4429198 162.190012,38.99583 158.765107,40.8266297 C155.340201,42.6574294 151.310358,43.5728155 146.675456,43.5728155 L130.248297,43.5728155 L130.248297,0.427184466 L146.675456,0.427184466 C151.351375,0.427184466 155.391472,1.32222868 158.795869,3.11234397 C162.200266,4.90245925 164.81505,7.42485659 166.640299,10.6796117 C168.465548,13.9343667 169.378159,17.6772789 169.378159,21.9084605 Z M145.752582,34.2357836 C149.854265,34.2357836 153.043276,33.1576622 155.31971,31.001387 C157.596144,28.8451117 158.734344,25.8141665 158.734344,21.9084605 C158.734344,18.0027544 157.596144,14.9718092 155.31971,12.815534 C153.043276,10.6592588 149.854265,9.58113731 145.752582,9.58113731 L140.769062,9.58113731 L140.769062,34.2357836 L145.752582,34.2357836 Z M185.866842,0.427184466 L185.866842,43.5728155 L175.346078,43.5728155 L175.346078,0.427184466 L185.866842,0.427184466 Z M231.764447,43.5728155 L221.243683,43.5728155 L203.64755,17.0873786 L203.64755,43.5728155 L193.126785,43.5728155 L193.126785,0.427184466 L203.64755,0.427184466 L221.243683,27.1567268 L221.243683,0.427184466 L231.764447,0.427184466 L231.764447,43.5728155 Z M259.389145,0 C264.844384,0 269.33566,1.32222441 272.863107,3.9667129 C276.390555,6.61120139 278.584922,10.1913783 279.446276,14.7073509 L268.310261,14.7073509 C267.571959,13.1613422 266.444013,11.9306564 264.92639,11.0152566 C263.408767,10.0998567 261.583545,9.64216366 259.45067,9.64216366 C256.128307,9.64216366 253.462253,10.750798 251.452428,12.9680999 C249.442603,15.1854017 248.437706,18.1858341 248.437706,21.9694868 C248.437706,26.0786151 249.493874,29.2316118 251.60624,31.4285714 C253.718607,33.6255311 256.723045,34.7239945 260.619644,34.7239945 C263.121671,34.7239945 265.316038,34.0425403 267.202813,32.6796117 C269.089587,31.316683 270.422614,29.3740302 271.201934,26.851595 L257.912547,26.851595 L257.912547,19.3453537 L280,19.3453537 L280,29.6588072 C279.179663,32.1812424 277.867144,34.5205625 276.062404,36.6768377 C274.257663,38.833113 271.950501,40.5825176 269.140848,41.925104 C266.331195,43.2676905 263.121676,43.9389736 259.512195,43.9389736 C255.123394,43.9389736 251.288378,43.0134166 248.007031,41.1622746 C244.725685,39.3111327 242.192934,36.7175386 240.408701,33.3814147 C238.624469,30.0452908 237.732367,26.2413528 237.732367,21.9694868 C237.732367,17.6976208 238.624469,13.8936829 240.408701,10.5575589 C242.192934,7.22143501 244.715431,4.62784097 247.976269,2.77669903 C251.237107,0.925557087 255.041361,0 259.389145,0 Z" id="Building" fill="#020F3E"></path>
        </g>
        <g id="Group-4-Copy-7" transform="translate(259.500000, 1151.500000) scale(-1, 1) translate(-259.500000, -1151.500000) translate(0.000000, 1063.000000)">
            <polygon id="Triangle" fill="#486BFF" points="204 176.5 519 0 519 176.5"></polygon>
            <g id="Group-28" transform="translate(56.000000, 83.000000)">
                <polygon id="Triangle" fill="#03CAFF" transform="translate(223.500000, 46.750000) rotate(-180.000000) translate(-223.500000, -46.750000) " points="156 6.83120227e-13 291 4.54747351e-13 291 93.5"></polygon>
                <polygon id="Triangle" fill="#486BFF" transform="translate(78.500000, 46.750000) scale(-1, 1) rotate(-180.000000) translate(-78.500000, -46.750000) " points="1.8189894e-12 6.83120227e-13 157 4.54747351e-13 157 93.5"></polygon>
            </g>
            <g id="Group-27" transform="translate(0.000000, 140.000000)">
                <polygon id="Triangle-Copy" fill="#03CAFF" points="113.272349 36.572618 59.5231018 36.572618 59.5231018 0.201906317"></polygon>
                <polygon id="Triangle-Copy-2" fill="#486BFF" points="0.425251258 36.7033461 59.4870065 -1.70530257e-13 59.4870065 36.7033461"></polygon>
            </g>
        </g>
    </g>
</svg>
